<?xml version="1.0" encoding="UTF-8" standalone="no"?>
<!DOCTYPE svg PUBLIC "-//W3C//DTD SVG 1.1//EN"
 "http://www.w3.org/Graphics/SVG/1.1/DTD/svg11.dtd">
<!-- Generated by graphviz version 2.36.0 (20140111.2315)
 -->
<!-- Title: BrowserModel.getFavorite Pages: 1 -->
<svg width="892pt" height="38pt"
 viewBox="0.00 0.00 892.00 38.00" xmlns="http://www.w3.org/2000/svg" xmlns:xlink="http://www.w3.org/1999/xlink">
<g id="graph0" class="graph" transform="scale(1 1) rotate(0) translate(4 34)">
<title>BrowserModel.getFavorite</title>
<polygon fill="white" stroke="none" points="-4,4 -4,-34 888,-34 888,4 -4,4"/>
<!-- Node1 -->
<g id="node1" class="node"><title>Node1</title>
<polygon fill="#bfbfbf" stroke="black" points="0,-5.5 0,-24.5 140,-24.5 140,-5.5 0,-5.5"/>
<text text-anchor="middle" x="70" y="-12.5" font-family="Helvetica,sans-Serif" font-size="10.00">BrowserModel.getFavorite</text>
</g>
<!-- Node2 -->
<g id="node2" class="node"><title>Node2</title>
<g id="a_node2"><a xlink:href="../../da/dc7/class_browser_view.html#a5eb25d6d929e3bf06fbc98aad4dfe990" target="_top" xlink:title="BrowserView.showFavorite">
<polygon fill="white" stroke="black" points="176,-5.5 176,-24.5 316,-24.5 316,-5.5 176,-5.5"/>
<text text-anchor="middle" x="246" y="-12.5" font-family="Helvetica,sans-Serif" font-size="10.00">BrowserView.showFavorite</text>
</a>
</g>
</g>
<!-- Node1&#45;&gt;Node2 -->
<g id="edge1" class="edge"><title>Node1&#45;&gt;Node2</title>
<path fill="none" stroke="midnightblue" d="M150.035,-15C158.625,-15 167.319,-15 175.779,-15"/>
<polygon fill="midnightblue" stroke="midnightblue" points="150.019,-11.5001 140.019,-15 150.019,-18.5001 150.019,-11.5001"/>
</g>
<!-- Node3 -->
<g id="node3" class="node"><title>Node3</title>
<g id="a_node3"><a xlink:href="../../da/dc7/class_browser_view.html#a5da1de68c05af5b4999d5169ea8a3cb1" target="_top" xlink:title="BrowserView.makePreferences\lPanel">
<polygon fill="white" stroke="black" points="352.5,-0 352.5,-30 515.5,-30 515.5,-0 352.5,-0"/>
<text text-anchor="start" x="360.5" y="-18" font-family="Helvetica,sans-Serif" font-size="10.00">BrowserView.makePreferences</text>
<text text-anchor="middle" x="434" y="-7" font-family="Helvetica,sans-Serif" font-size="10.00">Panel</text>
</a>
</g>
</g>
<!-- Node2&#45;&gt;Node3 -->
<g id="edge2" class="edge"><title>Node2&#45;&gt;Node3</title>
<path fill="none" stroke="midnightblue" d="M326.305,-15C334.941,-15 343.738,-15 352.39,-15"/>
<polygon fill="midnightblue" stroke="midnightblue" points="326.26,-11.5001 316.26,-15 326.259,-18.5001 326.26,-11.5001"/>
</g>
<!-- Node4 -->
<g id="node4" class="node"><title>Node4</title>
<g id="a_node4"><a xlink:href="../../da/dc7/class_browser_view.html#a7187363a54226b91dcd71bfb90e60aa4" target="_top" xlink:title="BrowserView.makeInputPanel">
<polygon fill="white" stroke="black" points="552.5,-5.5 552.5,-24.5 707.5,-24.5 707.5,-5.5 552.5,-5.5"/>
<text text-anchor="middle" x="630" y="-12.5" font-family="Helvetica,sans-Serif" font-size="10.00">BrowserView.makeInputPanel</text>
</a>
</g>
</g>
<!-- Node3&#45;&gt;Node4 -->
<g id="edge3" class="edge"><title>Node3&#45;&gt;Node4</title>
<path fill="none" stroke="midnightblue" d="M525.643,-15C534.591,-15 543.611,-15 552.397,-15"/>
<polygon fill="midnightblue" stroke="midnightblue" points="525.588,-11.5001 515.588,-15 525.588,-18.5001 525.588,-11.5001"/>
</g>
<!-- Node5 -->
<g id="node5" class="node"><title>Node5</title>
<g id="a_node5"><a xlink:href="../../da/dc7/class_browser_view.html#a5e87a7d2011460380dcf165db009461b" target="_top" xlink:title="BrowserView.BrowserView">
<polygon fill="white" stroke="black" points="744.5,-5.5 744.5,-24.5 883.5,-24.5 883.5,-5.5 744.5,-5.5"/>
<text text-anchor="middle" x="814" y="-12.5" font-family="Helvetica,sans-Serif" font-size="10.00">BrowserView.BrowserView</text>
</a>
</g>
</g>
<!-- Node4&#45;&gt;Node5 -->
<g id="edge4" class="edge"><title>Node4&#45;&gt;Node5</title>
<path fill="none" stroke="midnightblue" d="M717.678,-15C726.592,-15 735.56,-15 744.241,-15"/>
<polygon fill="midnightblue" stroke="midnightblue" points="717.657,-11.5001 707.657,-15 717.657,-18.5001 717.657,-11.5001"/>
</g>
</g>
</svg>
