<?xml version="1.0" encoding="UTF-8" standalone="no"?>
<!DOCTYPE svg PUBLIC "-//W3C//DTD SVG 1.1//EN"
 "http://www.w3.org/Graphics/SVG/1.1/DTD/svg11.dtd">
<!-- Generated by graphviz version 2.36.0 (20140111.2315)
 -->
<!-- Title: BrowserModel.getHome Pages: 1 -->
<!--zoomable 308 -->
<svg id="main" version="1.1" xmlns="http://www.w3.org/2000/svg" xmlns:xlink="http://www.w3.org/1999/xlink" xml:space="preserve" onload="init(evt)">
<style type="text/css"><![CDATA[
.edge:hover path { stroke: red; }
.edge:hover polygon { stroke: red; fill: red; }
]]></style>
<script type="text/javascript"><![CDATA[
var edges = document.getElementsByTagName('g');
if (edges && edges.length) {
  for (var i=0;i<edges.length;i++) {
    if (edges[i].id.substr(0,4)=='edge') {
      edges[i].setAttribute('class','edge');
    }
  }
}
]]></script>
        <defs>
                <circle id="rim" cx="0" cy="0" r="7"/>
                <circle id="rim2" cx="0" cy="0" r="3.5"/>
                <g id="zoomPlus">
                        <use xlink:href="#rim" fill="#404040">
                                <set attributeName="fill" to="#808080" begin="zoomplus.mouseover" end="zoomplus.mouseout"/>
                        </use>
                        <path d="M-4,0h8M0,-4v8" fill="none" stroke="white" stroke-width="1.5" pointer-events="none"/>
                </g>
                <g id="zoomMin">
                        <use xlink:href="#rim" fill="#404040">
                                <set attributeName="fill" to="#808080" begin="zoomminus.mouseover" end="zoomminus.mouseout"/>
                        </use>
                        <path d="M-4,0h8" fill="none" stroke="white" stroke-width="1.5" pointer-events="none"/>
                </g>
                <g id="dirArrow">
                        <path fill="none" stroke="white" stroke-width="1.5" d="M0,-3.0v7 M-2.5,-0.5L0,-3.0L2.5,-0.5"/>
                </g>
               <g id="resetDef">
                       <use xlink:href="#rim2" fill="#404040">
                               <set attributeName="fill" to="#808080" begin="reset.mouseover" end="reset.mouseout"/>
                       </use>
               </g>
        </defs>

<script type="text/javascript">
var viewWidth = 1422;
var viewHeight = 308;
var sectionId = 'dynsection-6';
</script>
<script xlink:href="../../svgpan.js"/>
<svg id="graph" class="graph">
<g id="viewport">
<title>BrowserModel.getHome</title>
<polygon fill="white" stroke="none" points="-4,4 -4,-303.932 1418,-303.932 1418,4 -4,4"/>
<!-- Node1 -->
<g id="node1" class="node"><title>Node1</title>
<polygon fill="#bfbfbf" stroke="black" points="0.5,-59.4324 0.5,-78.4324 131.5,-78.4324 131.5,-59.4324 0.5,-59.4324"/>
<text text-anchor="middle" x="66" y="-66.4324" font-family="Helvetica,sans-Serif" font-size="10.00">BrowserModel.getHome</text>
</g>
<!-- Node2 -->
<g id="node2" class="node"><title>Node2</title>
<g id="a_node2"><a xlink:href="../../da/dc7/class_browser_view.html#a075eb442cd14dfdf391d474164cb5587" target="_top" xlink:title="BrowserView.enableButtons">
<polygon fill="white" stroke="black" points="168.5,-95.4324 168.5,-114.432 317.5,-114.432 317.5,-95.4324 168.5,-95.4324"/>
<text text-anchor="middle" x="243" y="-102.432" font-family="Helvetica,sans-Serif" font-size="10.00">BrowserView.enableButtons</text>
</a>
</g>
</g>
<!-- Node1&#45;&gt;Node2 -->
<g id="edge1" class="edge"><title>Node1&#45;&gt;Node2</title>
<path fill="none" stroke="midnightblue" d="M123.539,-80.5632C146.848,-85.3582 173.522,-90.8454 195.65,-95.3974"/>
<polygon fill="midnightblue" stroke="midnightblue" points="123.937,-77.072 113.437,-78.4852 122.527,-83.9285 123.937,-77.072"/>
</g>
<!-- Node6 -->
<g id="node6" class="node"><title>Node6</title>
<g id="a_node6"><a xlink:href="../../da/dc7/class_browser_view.html#a27f780fabcdd2064805f4434fea1a495" target="_top" xlink:title="BrowserView.home">
<polygon fill="white" stroke="black" points="702.5,-24.4324 702.5,-43.4324 809.5,-43.4324 809.5,-24.4324 702.5,-24.4324"/>
<text text-anchor="middle" x="756" y="-31.4324" font-family="Helvetica,sans-Serif" font-size="10.00">BrowserView.home</text>
</a>
</g>
</g>
<!-- Node1&#45;&gt;Node6 -->
<g id="edge20" class="edge"><title>Node1&#45;&gt;Node6</title>
<path fill="none" stroke="midnightblue" d="M141.957,-65.1192C282.282,-57.9806 581.367,-42.7655 702.465,-36.605"/>
<polygon fill="midnightblue" stroke="midnightblue" points="141.535,-61.636 131.725,-65.6397 141.89,-68.627 141.535,-61.636"/>
</g>
<!-- Node3 -->
<g id="node3" class="node"><title>Node3</title>
<g id="a_node3"><a xlink:href="../../da/dc7/class_browser_view.html#a5e87a7d2011460380dcf165db009461b" target="_top" xlink:title="BrowserView.BrowserView">
<polygon fill="white" stroke="black" points="1274.5,-252.432 1274.5,-271.432 1413.5,-271.432 1413.5,-252.432 1274.5,-252.432"/>
<text text-anchor="middle" x="1344" y="-259.432" font-family="Helvetica,sans-Serif" font-size="10.00">BrowserView.BrowserView</text>
</a>
</g>
</g>
<!-- Node2&#45;&gt;Node3 -->
<g id="edge2" class="edge"><title>Node2&#45;&gt;Node3</title>
<path fill="none" stroke="midnightblue" d="M258.791,-122.269C301.283,-170.018 429.439,-299.932 566,-299.932 566,-299.932 566,-299.932 965,-299.932 1078.61,-299.932 1210.47,-282.729 1284.58,-271.472"/>
<polygon fill="midnightblue" stroke="midnightblue" points="261.301,-119.822 252.081,-114.602 256.034,-124.432 261.301,-119.822"/>
</g>
<!-- Node4 -->
<g id="node4" class="node"><title>Node4</title>
<g id="a_node4"><a xlink:href="../../da/dc7/class_browser_view.html#a34f643e815549bd4340fb49f0865c030" target="_top" xlink:title="BrowserView.update">
<polygon fill="white" stroke="black" points="354.5,-129.432 354.5,-148.432 467.5,-148.432 467.5,-129.432 354.5,-129.432"/>
<text text-anchor="middle" x="411" y="-136.432" font-family="Helvetica,sans-Serif" font-size="10.00">BrowserView.update</text>
</a>
</g>
</g>
<!-- Node2&#45;&gt;Node4 -->
<g id="edge3" class="edge"><title>Node2&#45;&gt;Node4</title>
<path fill="none" stroke="midnightblue" d="M300.513,-116.507C320.985,-120.7 343.857,-125.385 363.381,-129.384"/>
<polygon fill="midnightblue" stroke="midnightblue" points="301.181,-113.072 290.682,-114.494 299.776,-119.929 301.181,-113.072"/>
</g>
<!-- Node10 -->
<g id="node10" class="node"><title>Node10</title>
<g id="a_node10"><a xlink:href="../../da/dc7/class_browser_view.html#a5da1de68c05af5b4999d5169ea8a3cb1" target="_top" xlink:title="BrowserView.makePreferences\lPanel">
<polygon fill="white" stroke="black" points="882.5,-56.9324 882.5,-86.9324 1045.5,-86.9324 1045.5,-56.9324 882.5,-56.9324"/>
<text text-anchor="start" x="890.5" y="-74.9324" font-family="Helvetica,sans-Serif" font-size="10.00">BrowserView.makePreferences</text>
<text text-anchor="middle" x="964" y="-63.9324" font-family="Helvetica,sans-Serif" font-size="10.00">Panel</text>
</a>
</g>
</g>
<!-- Node2&#45;&gt;Node10 -->
<g id="edge19" class="edge"><title>Node2&#45;&gt;Node10</title>
<path fill="none" stroke="midnightblue" d="M276.394,-91.6401C367.162,-56.2018 631.368,34.5687 846,-14.9324 880.787,-22.9553 917.201,-42.7874 939.983,-56.7956"/>
<polygon fill="midnightblue" stroke="midnightblue" points="274.942,-88.4505 266.929,-95.382 277.515,-94.9603 274.942,-88.4505"/>
</g>
<!-- Node5 -->
<g id="node5" class="node"><title>Node5</title>
<g id="a_node5"><a xlink:href="../../da/dc7/class_browser_view.html#ac654bf4a0eb91d6a9b1cf013e52fc3e5" target="_top" xlink:title="BrowserView.showPage">
<polygon fill="white" stroke="black" points="504,-109.432 504,-128.432 630,-128.432 630,-109.432 504,-109.432"/>
<text text-anchor="middle" x="567" y="-116.432" font-family="Helvetica,sans-Serif" font-size="10.00">BrowserView.showPage</text>
</a>
</g>
</g>
<!-- Node4&#45;&gt;Node5 -->
<g id="edge4" class="edge"><title>Node4&#45;&gt;Node5</title>
<path fill="none" stroke="midnightblue" d="M477.702,-130.4C486.41,-129.269 495.315,-128.112 503.959,-126.99"/>
<polygon fill="midnightblue" stroke="midnightblue" points="477.063,-126.953 467.598,-131.712 477.965,-133.895 477.063,-126.953"/>
</g>
<!-- Node14 -->
<g id="node14" class="node"><title>Node14</title>
<g id="a_node14"><a xlink:href="../../da/dc7/class_browser_view.html#acd8bc4226c2213dc9ce03cb6e8b4d24c" target="_top" xlink:title="BrowserView.next">
<polygon fill="white" stroke="black" points="517,-233.432 517,-252.432 617,-252.432 617,-233.432 517,-233.432"/>
<text text-anchor="middle" x="567" y="-240.432" font-family="Helvetica,sans-Serif" font-size="10.00">BrowserView.next</text>
</a>
</g>
</g>
<!-- Node4&#45;&gt;Node14 -->
<g id="edge15" class="edge"><title>Node4&#45;&gt;Node14</title>
<path fill="none" stroke="midnightblue" d="M434.561,-154.169C466.781,-175.927 525.033,-215.266 551.822,-233.358"/>
<polygon fill="midnightblue" stroke="midnightblue" points="436.458,-151.226 426.212,-148.53 432.54,-157.027 436.458,-151.226"/>
</g>
<!-- Node15 -->
<g id="node15" class="node"><title>Node15</title>
<g id="a_node15"><a xlink:href="../../da/dc7/class_browser_view.html#a6936eb74671b8632e4e361fa00fc74df" target="_top" xlink:title="BrowserView.back">
<polygon fill="white" stroke="black" points="516.5,-157.432 516.5,-176.432 617.5,-176.432 617.5,-157.432 516.5,-157.432"/>
<text text-anchor="middle" x="567" y="-164.432" font-family="Helvetica,sans-Serif" font-size="10.00">BrowserView.back</text>
</a>
</g>
</g>
<!-- Node4&#45;&gt;Node15 -->
<g id="edge17" class="edge"><title>Node4&#45;&gt;Node15</title>
<path fill="none" stroke="midnightblue" d="M474.539,-150.303C488.429,-152.829 502.971,-155.473 516.266,-157.89"/>
<polygon fill="midnightblue" stroke="midnightblue" points="475.032,-146.835 464.567,-148.49 473.78,-153.723 475.032,-146.835"/>
</g>
<!-- Node5&#45;&gt;Node6 -->
<g id="edge5" class="edge"><title>Node5&#45;&gt;Node6</title>
<path fill="none" stroke="midnightblue" d="M587.035,-102.841C605.895,-87.7224 636.2,-65.5847 666,-52.9324 677.344,-48.1162 690.037,-44.471 702.204,-41.7303"/>
<polygon fill="midnightblue" stroke="midnightblue" points="584.743,-100.194 579.218,-109.234 589.175,-105.612 584.743,-100.194"/>
</g>
<!-- Node9 -->
<g id="node9" class="node"><title>Node9</title>
<g id="a_node9"><a xlink:href="../../da/dc7/class_browser_view.html#a5eb25d6d929e3bf06fbc98aad4dfe990" target="_top" xlink:title="BrowserView.showFavorite">
<polygon fill="white" stroke="black" points="686,-62.4324 686,-81.4324 826,-81.4324 826,-62.4324 686,-62.4324"/>
<text text-anchor="middle" x="756" y="-69.4324" font-family="Helvetica,sans-Serif" font-size="10.00">BrowserView.showFavorite</text>
</a>
</g>
</g>
<!-- Node5&#45;&gt;Node9 -->
<g id="edge9" class="edge"><title>Node5&#45;&gt;Node9</title>
<path fill="none" stroke="midnightblue" d="M609.475,-106.407C626.865,-101.332 647.342,-95.5837 666,-90.9324 679.337,-87.6075 693.889,-84.3481 707.288,-81.4937"/>
<polygon fill="midnightblue" stroke="midnightblue" points="608.236,-103.123 599.631,-109.304 610.212,-109.839 608.236,-103.123"/>
</g>
<!-- Node11 -->
<g id="node11" class="node"><title>Node11</title>
<g id="a_node11"><a xlink:href="../../de/dbe/class_browser_view_1_1_show_page.html#aa7fc8a1359d9b97a46932a60d385edf1" target="_top" xlink:title="BrowserView.ShowPage.handle">
<polygon fill="white" stroke="black" points="674.5,-100.432 674.5,-119.432 837.5,-119.432 837.5,-100.432 674.5,-100.432"/>
<text text-anchor="middle" x="756" y="-107.432" font-family="Helvetica,sans-Serif" font-size="10.00">BrowserView.ShowPage.handle</text>
</a>
</g>
</g>
<!-- Node5&#45;&gt;Node11 -->
<g id="edge12" class="edge"><title>Node5&#45;&gt;Node11</title>
<path fill="none" stroke="midnightblue" d="M640.111,-115.462C651.263,-114.925 662.845,-114.368 674.173,-113.822"/>
<polygon fill="midnightblue" stroke="midnightblue" points="639.829,-111.971 630.009,-115.948 640.165,-118.963 639.829,-111.971"/>
</g>
<!-- Node12 -->
<g id="node12" class="node"><title>Node12</title>
<g id="a_node12"><a xlink:href="../../d1/db7/class_browser_view_1_1_link_listener.html#ac327c216bc964212d29c574a5c9f4c9c" target="_top" xlink:title="BrowserView.LinkListener.changed">
<polygon fill="white" stroke="black" points="666.5,-176.432 666.5,-195.432 845.5,-195.432 845.5,-176.432 666.5,-176.432"/>
<text text-anchor="middle" x="756" y="-183.432" font-family="Helvetica,sans-Serif" font-size="10.00">BrowserView.LinkListener.changed</text>
</a>
</g>
</g>
<!-- Node5&#45;&gt;Node12 -->
<g id="edge13" class="edge"><title>Node5&#45;&gt;Node12</title>
<path fill="none" stroke="midnightblue" d="M598.337,-132.767C608.457,-137.477 619.76,-142.839 630,-147.932 646.198,-155.99 648.993,-160.763 666,-166.932 676.397,-170.704 687.762,-173.833 698.789,-176.39"/>
<polygon fill="midnightblue" stroke="midnightblue" points="599.616,-129.503 589.07,-128.482 596.678,-135.856 599.616,-129.503"/>
</g>
<!-- Node13 -->
<g id="node13" class="node"><title>Node13</title>
<g id="a_node13"><a xlink:href="../../d0/d4b/class_main.html#a6d9ee2db320148cdd46abd77f0f5c388" target="_top" xlink:title="Main.start">
<polygon fill="white" stroke="black" points="723.5,-138.432 723.5,-157.432 788.5,-157.432 788.5,-138.432 723.5,-138.432"/>
<text text-anchor="middle" x="756" y="-145.432" font-family="Helvetica,sans-Serif" font-size="10.00">Main.start</text>
</a>
</g>
</g>
<!-- Node5&#45;&gt;Node13 -->
<g id="edge14" class="edge"><title>Node5&#45;&gt;Node13</title>
<path fill="none" stroke="midnightblue" d="M639.589,-130.034C668.548,-134.525 700.477,-139.477 723.397,-143.031"/>
<polygon fill="midnightblue" stroke="midnightblue" points="639.908,-126.542 629.49,-128.468 638.835,-133.459 639.908,-126.542"/>
</g>
<!-- Node7 -->
<g id="node7" class="node"><title>Node7</title>
<g id="a_node7"><a xlink:href="../../da/dc7/class_browser_view.html#a857540bb858533e7a993f15225a56e79" target="_top" xlink:title="BrowserView.makeNavigation\lPanel">
<polygon fill="white" stroke="black" points="885.5,-208.932 885.5,-238.932 1042.5,-238.932 1042.5,-208.932 885.5,-208.932"/>
<text text-anchor="start" x="893.5" y="-226.932" font-family="Helvetica,sans-Serif" font-size="10.00">BrowserView.makeNavigation</text>
<text text-anchor="middle" x="964" y="-215.932" font-family="Helvetica,sans-Serif" font-size="10.00">Panel</text>
</a>
</g>
</g>
<!-- Node6&#45;&gt;Node7 -->
<g id="edge6" class="edge"><title>Node6&#45;&gt;Node7</title>
<path fill="none" stroke="midnightblue" d="M819.379,-40.8887C828.793,-43.6962 838.013,-47.5784 846,-52.9324 861.463,-63.2975 928.417,-168.704 953.481,-208.675"/>
<polygon fill="midnightblue" stroke="midnightblue" points="820.1,-37.4598 809.541,-38.3353 818.341,-44.2353 820.1,-37.4598"/>
</g>
<!-- Node8 -->
<g id="node8" class="node"><title>Node8</title>
<g id="a_node8"><a xlink:href="../../da/dc7/class_browser_view.html#a7187363a54226b91dcd71bfb90e60aa4" target="_top" xlink:title="BrowserView.makeInputPanel">
<polygon fill="white" stroke="black" points="1082.5,-214.432 1082.5,-233.432 1237.5,-233.432 1237.5,-214.432 1082.5,-214.432"/>
<text text-anchor="middle" x="1160" y="-221.432" font-family="Helvetica,sans-Serif" font-size="10.00">BrowserView.makeInputPanel</text>
</a>
</g>
</g>
<!-- Node7&#45;&gt;Node8 -->
<g id="edge7" class="edge"><title>Node7&#45;&gt;Node8</title>
<path fill="none" stroke="midnightblue" d="M1052.71,-223.932C1062.57,-223.932 1072.55,-223.932 1082.25,-223.932"/>
<polygon fill="midnightblue" stroke="midnightblue" points="1052.51,-220.432 1042.51,-223.932 1052.51,-227.432 1052.51,-220.432"/>
</g>
<!-- Node8&#45;&gt;Node3 -->
<g id="edge8" class="edge"><title>Node8&#45;&gt;Node3</title>
<path fill="none" stroke="midnightblue" d="M1216.95,-235.613C1242.76,-241.002 1273.01,-247.318 1297.4,-252.412"/>
<polygon fill="midnightblue" stroke="midnightblue" points="1217.43,-232.139 1206.93,-233.521 1216,-238.991 1217.43,-232.139"/>
</g>
<!-- Node9&#45;&gt;Node10 -->
<g id="edge10" class="edge"><title>Node9&#45;&gt;Node10</title>
<path fill="none" stroke="midnightblue" d="M836.44,-71.9324C851.465,-71.9324 867.196,-71.9324 882.26,-71.9324"/>
<polygon fill="midnightblue" stroke="midnightblue" points="836.168,-68.4325 826.168,-71.9324 836.168,-75.4325 836.168,-68.4325"/>
</g>
<!-- Node10&#45;&gt;Node8 -->
<g id="edge11" class="edge"><title>Node10&#45;&gt;Node8</title>
<path fill="none" stroke="midnightblue" d="M992.311,-93.3305C1034.98,-126.764 1115.77,-190.063 1146.61,-214.226"/>
<polygon fill="midnightblue" stroke="midnightblue" points="994.341,-90.4749 984.311,-87.0624 990.024,-95.985 994.341,-90.4749"/>
</g>
<!-- Node14&#45;&gt;Node7 -->
<g id="edge16" class="edge"><title>Node14&#45;&gt;Node7</title>
<path fill="none" stroke="midnightblue" d="M627.432,-243.599C683.771,-243.821 770.741,-243.099 846,-237.932 858.756,-237.057 872.257,-235.774 885.379,-234.336"/>
<polygon fill="midnightblue" stroke="midnightblue" points="627.296,-240.099 617.278,-243.548 627.26,-247.098 627.296,-240.099"/>
</g>
<!-- Node15&#45;&gt;Node7 -->
<g id="edge18" class="edge"><title>Node15&#45;&gt;Node7</title>
<path fill="none" stroke="midnightblue" d="M596.691,-180.747C615.852,-189.293 641.871,-199.615 666,-204.932 739.289,-221.083 825.024,-225.023 885.487,-225.409"/>
<polygon fill="midnightblue" stroke="midnightblue" points="597.893,-177.448 587.343,-176.476 594.984,-183.815 597.893,-177.448"/>
</g>
</g>
</svg>
        <g id="navigator" transform="translate(0 0)" fill="#404254">
                <rect fill="#f2f5e9" fill-opacity="0.5" stroke="#606060" stroke-width=".5" x="0" y="0" width="60" height="60"/>
                <use id="zoomplus" xlink:href="#zoomPlus" x="17" y="9" onmousedown="handleZoom(evt,'in')"/>
                <use id="zoomminus" xlink:href="#zoomMin" x="42" y="9" onmousedown="handleZoom(evt,'out')"/>
                <use id="reset" xlink:href="#resetDef" x="30" y="36" onmousedown="handleReset()"/>
                <g id="arrowUp" xlink:href="#dirArrow" transform="translate(30 24)" onmousedown="handlePan(0,-1)">
                  <use xlink:href="#rim" fill="#404040">
                        <set attributeName="fill" to="#808080" begin="arrowUp.mouseover" end="arrowUp.mouseout"/>
                  </use>
                  <path fill="none" stroke="white" stroke-width="1.5" d="M0,-3.0v7 M-2.5,-0.5L0,-3.0L2.5,-0.5"/>
                </g>
                <g id="arrowRight" xlink:href="#dirArrow" transform="rotate(90) translate(36 -43)" onmousedown="handlePan(1,0)">
                  <use xlink:href="#rim" fill="#404040">
                        <set attributeName="fill" to="#808080" begin="arrowRight.mouseover" end="arrowRight.mouseout"/>
                  </use>
                  <path fill="none" stroke="white" stroke-width="1.5" d="M0,-3.0v7 M-2.5,-0.5L0,-3.0L2.5,-0.5"/>
                </g>
                <g id="arrowDown" xlink:href="#dirArrow" transform="rotate(180) translate(-30 -48)" onmousedown="handlePan(0,1)">
                  <use xlink:href="#rim" fill="#404040">
                        <set attributeName="fill" to="#808080" begin="arrowDown.mouseover" end="arrowDown.mouseout"/>
                  </use>
                  <path fill="none" stroke="white" stroke-width="1.5" d="M0,-3.0v7 M-2.5,-0.5L0,-3.0L2.5,-0.5"/>
                </g>
                <g id="arrowLeft" xlink:href="#dirArrow" transform="rotate(270) translate(-36 17)" onmousedown="handlePan(-1,0)">
                  <use xlink:href="#rim" fill="#404040">
                        <set attributeName="fill" to="#808080" begin="arrowLeft.mouseover" end="arrowLeft.mouseout"/>
                  </use>
                  <path fill="none" stroke="white" stroke-width="1.5" d="M0,-3.0v7 M-2.5,-0.5L0,-3.0L2.5,-0.5"/>
                </g>
        </g>
        <svg viewBox="0 0 15 15" width="100%" height="30px" preserveAspectRatio="xMaxYMin meet">
         <g id="arrow_out" transform="scale(0.3 0.3)">
          <a xlink:href="class_browser_model_aef138e6865de073292539cc36ed81d8d_icgraph_org.svg" target="_base">
           <rect id="button" ry="5" rx="5" y="6" x="6" height="38" width="38"
                fill="#f2f5e9" fill-opacity="0.5" stroke="#606060" stroke-width="1.0"/>
           <path id="arrow"
             d="M 11.500037,31.436501 C 11.940474,20.09759 22.043105,11.32322 32.158766,21.979434 L 37.068811,17.246167 C 37.068811,17.246167 37.088388,32 37.088388,32 L 22.160133,31.978069 C 22.160133,31.978069 26.997745,27.140456 26.997745,27.140456 C 18.528582,18.264221 13.291696,25.230495 11.500037,31.436501 z"
             style="fill:#404040;"/>
          </a>
         </g>
        </svg>
</svg>
