<?xml version="1.0" encoding="UTF-8" standalone="no"?>
<!DOCTYPE svg PUBLIC "-//W3C//DTD SVG 1.1//EN"
 "http://www.w3.org/Graphics/SVG/1.1/DTD/svg11.dtd">
<!-- Generated by graphviz version 2.36.0 (20140111.2315)
 -->
<!-- Title: BrowserModel.hasPrevious Pages: 1 -->
<svg width="1434pt" height="300pt"
 viewBox="0.00 0.00 1434.00 299.88" xmlns="http://www.w3.org/2000/svg" xmlns:xlink="http://www.w3.org/1999/xlink">
<g id="graph0" class="graph" transform="scale(1 1) rotate(0) translate(4 295.878)">
<title>BrowserModel.hasPrevious</title>
<polygon fill="white" stroke="none" points="-4,4 -4,-295.878 1430,-295.878 1430,4 -4,4"/>
<!-- Node1 -->
<g id="node1" class="node"><title>Node1</title>
<polygon fill="#bfbfbf" stroke="black" points="0,-117.5 0,-136.5 144,-136.5 144,-117.5 0,-117.5"/>
<text text-anchor="middle" x="72" y="-124.5" font-family="Helvetica,sans-Serif" font-size="10.00">BrowserModel.hasPrevious</text>
</g>
<!-- Node2 -->
<g id="node2" class="node"><title>Node2</title>
<g id="a_node2"><a xlink:href="../../d4/d0e/class_browser_model.html#a48b671d68ebdc1f64cabf275b7c4c70e" target="_top" xlink:title="BrowserModel.back">
<polygon fill="white" stroke="black" points="368.5,-208.5 368.5,-227.5 477.5,-227.5 477.5,-208.5 368.5,-208.5"/>
<text text-anchor="middle" x="423" y="-215.5" font-family="Helvetica,sans-Serif" font-size="10.00">BrowserModel.back</text>
</a>
</g>
</g>
<!-- Node1&#45;&gt;Node2 -->
<g id="edge1" class="edge"><title>Node1&#45;&gt;Node2</title>
<path fill="none" stroke="midnightblue" d="M119.604,-139.152C189.934,-157.49 321.734,-191.856 385.541,-208.493"/>
<polygon fill="midnightblue" stroke="midnightblue" points="120.249,-135.703 109.689,-136.567 118.483,-142.477 120.249,-135.703"/>
</g>
<!-- Node7 -->
<g id="node7" class="node"><title>Node7</title>
<g id="a_node7"><a xlink:href="../../da/dc7/class_browser_view.html#a075eb442cd14dfdf391d474164cb5587" target="_top" xlink:title="BrowserView.enableButtons">
<polygon fill="white" stroke="black" points="180.5,-63.5 180.5,-82.5 329.5,-82.5 329.5,-63.5 180.5,-63.5"/>
<text text-anchor="middle" x="255" y="-70.5" font-family="Helvetica,sans-Serif" font-size="10.00">BrowserView.enableButtons</text>
</a>
</g>
</g>
<!-- Node1&#45;&gt;Node7 -->
<g id="edge6" class="edge"><title>Node1&#45;&gt;Node7</title>
<path fill="none" stroke="midnightblue" d="M114.669,-114.568C147.36,-104.815 192.187,-91.4415 222.073,-82.5252"/>
<polygon fill="midnightblue" stroke="midnightblue" points="113.525,-111.257 104.943,-117.47 115.526,-117.965 113.525,-111.257"/>
</g>
<!-- Node3 -->
<g id="node3" class="node"><title>Node3</title>
<g id="a_node3"><a xlink:href="../../da/dc7/class_browser_view.html#a6936eb74671b8632e4e361fa00fc74df" target="_top" xlink:title="BrowserView.back">
<polygon fill="white" stroke="black" points="528.5,-218.5 528.5,-237.5 629.5,-237.5 629.5,-218.5 528.5,-218.5"/>
<text text-anchor="middle" x="579" y="-225.5" font-family="Helvetica,sans-Serif" font-size="10.00">BrowserView.back</text>
</a>
</g>
</g>
<!-- Node2&#45;&gt;Node3 -->
<g id="edge2" class="edge"><title>Node2&#45;&gt;Node3</title>
<path fill="none" stroke="midnightblue" d="M488.014,-222.157C501.466,-223.03 515.462,-223.939 528.296,-224.772"/>
<polygon fill="midnightblue" stroke="midnightblue" points="488.068,-218.653 477.862,-221.498 487.614,-225.638 488.068,-218.653"/>
</g>
<!-- Node4 -->
<g id="node4" class="node"><title>Node4</title>
<g id="a_node4"><a xlink:href="../../da/dc7/class_browser_view.html#a857540bb858533e7a993f15225a56e79" target="_top" xlink:title="BrowserView.makeNavigation\lPanel">
<polygon fill="white" stroke="black" points="897.5,-232 897.5,-262 1054.5,-262 1054.5,-232 897.5,-232"/>
<text text-anchor="start" x="905.5" y="-250" font-family="Helvetica,sans-Serif" font-size="10.00">BrowserView.makeNavigation</text>
<text text-anchor="middle" x="976" y="-239" font-family="Helvetica,sans-Serif" font-size="10.00">Panel</text>
</a>
</g>
</g>
<!-- Node3&#45;&gt;Node4 -->
<g id="edge3" class="edge"><title>Node3&#45;&gt;Node4</title>
<path fill="none" stroke="midnightblue" d="M601.597,-243.46C620.657,-256.091 649.731,-272.964 678,-280 755.632,-299.321 778.755,-290.962 858,-280 883.192,-276.515 910.59,-269 932.537,-262.02"/>
<polygon fill="midnightblue" stroke="midnightblue" points="603.326,-240.403 593.092,-237.662 599.383,-246.187 603.326,-240.403"/>
</g>
<!-- Node5 -->
<g id="node5" class="node"><title>Node5</title>
<g id="a_node5"><a xlink:href="../../da/dc7/class_browser_view.html#a7187363a54226b91dcd71bfb90e60aa4" target="_top" xlink:title="BrowserView.makeInputPanel">
<polygon fill="white" stroke="black" points="1094.5,-101.5 1094.5,-120.5 1249.5,-120.5 1249.5,-101.5 1094.5,-101.5"/>
<text text-anchor="middle" x="1172" y="-108.5" font-family="Helvetica,sans-Serif" font-size="10.00">BrowserView.makeInputPanel</text>
</a>
</g>
</g>
<!-- Node4&#45;&gt;Node5 -->
<g id="edge4" class="edge"><title>Node4&#45;&gt;Node5</title>
<path fill="none" stroke="midnightblue" d="M1006.78,-226.122C1049.3,-196.317 1125.71,-142.749 1157.03,-120.793"/>
<polygon fill="midnightblue" stroke="midnightblue" points="1004.68,-223.32 998.503,-231.926 1008.7,-229.052 1004.68,-223.32"/>
</g>
<!-- Node6 -->
<g id="node6" class="node"><title>Node6</title>
<g id="a_node6"><a xlink:href="../../da/dc7/class_browser_view.html#a5e87a7d2011460380dcf165db009461b" target="_top" xlink:title="BrowserView.BrowserView">
<polygon fill="white" stroke="black" points="1286.5,-45.5 1286.5,-64.5 1425.5,-64.5 1425.5,-45.5 1286.5,-45.5"/>
<text text-anchor="middle" x="1356" y="-52.5" font-family="Helvetica,sans-Serif" font-size="10.00">BrowserView.BrowserView</text>
</a>
</g>
</g>
<!-- Node5&#45;&gt;Node6 -->
<g id="edge5" class="edge"><title>Node5&#45;&gt;Node6</title>
<path fill="none" stroke="midnightblue" d="M1214.2,-98.3235C1247.58,-88.0536 1293.87,-73.8093 1324.12,-64.5011"/>
<polygon fill="midnightblue" stroke="midnightblue" points="1212.82,-95.0871 1204.29,-101.373 1214.87,-101.778 1212.82,-95.0871"/>
</g>
<!-- Node7&#45;&gt;Node6 -->
<g id="edge7" class="edge"><title>Node7&#45;&gt;Node6</title>
<path fill="none" stroke="midnightblue" d="M290.045,-60.0069C348.178,-39.0233 470.71,-0 578,-0 578,-0 578,-0 977,-0 1101.84,-0 1247.48,-29.7408 1315.82,-45.4825"/>
<polygon fill="midnightblue" stroke="midnightblue" points="288.807,-56.7332 280.618,-63.4565 291.212,-63.3069 288.807,-56.7332"/>
</g>
<!-- Node8 -->
<g id="node8" class="node"><title>Node8</title>
<g id="a_node8"><a xlink:href="../../da/dc7/class_browser_view.html#a34f643e815549bd4340fb49f0865c030" target="_top" xlink:title="BrowserView.update">
<polygon fill="white" stroke="black" points="366.5,-151.5 366.5,-170.5 479.5,-170.5 479.5,-151.5 366.5,-151.5"/>
<text text-anchor="middle" x="423" y="-158.5" font-family="Helvetica,sans-Serif" font-size="10.00">BrowserView.update</text>
</a>
</g>
</g>
<!-- Node7&#45;&gt;Node8 -->
<g id="edge8" class="edge"><title>Node7&#45;&gt;Node8</title>
<path fill="none" stroke="midnightblue" d="M283.025,-87.3266C317.107,-105.394 374.768,-135.962 403.941,-151.427"/>
<polygon fill="midnightblue" stroke="midnightblue" points="284.556,-84.1765 274.081,-82.5851 281.277,-90.3612 284.556,-84.1765"/>
</g>
<!-- Node12 -->
<g id="node12" class="node"><title>Node12</title>
<g id="a_node12"><a xlink:href="../../da/dc7/class_browser_view.html#a5da1de68c05af5b4999d5169ea8a3cb1" target="_top" xlink:title="BrowserView.makePreferences\lPanel">
<polygon fill="white" stroke="black" points="894.5,-96 894.5,-126 1057.5,-126 1057.5,-96 894.5,-96"/>
<text text-anchor="start" x="902.5" y="-114" font-family="Helvetica,sans-Serif" font-size="10.00">BrowserView.makePreferences</text>
<text text-anchor="middle" x="976" y="-103" font-family="Helvetica,sans-Serif" font-size="10.00">Panel</text>
</a>
</g>
</g>
<!-- Node7&#45;&gt;Node12 -->
<g id="edge21" class="edge"><title>Node7&#45;&gt;Node12</title>
<path fill="none" stroke="midnightblue" d="M317.025,-61.8104C426.791,-43.7859 664.158,-14.4251 858,-57 891.869,-64.4388 927.616,-82.6657 950.551,-95.8899"/>
<polygon fill="midnightblue" stroke="midnightblue" points="316.41,-58.3645 307.123,-63.4629 317.563,-65.269 316.41,-58.3645"/>
</g>
<!-- Node8&#45;&gt;Node3 -->
<g id="edge20" class="edge"><title>Node8&#45;&gt;Node3</title>
<path fill="none" stroke="midnightblue" d="M448.979,-175.63C467.153,-185.875 492.579,-199.397 516,-209 524.541,-212.502 533.972,-215.71 542.846,-218.453"/>
<polygon fill="midnightblue" stroke="midnightblue" points="450.604,-172.528 440.184,-170.609 447.133,-178.606 450.604,-172.528"/>
</g>
<!-- Node9 -->
<g id="node9" class="node"><title>Node9</title>
<g id="a_node9"><a xlink:href="../../da/dc7/class_browser_view.html#ac654bf4a0eb91d6a9b1cf013e52fc3e5" target="_top" xlink:title="BrowserView.showPage">
<polygon fill="white" stroke="black" points="516,-142.5 516,-161.5 642,-161.5 642,-142.5 516,-142.5"/>
<text text-anchor="middle" x="579" y="-149.5" font-family="Helvetica,sans-Serif" font-size="10.00">BrowserView.showPage</text>
</a>
</g>
</g>
<!-- Node8&#45;&gt;Node9 -->
<g id="edge9" class="edge"><title>Node8&#45;&gt;Node9</title>
<path fill="none" stroke="midnightblue" d="M489.702,-157.16C498.41,-156.651 507.315,-156.131 515.959,-155.626"/>
<polygon fill="midnightblue" stroke="midnightblue" points="489.376,-153.673 479.598,-157.751 489.785,-160.661 489.376,-153.673"/>
</g>
<!-- Node16 -->
<g id="node16" class="node"><title>Node16</title>
<g id="a_node16"><a xlink:href="../../da/dc7/class_browser_view.html#acd8bc4226c2213dc9ce03cb6e8b4d24c" target="_top" xlink:title="BrowserView.next">
<polygon fill="white" stroke="black" points="529,-180.5 529,-199.5 629,-199.5 629,-180.5 529,-180.5"/>
<text text-anchor="middle" x="579" y="-187.5" font-family="Helvetica,sans-Serif" font-size="10.00">BrowserView.next</text>
</a>
</g>
</g>
<!-- Node8&#45;&gt;Node16 -->
<g id="edge18" class="edge"><title>Node8&#45;&gt;Node16</title>
<path fill="none" stroke="midnightblue" d="M484.794,-172.448C499.382,-175.195 514.783,-178.096 528.772,-180.73"/>
<polygon fill="midnightblue" stroke="midnightblue" points="485.327,-168.987 474.852,-170.576 484.032,-175.866 485.327,-168.987"/>
</g>
<!-- Node10 -->
<g id="node10" class="node"><title>Node10</title>
<g id="a_node10"><a xlink:href="../../da/dc7/class_browser_view.html#a27f780fabcdd2064805f4434fea1a495" target="_top" xlink:title="BrowserView.home">
<polygon fill="white" stroke="black" points="714.5,-218.5 714.5,-237.5 821.5,-237.5 821.5,-218.5 714.5,-218.5"/>
<text text-anchor="middle" x="768" y="-225.5" font-family="Helvetica,sans-Serif" font-size="10.00">BrowserView.home</text>
</a>
</g>
</g>
<!-- Node9&#45;&gt;Node10 -->
<g id="edge10" class="edge"><title>Node9&#45;&gt;Node10</title>
<path fill="none" stroke="midnightblue" d="M631.179,-165.312C634.946,-167.002 638.599,-168.892 642,-171 661.774,-183.257 657.712,-197.615 678,-209 689.023,-215.186 701.848,-219.361 714.272,-222.178"/>
<polygon fill="midnightblue" stroke="midnightblue" points="632.237,-161.966 621.652,-161.509 629.642,-168.467 632.237,-161.966"/>
</g>
<!-- Node11 -->
<g id="node11" class="node"><title>Node11</title>
<g id="a_node11"><a xlink:href="../../da/dc7/class_browser_view.html#a5eb25d6d929e3bf06fbc98aad4dfe990" target="_top" xlink:title="BrowserView.showFavorite">
<polygon fill="white" stroke="black" points="698,-180.5 698,-199.5 838,-199.5 838,-180.5 698,-180.5"/>
<text text-anchor="middle" x="768" y="-187.5" font-family="Helvetica,sans-Serif" font-size="10.00">BrowserView.showFavorite</text>
</a>
</g>
</g>
<!-- Node9&#45;&gt;Node11 -->
<g id="edge12" class="edge"><title>Node9&#45;&gt;Node11</title>
<path fill="none" stroke="midnightblue" d="M637.131,-163.61C663.727,-169.014 694.973,-175.364 720.151,-180.48"/>
<polygon fill="midnightblue" stroke="midnightblue" points="637.685,-160.151 627.188,-161.589 636.291,-167.01 637.685,-160.151"/>
</g>
<!-- Node13 -->
<g id="node13" class="node"><title>Node13</title>
<g id="a_node13"><a xlink:href="../../de/dbe/class_browser_view_1_1_show_page.html#aa7fc8a1359d9b97a46932a60d385edf1" target="_top" xlink:title="BrowserView.ShowPage.handle">
<polygon fill="white" stroke="black" points="686.5,-142.5 686.5,-161.5 849.5,-161.5 849.5,-142.5 686.5,-142.5"/>
<text text-anchor="middle" x="768" y="-149.5" font-family="Helvetica,sans-Serif" font-size="10.00">BrowserView.ShowPage.handle</text>
</a>
</g>
</g>
<!-- Node9&#45;&gt;Node13 -->
<g id="edge15" class="edge"><title>Node9&#45;&gt;Node13</title>
<path fill="none" stroke="midnightblue" d="M652.111,-152C663.263,-152 674.845,-152 686.173,-152"/>
<polygon fill="midnightblue" stroke="midnightblue" points="652.009,-148.5 642.009,-152 652.009,-155.5 652.009,-148.5"/>
</g>
<!-- Node14 -->
<g id="node14" class="node"><title>Node14</title>
<g id="a_node14"><a xlink:href="../../d1/db7/class_browser_view_1_1_link_listener.html#ac327c216bc964212d29c574a5c9f4c9c" target="_top" xlink:title="BrowserView.LinkListener.changed">
<polygon fill="white" stroke="black" points="678.5,-104.5 678.5,-123.5 857.5,-123.5 857.5,-104.5 678.5,-104.5"/>
<text text-anchor="middle" x="768" y="-111.5" font-family="Helvetica,sans-Serif" font-size="10.00">BrowserView.LinkListener.changed</text>
</a>
</g>
</g>
<!-- Node9&#45;&gt;Node14 -->
<g id="edge16" class="edge"><title>Node9&#45;&gt;Node14</title>
<path fill="none" stroke="midnightblue" d="M637.131,-140.39C663.727,-134.986 694.973,-128.636 720.151,-123.52"/>
<polygon fill="midnightblue" stroke="midnightblue" points="636.291,-136.99 627.188,-142.411 637.685,-143.849 636.291,-136.99"/>
</g>
<!-- Node15 -->
<g id="node15" class="node"><title>Node15</title>
<g id="a_node15"><a xlink:href="../../d0/d4b/class_main.html#a6d9ee2db320148cdd46abd77f0f5c388" target="_top" xlink:title="Main.start">
<polygon fill="white" stroke="black" points="735.5,-66.5 735.5,-85.5 800.5,-85.5 800.5,-66.5 735.5,-66.5"/>
<text text-anchor="middle" x="768" y="-73.5" font-family="Helvetica,sans-Serif" font-size="10.00">Main.start</text>
</a>
</g>
</g>
<!-- Node9&#45;&gt;Node15 -->
<g id="edge17" class="edge"><title>Node9&#45;&gt;Node15</title>
<path fill="none" stroke="midnightblue" d="M601.586,-136.742C620.8,-123.837 650.103,-105.774 678,-95 696.423,-87.8847 718.074,-83.188 735.409,-80.2444"/>
<polygon fill="midnightblue" stroke="midnightblue" points="599.54,-133.901 593.262,-142.436 603.492,-139.679 599.54,-133.901"/>
</g>
<!-- Node10&#45;&gt;Node4 -->
<g id="edge11" class="edge"><title>Node10&#45;&gt;Node4</title>
<path fill="none" stroke="midnightblue" d="M831.751,-233.788C852.417,-235.694 875.65,-237.837 897.293,-239.833"/>
<polygon fill="midnightblue" stroke="midnightblue" points="831.795,-230.277 821.516,-232.844 831.152,-237.247 831.795,-230.277"/>
</g>
<!-- Node11&#45;&gt;Node12 -->
<g id="edge13" class="edge"><title>Node11&#45;&gt;Node12</title>
<path fill="none" stroke="midnightblue" d="M834.457,-178.098C842.477,-176.034 850.487,-173.675 858,-171 891.333,-159.131 927.193,-139.639 950.3,-126.106"/>
<polygon fill="midnightblue" stroke="midnightblue" points="833.593,-174.706 824.703,-180.469 835.247,-181.507 833.593,-174.706"/>
</g>
<!-- Node12&#45;&gt;Node5 -->
<g id="edge14" class="edge"><title>Node12&#45;&gt;Node5</title>
<path fill="none" stroke="midnightblue" d="M1067.64,-111C1076.59,-111 1085.61,-111 1094.4,-111"/>
<polygon fill="midnightblue" stroke="midnightblue" points="1067.59,-107.5 1057.59,-111 1067.59,-114.5 1067.59,-107.5"/>
</g>
<!-- Node16&#45;&gt;Node4 -->
<g id="edge19" class="edge"><title>Node16&#45;&gt;Node4</title>
<path fill="none" stroke="midnightblue" d="M631.179,-203.312C634.946,-205.002 638.599,-206.892 642,-209 661.774,-221.257 656.629,-237.808 678,-247 750.708,-278.274 843.004,-272.044 905.257,-262.041"/>
<polygon fill="midnightblue" stroke="midnightblue" points="632.237,-199.966 621.652,-199.509 629.642,-206.467 632.237,-199.966"/>
</g>
</g>
</svg>
