<?xml version="1.0" encoding="UTF-8" standalone="no"?>
<!DOCTYPE svg PUBLIC "-//W3C//DTD SVG 1.1//EN"
 "http://www.w3.org/Graphics/SVG/1.1/DTD/svg11.dtd">
<!-- Generated by graphviz version 2.36.0 (20140111.2315)
 -->
<!-- Title: BrowserModel.completeURL Pages: 1 -->
<svg width="1238pt" height="193pt"
 viewBox="0.00 0.00 1238.00 193.00" xmlns="http://www.w3.org/2000/svg" xmlns:xlink="http://www.w3.org/1999/xlink">
<g id="graph0" class="graph" transform="scale(1 1) rotate(0) translate(4 189)">
<title>BrowserModel.completeURL</title>
<polygon fill="white" stroke="none" points="-4,4 -4,-189 1234,-189 1234,4 -4,4"/>
<!-- Node1 -->
<g id="node1" class="node"><title>Node1</title>
<polygon fill="#bfbfbf" stroke="black" points="0,-76.5 0,-95.5 150,-95.5 150,-76.5 0,-76.5"/>
<text text-anchor="middle" x="75" y="-83.5" font-family="Helvetica,sans-Serif" font-size="10.00">BrowserModel.completeURL</text>
</g>
<!-- Node2 -->
<g id="node2" class="node"><title>Node2</title>
<g id="a_node2"><a xlink:href="../../d4/d0e/class_browser_model.html#a16df284a0004c149f459b18876491b13" target="_top" xlink:title="BrowserModel.go">
<polygon fill="white" stroke="black" points="186,-76.5 186,-95.5 284,-95.5 284,-76.5 186,-76.5"/>
<text text-anchor="middle" x="235" y="-83.5" font-family="Helvetica,sans-Serif" font-size="10.00">BrowserModel.go</text>
</a>
</g>
</g>
<!-- Node1&#45;&gt;Node2 -->
<g id="edge1" class="edge"><title>Node1&#45;&gt;Node2</title>
<path fill="none" stroke="midnightblue" d="M160.513,-86C169.136,-86 177.672,-86 185.706,-86"/>
<polygon fill="midnightblue" stroke="midnightblue" points="160.373,-82.5001 150.373,-86 160.373,-89.5001 160.373,-82.5001"/>
</g>
<!-- Node3 -->
<g id="node3" class="node"><title>Node3</title>
<g id="a_node3"><a xlink:href="../../da/dc7/class_browser_view.html#ac654bf4a0eb91d6a9b1cf013e52fc3e5" target="_top" xlink:title="BrowserView.showPage">
<polygon fill="white" stroke="black" points="320,-76.5 320,-95.5 446,-95.5 446,-76.5 320,-76.5"/>
<text text-anchor="middle" x="383" y="-83.5" font-family="Helvetica,sans-Serif" font-size="10.00">BrowserView.showPage</text>
</a>
</g>
</g>
<!-- Node2&#45;&gt;Node3 -->
<g id="edge2" class="edge"><title>Node2&#45;&gt;Node3</title>
<path fill="none" stroke="midnightblue" d="M294.275,-86C302.663,-86 311.321,-86 319.781,-86"/>
<polygon fill="midnightblue" stroke="midnightblue" points="294.211,-82.5001 284.21,-86 294.21,-89.5001 294.211,-82.5001"/>
</g>
<!-- Node4 -->
<g id="node4" class="node"><title>Node4</title>
<g id="a_node4"><a xlink:href="../../da/dc7/class_browser_view.html#a27f780fabcdd2064805f4434fea1a495" target="_top" xlink:title="BrowserView.home">
<polygon fill="white" stroke="black" points="518.5,-155.5 518.5,-174.5 625.5,-174.5 625.5,-155.5 518.5,-155.5"/>
<text text-anchor="middle" x="572" y="-162.5" font-family="Helvetica,sans-Serif" font-size="10.00">BrowserView.home</text>
</a>
</g>
</g>
<!-- Node3&#45;&gt;Node4 -->
<g id="edge3" class="edge"><title>Node3&#45;&gt;Node4</title>
<path fill="none" stroke="midnightblue" d="M406.003,-101.255C425.276,-114.005 454.437,-131.845 482,-143 494.541,-148.076 508.566,-152.206 521.706,-155.459"/>
<polygon fill="midnightblue" stroke="midnightblue" points="407.886,-98.304 397.635,-95.6272 403.98,-104.112 407.886,-98.304"/>
</g>
<!-- Node8 -->
<g id="node8" class="node"><title>Node8</title>
<g id="a_node8"><a xlink:href="../../da/dc7/class_browser_view.html#a5eb25d6d929e3bf06fbc98aad4dfe990" target="_top" xlink:title="BrowserView.showFavorite">
<polygon fill="white" stroke="black" points="502,-114.5 502,-133.5 642,-133.5 642,-114.5 502,-114.5"/>
<text text-anchor="middle" x="572" y="-121.5" font-family="Helvetica,sans-Serif" font-size="10.00">BrowserView.showFavorite</text>
</a>
</g>
</g>
<!-- Node3&#45;&gt;Node8 -->
<g id="edge7" class="edge"><title>Node3&#45;&gt;Node8</title>
<path fill="none" stroke="midnightblue" d="M441.131,-97.6095C467.727,-103.014 498.973,-109.364 524.151,-114.48"/>
<polygon fill="midnightblue" stroke="midnightblue" points="441.685,-94.1506 431.188,-95.589 440.291,-101.01 441.685,-94.1506"/>
</g>
<!-- Node10 -->
<g id="node10" class="node"><title>Node10</title>
<g id="a_node10"><a xlink:href="../../de/dbe/class_browser_view_1_1_show_page.html#aa7fc8a1359d9b97a46932a60d385edf1" target="_top" xlink:title="BrowserView.ShowPage.handle">
<polygon fill="white" stroke="black" points="490.5,-76.5 490.5,-95.5 653.5,-95.5 653.5,-76.5 490.5,-76.5"/>
<text text-anchor="middle" x="572" y="-83.5" font-family="Helvetica,sans-Serif" font-size="10.00">BrowserView.ShowPage.handle</text>
</a>
</g>
</g>
<!-- Node3&#45;&gt;Node10 -->
<g id="edge10" class="edge"><title>Node3&#45;&gt;Node10</title>
<path fill="none" stroke="midnightblue" d="M456.111,-86C467.263,-86 478.845,-86 490.173,-86"/>
<polygon fill="midnightblue" stroke="midnightblue" points="456.009,-82.5001 446.009,-86 456.009,-89.5001 456.009,-82.5001"/>
</g>
<!-- Node11 -->
<g id="node11" class="node"><title>Node11</title>
<g id="a_node11"><a xlink:href="../../d1/db7/class_browser_view_1_1_link_listener.html#ac327c216bc964212d29c574a5c9f4c9c" target="_top" xlink:title="BrowserView.LinkListener.changed">
<polygon fill="white" stroke="black" points="482.5,-38.5 482.5,-57.5 661.5,-57.5 661.5,-38.5 482.5,-38.5"/>
<text text-anchor="middle" x="572" y="-45.5" font-family="Helvetica,sans-Serif" font-size="10.00">BrowserView.LinkListener.changed</text>
</a>
</g>
</g>
<!-- Node3&#45;&gt;Node11 -->
<g id="edge11" class="edge"><title>Node3&#45;&gt;Node11</title>
<path fill="none" stroke="midnightblue" d="M441.131,-74.3905C467.727,-68.986 498.973,-62.6365 524.151,-57.5201"/>
<polygon fill="midnightblue" stroke="midnightblue" points="440.291,-70.9896 431.188,-76.411 441.685,-77.8494 440.291,-70.9896"/>
</g>
<!-- Node12 -->
<g id="node12" class="node"><title>Node12</title>
<g id="a_node12"><a xlink:href="../../d0/d4b/class_main.html#a6d9ee2db320148cdd46abd77f0f5c388" target="_top" xlink:title="Main.start">
<polygon fill="white" stroke="black" points="539.5,-0.5 539.5,-19.5 604.5,-19.5 604.5,-0.5 539.5,-0.5"/>
<text text-anchor="middle" x="572" y="-7.5" font-family="Helvetica,sans-Serif" font-size="10.00">Main.start</text>
</a>
</g>
</g>
<!-- Node3&#45;&gt;Node12 -->
<g id="edge12" class="edge"><title>Node3&#45;&gt;Node12</title>
<path fill="none" stroke="midnightblue" d="M405.586,-70.7424C424.8,-57.8374 454.103,-39.7741 482,-29 500.423,-21.8847 522.074,-17.188 539.409,-14.2444"/>
<polygon fill="midnightblue" stroke="midnightblue" points="403.54,-67.9015 397.262,-76.4362 407.492,-73.6791 403.54,-67.9015"/>
</g>
<!-- Node5 -->
<g id="node5" class="node"><title>Node5</title>
<g id="a_node5"><a xlink:href="../../da/dc7/class_browser_view.html#a857540bb858533e7a993f15225a56e79" target="_top" xlink:title="BrowserView.makeNavigation\lPanel">
<polygon fill="white" stroke="black" points="701.5,-155 701.5,-185 858.5,-185 858.5,-155 701.5,-155"/>
<text text-anchor="start" x="709.5" y="-173" font-family="Helvetica,sans-Serif" font-size="10.00">BrowserView.makeNavigation</text>
<text text-anchor="middle" x="780" y="-162" font-family="Helvetica,sans-Serif" font-size="10.00">Panel</text>
</a>
</g>
</g>
<!-- Node4&#45;&gt;Node5 -->
<g id="edge4" class="edge"><title>Node4&#45;&gt;Node5</title>
<path fill="none" stroke="midnightblue" d="M635.751,-166.523C656.417,-167.025 679.65,-167.589 701.293,-168.114"/>
<polygon fill="midnightblue" stroke="midnightblue" points="635.598,-163.018 625.516,-166.275 635.428,-170.016 635.598,-163.018"/>
</g>
<!-- Node6 -->
<g id="node6" class="node"><title>Node6</title>
<g id="a_node6"><a xlink:href="../../da/dc7/class_browser_view.html#a7187363a54226b91dcd71bfb90e60aa4" target="_top" xlink:title="BrowserView.makeInputPanel">
<polygon fill="white" stroke="black" points="898.5,-135.5 898.5,-154.5 1053.5,-154.5 1053.5,-135.5 898.5,-135.5"/>
<text text-anchor="middle" x="976" y="-142.5" font-family="Helvetica,sans-Serif" font-size="10.00">BrowserView.makeInputPanel</text>
</a>
</g>
</g>
<!-- Node5&#45;&gt;Node6 -->
<g id="edge5" class="edge"><title>Node5&#45;&gt;Node6</title>
<path fill="none" stroke="midnightblue" d="M868.458,-158.73C879.356,-157.325 890.417,-155.9 901.082,-154.525"/>
<polygon fill="midnightblue" stroke="midnightblue" points="867.981,-155.262 858.51,-160.012 868.876,-162.205 867.981,-155.262"/>
</g>
<!-- Node7 -->
<g id="node7" class="node"><title>Node7</title>
<g id="a_node7"><a xlink:href="../../da/dc7/class_browser_view.html#a5e87a7d2011460380dcf165db009461b" target="_top" xlink:title="BrowserView.BrowserView">
<polygon fill="white" stroke="black" points="1090.5,-135.5 1090.5,-154.5 1229.5,-154.5 1229.5,-135.5 1090.5,-135.5"/>
<text text-anchor="middle" x="1160" y="-142.5" font-family="Helvetica,sans-Serif" font-size="10.00">BrowserView.BrowserView</text>
</a>
</g>
</g>
<!-- Node6&#45;&gt;Node7 -->
<g id="edge6" class="edge"><title>Node6&#45;&gt;Node7</title>
<path fill="none" stroke="midnightblue" d="M1063.68,-145C1072.59,-145 1081.56,-145 1090.24,-145"/>
<polygon fill="midnightblue" stroke="midnightblue" points="1063.66,-141.5 1053.66,-145 1063.66,-148.5 1063.66,-141.5"/>
</g>
<!-- Node9 -->
<g id="node9" class="node"><title>Node9</title>
<g id="a_node9"><a xlink:href="../../da/dc7/class_browser_view.html#a5da1de68c05af5b4999d5169ea8a3cb1" target="_top" xlink:title="BrowserView.makePreferences\lPanel">
<polygon fill="white" stroke="black" points="698.5,-106 698.5,-136 861.5,-136 861.5,-106 698.5,-106"/>
<text text-anchor="start" x="706.5" y="-124" font-family="Helvetica,sans-Serif" font-size="10.00">BrowserView.makePreferences</text>
<text text-anchor="middle" x="780" y="-113" font-family="Helvetica,sans-Serif" font-size="10.00">Panel</text>
</a>
</g>
</g>
<!-- Node8&#45;&gt;Node9 -->
<g id="edge8" class="edge"><title>Node8&#45;&gt;Node9</title>
<path fill="none" stroke="midnightblue" d="M652.44,-122.843C667.465,-122.624 683.196,-122.395 698.26,-122.176"/>
<polygon fill="midnightblue" stroke="midnightblue" points="652.116,-119.347 642.168,-122.993 652.218,-126.347 652.116,-119.347"/>
</g>
<!-- Node9&#45;&gt;Node6 -->
<g id="edge9" class="edge"><title>Node9&#45;&gt;Node6</title>
<path fill="none" stroke="midnightblue" d="M871.643,-132.214C880.591,-133.32 889.611,-134.436 898.397,-135.523"/>
<polygon fill="midnightblue" stroke="midnightblue" points="871.942,-128.724 861.588,-130.97 871.083,-135.671 871.942,-128.724"/>
</g>
</g>
</svg>
