<?xml version="1.0" encoding="UTF-8" standalone="no"?>
<!DOCTYPE svg PUBLIC "-//W3C//DTD SVG 1.1//EN"
 "http://www.w3.org/Graphics/SVG/1.1/DTD/svg11.dtd">
<!-- Generated by graphviz version 2.36.0 (20140111.2315)
 -->
<!-- Title: BrowserModel.back Pages: 1 -->
<svg width="818pt" height="38pt"
 viewBox="0.00 0.00 818.00 38.00" xmlns="http://www.w3.org/2000/svg" xmlns:xlink="http://www.w3.org/1999/xlink">
<g id="graph0" class="graph" transform="scale(1 1) rotate(0) translate(4 34)">
<title>BrowserModel.back</title>
<polygon fill="white" stroke="none" points="-4,4 -4,-34 814,-34 814,4 -4,4"/>
<!-- Node1 -->
<g id="node1" class="node"><title>Node1</title>
<polygon fill="#bfbfbf" stroke="black" points="0.5,-5.5 0.5,-24.5 109.5,-24.5 109.5,-5.5 0.5,-5.5"/>
<text text-anchor="middle" x="55" y="-12.5" font-family="Helvetica,sans-Serif" font-size="10.00">BrowserModel.back</text>
</g>
<!-- Node2 -->
<g id="node2" class="node"><title>Node2</title>
<g id="a_node2"><a xlink:href="../../da/dc7/class_browser_view.html#a6936eb74671b8632e4e361fa00fc74df" target="_top" xlink:title="BrowserView.back">
<polygon fill="white" stroke="black" points="146.5,-5.5 146.5,-24.5 247.5,-24.5 247.5,-5.5 146.5,-5.5"/>
<text text-anchor="middle" x="197" y="-12.5" font-family="Helvetica,sans-Serif" font-size="10.00">BrowserView.back</text>
</a>
</g>
</g>
<!-- Node1&#45;&gt;Node2 -->
<g id="edge1" class="edge"><title>Node1&#45;&gt;Node2</title>
<path fill="none" stroke="midnightblue" d="M120.004,-15C128.837,-15 137.799,-15 146.321,-15"/>
<polygon fill="midnightblue" stroke="midnightblue" points="119.727,-11.5001 109.727,-15 119.727,-18.5001 119.727,-11.5001"/>
</g>
<!-- Node3 -->
<g id="node3" class="node"><title>Node3</title>
<g id="a_node3"><a xlink:href="../../da/dc7/class_browser_view.html#a857540bb858533e7a993f15225a56e79" target="_top" xlink:title="BrowserView.makeNavigation\lPanel">
<polygon fill="white" stroke="black" points="284.5,-0 284.5,-30 441.5,-30 441.5,-0 284.5,-0"/>
<text text-anchor="start" x="292.5" y="-18" font-family="Helvetica,sans-Serif" font-size="10.00">BrowserView.makeNavigation</text>
<text text-anchor="middle" x="363" y="-7" font-family="Helvetica,sans-Serif" font-size="10.00">Panel</text>
</a>
</g>
</g>
<!-- Node2&#45;&gt;Node3 -->
<g id="edge2" class="edge"><title>Node2&#45;&gt;Node3</title>
<path fill="none" stroke="midnightblue" d="M257.653,-15C266.337,-15 275.383,-15 284.359,-15"/>
<polygon fill="midnightblue" stroke="midnightblue" points="257.65,-11.5001 247.65,-15 257.65,-18.5001 257.65,-11.5001"/>
</g>
<!-- Node4 -->
<g id="node4" class="node"><title>Node4</title>
<g id="a_node4"><a xlink:href="../../da/dc7/class_browser_view.html#a7187363a54226b91dcd71bfb90e60aa4" target="_top" xlink:title="BrowserView.makeInputPanel">
<polygon fill="white" stroke="black" points="478.5,-5.5 478.5,-24.5 633.5,-24.5 633.5,-5.5 478.5,-5.5"/>
<text text-anchor="middle" x="556" y="-12.5" font-family="Helvetica,sans-Serif" font-size="10.00">BrowserView.makeInputPanel</text>
</a>
</g>
</g>
<!-- Node3&#45;&gt;Node4 -->
<g id="edge3" class="edge"><title>Node3&#45;&gt;Node4</title>
<path fill="none" stroke="midnightblue" d="M451.958,-15C460.757,-15 469.641,-15 478.31,-15"/>
<polygon fill="midnightblue" stroke="midnightblue" points="451.687,-11.5001 441.687,-15 451.687,-18.5001 451.687,-11.5001"/>
</g>
<!-- Node5 -->
<g id="node5" class="node"><title>Node5</title>
<g id="a_node5"><a xlink:href="../../da/dc7/class_browser_view.html#a5e87a7d2011460380dcf165db009461b" target="_top" xlink:title="BrowserView.BrowserView">
<polygon fill="white" stroke="black" points="670.5,-5.5 670.5,-24.5 809.5,-24.5 809.5,-5.5 670.5,-5.5"/>
<text text-anchor="middle" x="740" y="-12.5" font-family="Helvetica,sans-Serif" font-size="10.00">BrowserView.BrowserView</text>
</a>
</g>
</g>
<!-- Node4&#45;&gt;Node5 -->
<g id="edge4" class="edge"><title>Node4&#45;&gt;Node5</title>
<path fill="none" stroke="midnightblue" d="M643.678,-15C652.592,-15 661.56,-15 670.241,-15"/>
<polygon fill="midnightblue" stroke="midnightblue" points="643.657,-11.5001 633.657,-15 643.657,-18.5001 643.657,-11.5001"/>
</g>
</g>
</svg>
