<?xml version="1.0" encoding="UTF-8" standalone="no"?>
<!DOCTYPE svg PUBLIC "-//W3C//DTD SVG 1.1//EN"
 "http://www.w3.org/Graphics/SVG/1.1/DTD/svg11.dtd">
<!-- Generated by graphviz version 2.36.0 (20140111.2315)
 -->
<!-- Title: BrowserModel.hasNext Pages: 1 -->
<svg width="1416pt" height="322pt"
 viewBox="0.00 0.00 1416.00 322.00" xmlns="http://www.w3.org/2000/svg" xmlns:xlink="http://www.w3.org/1999/xlink">
<g id="graph0" class="graph" transform="scale(1 1) rotate(0) translate(4 318)">
<title>BrowserModel.hasNext</title>
<polygon fill="white" stroke="none" points="-4,4 -4,-318 1412,-318 1412,4 -4,4"/>
<!-- Node1 -->
<g id="node1" class="node"><title>Node1</title>
<polygon fill="#bfbfbf" stroke="black" points="0,-104.5 0,-123.5 126,-123.5 126,-104.5 0,-104.5"/>
<text text-anchor="middle" x="63" y="-111.5" font-family="Helvetica,sans-Serif" font-size="10.00">BrowserModel.hasNext</text>
</g>
<!-- Node2 -->
<g id="node2" class="node"><title>Node2</title>
<g id="a_node2"><a xlink:href="../../da/dc7/class_browser_view.html#a075eb442cd14dfdf391d474164cb5587" target="_top" xlink:title="BrowserView.enableButtons">
<polygon fill="white" stroke="black" points="162.5,-47.5 162.5,-66.5 311.5,-66.5 311.5,-47.5 162.5,-47.5"/>
<text text-anchor="middle" x="237" y="-54.5" font-family="Helvetica,sans-Serif" font-size="10.00">BrowserView.enableButtons</text>
</a>
</g>
</g>
<!-- Node1&#45;&gt;Node2 -->
<g id="edge1" class="edge"><title>Node1&#45;&gt;Node2</title>
<path fill="none" stroke="midnightblue" d="M102.6,-101.208C134.278,-90.7102 178.434,-76.0772 207.117,-66.5716"/>
<polygon fill="midnightblue" stroke="midnightblue" points="101.18,-97.9914 92.7889,-104.459 103.382,-104.636 101.18,-97.9914"/>
</g>
<!-- Node16 -->
<g id="node16" class="node"><title>Node16</title>
<g id="a_node16"><a xlink:href="../../d4/d0e/class_browser_model.html#a16df284a0004c149f459b18876491b13" target="_top" xlink:title="BrowserModel.go">
<polygon fill="white" stroke="black" points="188,-152.5 188,-171.5 286,-171.5 286,-152.5 188,-152.5"/>
<text text-anchor="middle" x="237" y="-159.5" font-family="Helvetica,sans-Serif" font-size="10.00">BrowserModel.go</text>
</a>
</g>
</g>
<!-- Node1&#45;&gt;Node16 -->
<g id="edge20" class="edge"><title>Node1&#45;&gt;Node16</title>
<path fill="none" stroke="midnightblue" d="M108.298,-126.362C137.376,-134.477 174.847,-144.934 201.666,-152.418"/>
<polygon fill="midnightblue" stroke="midnightblue" points="108.966,-122.915 98.3934,-123.598 107.085,-129.657 108.966,-122.915"/>
</g>
<!-- Node17 -->
<g id="node17" class="node"><title>Node17</title>
<g id="a_node17"><a xlink:href="../../d4/d0e/class_browser_model.html#af6ac28da81c98130778254d039fe3cbb" target="_top" xlink:title="BrowserModel.next">
<polygon fill="white" stroke="black" points="351.5,-104.5 351.5,-123.5 458.5,-123.5 458.5,-104.5 351.5,-104.5"/>
<text text-anchor="middle" x="405" y="-111.5" font-family="Helvetica,sans-Serif" font-size="10.00">BrowserModel.next</text>
</a>
</g>
</g>
<!-- Node1&#45;&gt;Node17 -->
<g id="edge22" class="edge"><title>Node1&#45;&gt;Node17</title>
<path fill="none" stroke="midnightblue" d="M136.451,-114C200.891,-114 293.595,-114 351.239,-114"/>
<polygon fill="midnightblue" stroke="midnightblue" points="136.361,-110.5 126.361,-114 136.361,-117.5 136.361,-110.5"/>
</g>
<!-- Node3 -->
<g id="node3" class="node"><title>Node3</title>
<g id="a_node3"><a xlink:href="../../da/dc7/class_browser_view.html#a5e87a7d2011460380dcf165db009461b" target="_top" xlink:title="BrowserView.BrowserView">
<polygon fill="white" stroke="black" points="1268.5,-17.5 1268.5,-36.5 1407.5,-36.5 1407.5,-17.5 1268.5,-17.5"/>
<text text-anchor="middle" x="1338" y="-24.5" font-family="Helvetica,sans-Serif" font-size="10.00">BrowserView.BrowserView</text>
</a>
</g>
</g>
<!-- Node2&#45;&gt;Node3 -->
<g id="edge2" class="edge"><title>Node2&#45;&gt;Node3</title>
<path fill="none" stroke="midnightblue" d="M279.77,-44.774C340.778,-28.0257 458.091,-0 560,-0 560,-0 560,-0 959,-0 1067.39,-0 1192.83,-11.1824 1268.47,-19.1542"/>
<polygon fill="midnightblue" stroke="midnightblue" points="278.813,-41.4072 270.117,-47.4595 280.689,-48.1511 278.813,-41.4072"/>
</g>
<!-- Node4 -->
<g id="node4" class="node"><title>Node4</title>
<g id="a_node4"><a xlink:href="../../da/dc7/class_browser_view.html#a34f643e815549bd4340fb49f0865c030" target="_top" xlink:title="BrowserView.update">
<polygon fill="white" stroke="black" points="348.5,-66.5 348.5,-85.5 461.5,-85.5 461.5,-66.5 348.5,-66.5"/>
<text text-anchor="middle" x="405" y="-73.5" font-family="Helvetica,sans-Serif" font-size="10.00">BrowserView.update</text>
</a>
</g>
</g>
<!-- Node2&#45;&gt;Node4 -->
<g id="edge3" class="edge"><title>Node2&#45;&gt;Node4</title>
<path fill="none" stroke="midnightblue" d="M321.902,-66.6033C330.885,-67.6314 339.854,-68.6579 348.387,-69.6347"/>
<polygon fill="midnightblue" stroke="midnightblue" points="322.11,-63.1043 311.777,-65.4443 321.314,-70.0589 322.11,-63.1043"/>
</g>
<!-- Node10 -->
<g id="node10" class="node"><title>Node10</title>
<g id="a_node10"><a xlink:href="../../da/dc7/class_browser_view.html#a5da1de68c05af5b4999d5169ea8a3cb1" target="_top" xlink:title="BrowserView.makePreferences\lPanel">
<polygon fill="white" stroke="black" points="876.5,-39 876.5,-69 1039.5,-69 1039.5,-39 876.5,-39"/>
<text text-anchor="start" x="884.5" y="-57" font-family="Helvetica,sans-Serif" font-size="10.00">BrowserView.makePreferences</text>
<text text-anchor="middle" x="958" y="-46" font-family="Helvetica,sans-Serif" font-size="10.00">Panel</text>
</a>
</g>
</g>
<!-- Node2&#45;&gt;Node10 -->
<g id="edge19" class="edge"><title>Node2&#45;&gt;Node10</title>
<path fill="none" stroke="midnightblue" d="M321.771,-56.6505C461.212,-56.0687 739.139,-54.909 876.429,-54.3362"/>
<polygon fill="midnightblue" stroke="midnightblue" points="321.552,-53.1513 311.567,-56.693 321.581,-60.1512 321.552,-53.1513"/>
</g>
<!-- Node5 -->
<g id="node5" class="node"><title>Node5</title>
<g id="a_node5"><a xlink:href="../../da/dc7/class_browser_view.html#ac654bf4a0eb91d6a9b1cf013e52fc3e5" target="_top" xlink:title="BrowserView.showPage">
<polygon fill="white" stroke="black" points="498,-180.5 498,-199.5 624,-199.5 624,-180.5 498,-180.5"/>
<text text-anchor="middle" x="561" y="-187.5" font-family="Helvetica,sans-Serif" font-size="10.00">BrowserView.showPage</text>
</a>
</g>
</g>
<!-- Node4&#45;&gt;Node5 -->
<g id="edge4" class="edge"><title>Node4&#45;&gt;Node5</title>
<path fill="none" stroke="midnightblue" d="M452.058,-89.5442C455.52,-91.185 458.877,-92.9994 462,-95 481.589,-107.55 481.427,-116.673 498,-133 515.291,-150.034 536.227,-168.944 548.81,-180.134"/>
<polygon fill="midnightblue" stroke="midnightblue" points="453.308,-86.2727 442.735,-85.5975 450.579,-92.7189 453.308,-86.2727"/>
</g>
<!-- Node14 -->
<g id="node14" class="node"><title>Node14</title>
<g id="a_node14"><a xlink:href="../../da/dc7/class_browser_view.html#acd8bc4226c2213dc9ce03cb6e8b4d24c" target="_top" xlink:title="BrowserView.next">
<polygon fill="white" stroke="black" points="511,-104.5 511,-123.5 611,-123.5 611,-104.5 511,-104.5"/>
<text text-anchor="middle" x="561" y="-111.5" font-family="Helvetica,sans-Serif" font-size="10.00">BrowserView.next</text>
</a>
</g>
</g>
<!-- Node4&#45;&gt;Node14 -->
<g id="edge15" class="edge"><title>Node4&#45;&gt;Node14</title>
<path fill="none" stroke="midnightblue" d="M454.794,-88.04C476.308,-93.3488 501.232,-99.4988 521.419,-104.48"/>
<polygon fill="midnightblue" stroke="midnightblue" points="455.408,-84.5867 444.861,-85.589 453.731,-91.3828 455.408,-84.5867"/>
</g>
<!-- Node15 -->
<g id="node15" class="node"><title>Node15</title>
<g id="a_node15"><a xlink:href="../../da/dc7/class_browser_view.html#a6936eb74671b8632e4e361fa00fc74df" target="_top" xlink:title="BrowserView.back">
<polygon fill="white" stroke="black" points="510.5,-66.5 510.5,-85.5 611.5,-85.5 611.5,-66.5 510.5,-66.5"/>
<text text-anchor="middle" x="561" y="-73.5" font-family="Helvetica,sans-Serif" font-size="10.00">BrowserView.back</text>
</a>
</g>
</g>
<!-- Node4&#45;&gt;Node15 -->
<g id="edge17" class="edge"><title>Node4&#45;&gt;Node15</title>
<path fill="none" stroke="midnightblue" d="M471.833,-76C484.745,-76 498.085,-76 510.359,-76"/>
<polygon fill="midnightblue" stroke="midnightblue" points="471.598,-72.5001 461.598,-76 471.597,-79.5001 471.598,-72.5001"/>
</g>
<!-- Node6 -->
<g id="node6" class="node"><title>Node6</title>
<g id="a_node6"><a xlink:href="../../da/dc7/class_browser_view.html#a27f780fabcdd2064805f4434fea1a495" target="_top" xlink:title="BrowserView.home">
<polygon fill="white" stroke="black" points="696.5,-294.5 696.5,-313.5 803.5,-313.5 803.5,-294.5 696.5,-294.5"/>
<text text-anchor="middle" x="750" y="-301.5" font-family="Helvetica,sans-Serif" font-size="10.00">BrowserView.home</text>
</a>
</g>
</g>
<!-- Node5&#45;&gt;Node6 -->
<g id="edge5" class="edge"><title>Node5&#45;&gt;Node6</title>
<path fill="none" stroke="midnightblue" d="M575.036,-207.675C592.064,-229.414 623.985,-265.786 660,-285 671.152,-290.95 684.025,-295.036 696.455,-297.843"/>
<polygon fill="midnightblue" stroke="midnightblue" points="577.725,-205.43 568.874,-199.607 572.162,-209.678 577.725,-205.43"/>
</g>
<!-- Node9 -->
<g id="node9" class="node"><title>Node9</title>
<g id="a_node9"><a xlink:href="../../da/dc7/class_browser_view.html#a5eb25d6d929e3bf06fbc98aad4dfe990" target="_top" xlink:title="BrowserView.showFavorite">
<polygon fill="white" stroke="black" points="680,-142.5 680,-161.5 820,-161.5 820,-142.5 680,-142.5"/>
<text text-anchor="middle" x="750" y="-149.5" font-family="Helvetica,sans-Serif" font-size="10.00">BrowserView.showFavorite</text>
</a>
</g>
</g>
<!-- Node5&#45;&gt;Node9 -->
<g id="edge9" class="edge"><title>Node5&#45;&gt;Node9</title>
<path fill="none" stroke="midnightblue" d="M619.131,-178.39C645.727,-172.986 676.973,-166.636 702.151,-161.52"/>
<polygon fill="midnightblue" stroke="midnightblue" points="618.291,-174.99 609.188,-180.411 619.685,-181.849 618.291,-174.99"/>
</g>
<!-- Node11 -->
<g id="node11" class="node"><title>Node11</title>
<g id="a_node11"><a xlink:href="../../de/dbe/class_browser_view_1_1_show_page.html#aa7fc8a1359d9b97a46932a60d385edf1" target="_top" xlink:title="BrowserView.ShowPage.handle">
<polygon fill="white" stroke="black" points="668.5,-218.5 668.5,-237.5 831.5,-237.5 831.5,-218.5 668.5,-218.5"/>
<text text-anchor="middle" x="750" y="-225.5" font-family="Helvetica,sans-Serif" font-size="10.00">BrowserView.ShowPage.handle</text>
</a>
</g>
</g>
<!-- Node5&#45;&gt;Node11 -->
<g id="edge12" class="edge"><title>Node5&#45;&gt;Node11</title>
<path fill="none" stroke="midnightblue" d="M619.131,-201.61C645.727,-207.014 676.973,-213.364 702.151,-218.48"/>
<polygon fill="midnightblue" stroke="midnightblue" points="619.685,-198.151 609.188,-199.589 618.291,-205.01 619.685,-198.151"/>
</g>
<!-- Node12 -->
<g id="node12" class="node"><title>Node12</title>
<g id="a_node12"><a xlink:href="../../d1/db7/class_browser_view_1_1_link_listener.html#ac327c216bc964212d29c574a5c9f4c9c" target="_top" xlink:title="BrowserView.LinkListener.changed">
<polygon fill="white" stroke="black" points="660.5,-180.5 660.5,-199.5 839.5,-199.5 839.5,-180.5 660.5,-180.5"/>
<text text-anchor="middle" x="750" y="-187.5" font-family="Helvetica,sans-Serif" font-size="10.00">BrowserView.LinkListener.changed</text>
</a>
</g>
</g>
<!-- Node5&#45;&gt;Node12 -->
<g id="edge13" class="edge"><title>Node5&#45;&gt;Node12</title>
<path fill="none" stroke="midnightblue" d="M634.034,-190C642.691,-190 651.608,-190 660.466,-190"/>
<polygon fill="midnightblue" stroke="midnightblue" points="634.009,-186.5 624.009,-190 634.009,-193.5 634.009,-186.5"/>
</g>
<!-- Node13 -->
<g id="node13" class="node"><title>Node13</title>
<g id="a_node13"><a xlink:href="../../d0/d4b/class_main.html#a6d9ee2db320148cdd46abd77f0f5c388" target="_top" xlink:title="Main.start">
<polygon fill="white" stroke="black" points="717.5,-256.5 717.5,-275.5 782.5,-275.5 782.5,-256.5 717.5,-256.5"/>
<text text-anchor="middle" x="750" y="-263.5" font-family="Helvetica,sans-Serif" font-size="10.00">Main.start</text>
</a>
</g>
</g>
<!-- Node5&#45;&gt;Node13 -->
<g id="edge14" class="edge"><title>Node5&#45;&gt;Node13</title>
<path fill="none" stroke="midnightblue" d="M583.586,-205.258C602.8,-218.163 632.103,-236.226 660,-247 678.423,-254.115 700.074,-258.812 717.409,-261.756"/>
<polygon fill="midnightblue" stroke="midnightblue" points="585.492,-202.321 575.262,-199.564 581.54,-208.099 585.492,-202.321"/>
</g>
<!-- Node7 -->
<g id="node7" class="node"><title>Node7</title>
<g id="a_node7"><a xlink:href="../../da/dc7/class_browser_view.html#a857540bb858533e7a993f15225a56e79" target="_top" xlink:title="BrowserView.makeNavigation\lPanel">
<polygon fill="white" stroke="black" points="879.5,-93 879.5,-123 1036.5,-123 1036.5,-93 879.5,-93"/>
<text text-anchor="start" x="887.5" y="-111" font-family="Helvetica,sans-Serif" font-size="10.00">BrowserView.makeNavigation</text>
<text text-anchor="middle" x="958" y="-100" font-family="Helvetica,sans-Serif" font-size="10.00">Panel</text>
</a>
</g>
</g>
<!-- Node6&#45;&gt;Node7 -->
<g id="edge6" class="edge"><title>Node6&#45;&gt;Node7</title>
<path fill="none" stroke="midnightblue" d="M813.454,-297.155C822.859,-294.333 832.056,-290.418 840,-285 901.17,-243.284 938.411,-157.96 951.589,-123.223"/>
<polygon fill="midnightblue" stroke="midnightblue" points="812.416,-293.808 803.621,-299.716 814.181,-300.582 812.416,-293.808"/>
</g>
<!-- Node8 -->
<g id="node8" class="node"><title>Node8</title>
<g id="a_node8"><a xlink:href="../../da/dc7/class_browser_view.html#a7187363a54226b91dcd71bfb90e60aa4" target="_top" xlink:title="BrowserView.makeInputPanel">
<polygon fill="white" stroke="black" points="1076.5,-44.5 1076.5,-63.5 1231.5,-63.5 1231.5,-44.5 1076.5,-44.5"/>
<text text-anchor="middle" x="1154" y="-51.5" font-family="Helvetica,sans-Serif" font-size="10.00">BrowserView.makeInputPanel</text>
</a>
</g>
</g>
<!-- Node7&#45;&gt;Node8 -->
<g id="edge7" class="edge"><title>Node7&#45;&gt;Node8</title>
<path fill="none" stroke="midnightblue" d="M1022.78,-90.2482C1054.77,-81.3422 1092.25,-70.9093 1118.77,-63.5288"/>
<polygon fill="midnightblue" stroke="midnightblue" points="1021.74,-86.9045 1013.04,-92.958 1023.61,-93.6482 1021.74,-86.9045"/>
</g>
<!-- Node8&#45;&gt;Node3 -->
<g id="edge8" class="edge"><title>Node8&#45;&gt;Node3</title>
<path fill="none" stroke="midnightblue" d="M1229.09,-43.0093C1243.58,-40.8594 1258.66,-38.6215 1272.8,-36.5242"/>
<polygon fill="midnightblue" stroke="midnightblue" points="1228.54,-39.5512 1219.17,-44.4808 1229.57,-46.4754 1228.54,-39.5512"/>
</g>
<!-- Node9&#45;&gt;Node10 -->
<g id="edge10" class="edge"><title>Node9&#45;&gt;Node10</title>
<path fill="none" stroke="midnightblue" d="M775.071,-137.191C799.814,-122.335 839.74,-99.3708 876,-83 887.027,-78.0215 899.185,-73.2902 910.654,-69.148"/>
<polygon fill="midnightblue" stroke="midnightblue" points="773.113,-134.285 766.371,-142.457 776.738,-140.273 773.113,-134.285"/>
</g>
<!-- Node10&#45;&gt;Node8 -->
<g id="edge11" class="edge"><title>Node10&#45;&gt;Node8</title>
<path fill="none" stroke="midnightblue" d="M1049.64,-54C1058.59,-54 1067.61,-54 1076.4,-54"/>
<polygon fill="midnightblue" stroke="midnightblue" points="1049.59,-50.5001 1039.59,-54 1049.59,-57.5001 1049.59,-50.5001"/>
</g>
<!-- Node14&#45;&gt;Node7 -->
<g id="edge16" class="edge"><title>Node14&#45;&gt;Node7</title>
<path fill="none" stroke="midnightblue" d="M621.449,-113.097C690.179,-112.053 803.532,-110.331 879.217,-109.182"/>
<polygon fill="midnightblue" stroke="midnightblue" points="621.174,-109.601 611.228,-113.252 621.28,-116.6 621.174,-109.601"/>
</g>
<!-- Node15&#45;&gt;Node7 -->
<g id="edge18" class="edge"><title>Node15&#45;&gt;Node7</title>
<path fill="none" stroke="midnightblue" d="M621.864,-80.8498C690.687,-86.4253 803.856,-95.5934 879.389,-101.713"/>
<polygon fill="midnightblue" stroke="midnightblue" points="621.877,-77.3394 611.627,-80.0204 621.312,-84.3166 621.877,-77.3394"/>
</g>
<!-- Node16&#45;&gt;Node5 -->
<g id="edge21" class="edge"><title>Node16&#45;&gt;Node5</title>
<path fill="none" stroke="midnightblue" d="M296.49,-167.086C353.463,-172.04 439.756,-179.544 497.922,-184.602"/>
<polygon fill="midnightblue" stroke="midnightblue" points="296.472,-163.571 286.207,-166.192 295.866,-170.545 296.472,-163.571"/>
</g>
<!-- Node17&#45;&gt;Node14 -->
<g id="edge23" class="edge"><title>Node17&#45;&gt;Node14</title>
<path fill="none" stroke="midnightblue" d="M468.645,-114C482.683,-114 497.381,-114 510.782,-114"/>
<polygon fill="midnightblue" stroke="midnightblue" points="468.567,-110.5 458.567,-114 468.567,-117.5 468.567,-110.5"/>
</g>
</g>
</svg>
