<?xml version="1.0" encoding="UTF-8" standalone="no"?>
<!DOCTYPE svg PUBLIC "-//W3C//DTD SVG 1.1//EN"
 "http://www.w3.org/Graphics/SVG/1.1/DTD/svg11.dtd">
<!-- Generated by graphviz version 2.36.0 (20140111.2315)
 -->
<!-- Title: BrowserModel.go Pages: 1 -->
<svg width="1052pt" height="193pt"
 viewBox="0.00 0.00 1052.00 193.00" xmlns="http://www.w3.org/2000/svg" xmlns:xlink="http://www.w3.org/1999/xlink">
<g id="graph0" class="graph" transform="scale(1 1) rotate(0) translate(4 189)">
<title>BrowserModel.go</title>
<polygon fill="white" stroke="none" points="-4,4 -4,-189 1048,-189 1048,4 -4,4"/>
<!-- Node1 -->
<g id="node1" class="node"><title>Node1</title>
<polygon fill="#bfbfbf" stroke="black" points="0,-76.5 0,-95.5 98,-95.5 98,-76.5 0,-76.5"/>
<text text-anchor="middle" x="49" y="-83.5" font-family="Helvetica,sans-Serif" font-size="10.00">BrowserModel.go</text>
</g>
<!-- Node2 -->
<g id="node2" class="node"><title>Node2</title>
<g id="a_node2"><a xlink:href="../../da/dc7/class_browser_view.html#ac654bf4a0eb91d6a9b1cf013e52fc3e5" target="_top" xlink:title="BrowserView.showPage">
<polygon fill="white" stroke="black" points="134,-76.5 134,-95.5 260,-95.5 260,-76.5 134,-76.5"/>
<text text-anchor="middle" x="197" y="-83.5" font-family="Helvetica,sans-Serif" font-size="10.00">BrowserView.showPage</text>
</a>
</g>
</g>
<!-- Node1&#45;&gt;Node2 -->
<g id="edge1" class="edge"><title>Node1&#45;&gt;Node2</title>
<path fill="none" stroke="midnightblue" d="M108.275,-86C116.663,-86 125.321,-86 133.781,-86"/>
<polygon fill="midnightblue" stroke="midnightblue" points="108.211,-82.5001 98.2105,-86 108.21,-89.5001 108.211,-82.5001"/>
</g>
<!-- Node3 -->
<g id="node3" class="node"><title>Node3</title>
<g id="a_node3"><a xlink:href="../../da/dc7/class_browser_view.html#a27f780fabcdd2064805f4434fea1a495" target="_top" xlink:title="BrowserView.home">
<polygon fill="white" stroke="black" points="332.5,-155.5 332.5,-174.5 439.5,-174.5 439.5,-155.5 332.5,-155.5"/>
<text text-anchor="middle" x="386" y="-162.5" font-family="Helvetica,sans-Serif" font-size="10.00">BrowserView.home</text>
</a>
</g>
</g>
<!-- Node2&#45;&gt;Node3 -->
<g id="edge2" class="edge"><title>Node2&#45;&gt;Node3</title>
<path fill="none" stroke="midnightblue" d="M220.003,-101.255C239.276,-114.005 268.437,-131.845 296,-143 308.541,-148.076 322.566,-152.206 335.706,-155.459"/>
<polygon fill="midnightblue" stroke="midnightblue" points="221.886,-98.304 211.635,-95.6272 217.98,-104.112 221.886,-98.304"/>
</g>
<!-- Node7 -->
<g id="node7" class="node"><title>Node7</title>
<g id="a_node7"><a xlink:href="../../da/dc7/class_browser_view.html#a5eb25d6d929e3bf06fbc98aad4dfe990" target="_top" xlink:title="BrowserView.showFavorite">
<polygon fill="white" stroke="black" points="316,-114.5 316,-133.5 456,-133.5 456,-114.5 316,-114.5"/>
<text text-anchor="middle" x="386" y="-121.5" font-family="Helvetica,sans-Serif" font-size="10.00">BrowserView.showFavorite</text>
</a>
</g>
</g>
<!-- Node2&#45;&gt;Node7 -->
<g id="edge6" class="edge"><title>Node2&#45;&gt;Node7</title>
<path fill="none" stroke="midnightblue" d="M255.131,-97.6095C281.727,-103.014 312.973,-109.364 338.151,-114.48"/>
<polygon fill="midnightblue" stroke="midnightblue" points="255.685,-94.1506 245.188,-95.589 254.291,-101.01 255.685,-94.1506"/>
</g>
<!-- Node9 -->
<g id="node9" class="node"><title>Node9</title>
<g id="a_node9"><a xlink:href="../../de/dbe/class_browser_view_1_1_show_page.html#aa7fc8a1359d9b97a46932a60d385edf1" target="_top" xlink:title="BrowserView.ShowPage.handle">
<polygon fill="white" stroke="black" points="304.5,-76.5 304.5,-95.5 467.5,-95.5 467.5,-76.5 304.5,-76.5"/>
<text text-anchor="middle" x="386" y="-83.5" font-family="Helvetica,sans-Serif" font-size="10.00">BrowserView.ShowPage.handle</text>
</a>
</g>
</g>
<!-- Node2&#45;&gt;Node9 -->
<g id="edge9" class="edge"><title>Node2&#45;&gt;Node9</title>
<path fill="none" stroke="midnightblue" d="M270.111,-86C281.263,-86 292.845,-86 304.173,-86"/>
<polygon fill="midnightblue" stroke="midnightblue" points="270.009,-82.5001 260.009,-86 270.009,-89.5001 270.009,-82.5001"/>
</g>
<!-- Node10 -->
<g id="node10" class="node"><title>Node10</title>
<g id="a_node10"><a xlink:href="../../d1/db7/class_browser_view_1_1_link_listener.html#ac327c216bc964212d29c574a5c9f4c9c" target="_top" xlink:title="BrowserView.LinkListener.changed">
<polygon fill="white" stroke="black" points="296.5,-38.5 296.5,-57.5 475.5,-57.5 475.5,-38.5 296.5,-38.5"/>
<text text-anchor="middle" x="386" y="-45.5" font-family="Helvetica,sans-Serif" font-size="10.00">BrowserView.LinkListener.changed</text>
</a>
</g>
</g>
<!-- Node2&#45;&gt;Node10 -->
<g id="edge10" class="edge"><title>Node2&#45;&gt;Node10</title>
<path fill="none" stroke="midnightblue" d="M255.131,-74.3905C281.727,-68.986 312.973,-62.6365 338.151,-57.5201"/>
<polygon fill="midnightblue" stroke="midnightblue" points="254.291,-70.9896 245.188,-76.411 255.685,-77.8494 254.291,-70.9896"/>
</g>
<!-- Node11 -->
<g id="node11" class="node"><title>Node11</title>
<g id="a_node11"><a xlink:href="../../d0/d4b/class_main.html#a6d9ee2db320148cdd46abd77f0f5c388" target="_top" xlink:title="Main.start">
<polygon fill="white" stroke="black" points="353.5,-0.5 353.5,-19.5 418.5,-19.5 418.5,-0.5 353.5,-0.5"/>
<text text-anchor="middle" x="386" y="-7.5" font-family="Helvetica,sans-Serif" font-size="10.00">Main.start</text>
</a>
</g>
</g>
<!-- Node2&#45;&gt;Node11 -->
<g id="edge11" class="edge"><title>Node2&#45;&gt;Node11</title>
<path fill="none" stroke="midnightblue" d="M219.586,-70.7424C238.8,-57.8374 268.103,-39.7741 296,-29 314.423,-21.8847 336.074,-17.188 353.409,-14.2444"/>
<polygon fill="midnightblue" stroke="midnightblue" points="217.54,-67.9015 211.262,-76.4362 221.492,-73.6791 217.54,-67.9015"/>
</g>
<!-- Node4 -->
<g id="node4" class="node"><title>Node4</title>
<g id="a_node4"><a xlink:href="../../da/dc7/class_browser_view.html#a857540bb858533e7a993f15225a56e79" target="_top" xlink:title="BrowserView.makeNavigation\lPanel">
<polygon fill="white" stroke="black" points="515.5,-155 515.5,-185 672.5,-185 672.5,-155 515.5,-155"/>
<text text-anchor="start" x="523.5" y="-173" font-family="Helvetica,sans-Serif" font-size="10.00">BrowserView.makeNavigation</text>
<text text-anchor="middle" x="594" y="-162" font-family="Helvetica,sans-Serif" font-size="10.00">Panel</text>
</a>
</g>
</g>
<!-- Node3&#45;&gt;Node4 -->
<g id="edge3" class="edge"><title>Node3&#45;&gt;Node4</title>
<path fill="none" stroke="midnightblue" d="M449.751,-166.523C470.417,-167.025 493.65,-167.589 515.293,-168.114"/>
<polygon fill="midnightblue" stroke="midnightblue" points="449.598,-163.018 439.516,-166.275 449.428,-170.016 449.598,-163.018"/>
</g>
<!-- Node5 -->
<g id="node5" class="node"><title>Node5</title>
<g id="a_node5"><a xlink:href="../../da/dc7/class_browser_view.html#a7187363a54226b91dcd71bfb90e60aa4" target="_top" xlink:title="BrowserView.makeInputPanel">
<polygon fill="white" stroke="black" points="712.5,-135.5 712.5,-154.5 867.5,-154.5 867.5,-135.5 712.5,-135.5"/>
<text text-anchor="middle" x="790" y="-142.5" font-family="Helvetica,sans-Serif" font-size="10.00">BrowserView.makeInputPanel</text>
</a>
</g>
</g>
<!-- Node4&#45;&gt;Node5 -->
<g id="edge4" class="edge"><title>Node4&#45;&gt;Node5</title>
<path fill="none" stroke="midnightblue" d="M682.458,-158.73C693.356,-157.325 704.417,-155.9 715.082,-154.525"/>
<polygon fill="midnightblue" stroke="midnightblue" points="681.981,-155.262 672.51,-160.012 682.876,-162.205 681.981,-155.262"/>
</g>
<!-- Node6 -->
<g id="node6" class="node"><title>Node6</title>
<g id="a_node6"><a xlink:href="../../da/dc7/class_browser_view.html#a5e87a7d2011460380dcf165db009461b" target="_top" xlink:title="BrowserView.BrowserView">
<polygon fill="white" stroke="black" points="904.5,-135.5 904.5,-154.5 1043.5,-154.5 1043.5,-135.5 904.5,-135.5"/>
<text text-anchor="middle" x="974" y="-142.5" font-family="Helvetica,sans-Serif" font-size="10.00">BrowserView.BrowserView</text>
</a>
</g>
</g>
<!-- Node5&#45;&gt;Node6 -->
<g id="edge5" class="edge"><title>Node5&#45;&gt;Node6</title>
<path fill="none" stroke="midnightblue" d="M877.678,-145C886.592,-145 895.56,-145 904.241,-145"/>
<polygon fill="midnightblue" stroke="midnightblue" points="877.657,-141.5 867.657,-145 877.657,-148.5 877.657,-141.5"/>
</g>
<!-- Node8 -->
<g id="node8" class="node"><title>Node8</title>
<g id="a_node8"><a xlink:href="../../da/dc7/class_browser_view.html#a5da1de68c05af5b4999d5169ea8a3cb1" target="_top" xlink:title="BrowserView.makePreferences\lPanel">
<polygon fill="white" stroke="black" points="512.5,-106 512.5,-136 675.5,-136 675.5,-106 512.5,-106"/>
<text text-anchor="start" x="520.5" y="-124" font-family="Helvetica,sans-Serif" font-size="10.00">BrowserView.makePreferences</text>
<text text-anchor="middle" x="594" y="-113" font-family="Helvetica,sans-Serif" font-size="10.00">Panel</text>
</a>
</g>
</g>
<!-- Node7&#45;&gt;Node8 -->
<g id="edge7" class="edge"><title>Node7&#45;&gt;Node8</title>
<path fill="none" stroke="midnightblue" d="M466.44,-122.843C481.465,-122.624 497.196,-122.395 512.26,-122.176"/>
<polygon fill="midnightblue" stroke="midnightblue" points="466.116,-119.347 456.168,-122.993 466.218,-126.347 466.116,-119.347"/>
</g>
<!-- Node8&#45;&gt;Node5 -->
<g id="edge8" class="edge"><title>Node8&#45;&gt;Node5</title>
<path fill="none" stroke="midnightblue" d="M685.643,-132.214C694.591,-133.32 703.611,-134.436 712.397,-135.523"/>
<polygon fill="midnightblue" stroke="midnightblue" points="685.942,-128.724 675.588,-130.97 685.083,-135.671 685.942,-128.724"/>
</g>
</g>
</svg>
