<?xml version="1.0" encoding="UTF-8" standalone="no"?>
<!DOCTYPE svg PUBLIC "-//W3C//DTD SVG 1.1//EN"
 "http://www.w3.org/Graphics/SVG/1.1/DTD/svg11.dtd">
<!-- Generated by graphviz version 2.36.0 (20140111.2315)
 -->
<!-- Title: BrowserModel.addFavorite Pages: 1 -->
<svg width="888pt" height="38pt"
 viewBox="0.00 0.00 888.00 38.00" xmlns="http://www.w3.org/2000/svg" xmlns:xlink="http://www.w3.org/1999/xlink">
<g id="graph0" class="graph" transform="scale(1 1) rotate(0) translate(4 34)">
<title>BrowserModel.addFavorite</title>
<polygon fill="white" stroke="none" points="-4,4 -4,-34 884,-34 884,4 -4,4"/>
<!-- Node1 -->
<g id="node1" class="node"><title>Node1</title>
<polygon fill="#bfbfbf" stroke="black" points="0,-5.5 0,-24.5 142,-24.5 142,-5.5 0,-5.5"/>
<text text-anchor="middle" x="71" y="-12.5" font-family="Helvetica,sans-Serif" font-size="10.00">BrowserModel.addFavorite</text>
</g>
<!-- Node2 -->
<g id="node2" class="node"><title>Node2</title>
<g id="a_node2"><a xlink:href="../../da/dc7/class_browser_view.html#ae2f24f59bc3b1c41a3b85698ed3c37e3" target="_top" xlink:title="BrowserView.addFavorite">
<polygon fill="white" stroke="black" points="178,-5.5 178,-24.5 312,-24.5 312,-5.5 178,-5.5"/>
<text text-anchor="middle" x="245" y="-12.5" font-family="Helvetica,sans-Serif" font-size="10.00">BrowserView.addFavorite</text>
</a>
</g>
</g>
<!-- Node1&#45;&gt;Node2 -->
<g id="edge1" class="edge"><title>Node1&#45;&gt;Node2</title>
<path fill="none" stroke="midnightblue" d="M152.67,-15C161.09,-15 169.578,-15 177.81,-15"/>
<polygon fill="midnightblue" stroke="midnightblue" points="152.455,-11.5001 142.455,-15 152.455,-18.5001 152.455,-11.5001"/>
</g>
<!-- Node3 -->
<g id="node3" class="node"><title>Node3</title>
<g id="a_node3"><a xlink:href="../../da/dc7/class_browser_view.html#a5da1de68c05af5b4999d5169ea8a3cb1" target="_top" xlink:title="BrowserView.makePreferences\lPanel">
<polygon fill="white" stroke="black" points="348.5,-0 348.5,-30 511.5,-30 511.5,-0 348.5,-0"/>
<text text-anchor="start" x="356.5" y="-18" font-family="Helvetica,sans-Serif" font-size="10.00">BrowserView.makePreferences</text>
<text text-anchor="middle" x="430" y="-7" font-family="Helvetica,sans-Serif" font-size="10.00">Panel</text>
</a>
</g>
</g>
<!-- Node2&#45;&gt;Node3 -->
<g id="edge2" class="edge"><title>Node2&#45;&gt;Node3</title>
<path fill="none" stroke="midnightblue" d="M322.127,-15C330.786,-15 339.635,-15 348.351,-15"/>
<polygon fill="midnightblue" stroke="midnightblue" points="322.067,-11.5001 312.067,-15 322.067,-18.5001 322.067,-11.5001"/>
</g>
<!-- Node4 -->
<g id="node4" class="node"><title>Node4</title>
<g id="a_node4"><a xlink:href="../../da/dc7/class_browser_view.html#a7187363a54226b91dcd71bfb90e60aa4" target="_top" xlink:title="BrowserView.makeInputPanel">
<polygon fill="white" stroke="black" points="548.5,-5.5 548.5,-24.5 703.5,-24.5 703.5,-5.5 548.5,-5.5"/>
<text text-anchor="middle" x="626" y="-12.5" font-family="Helvetica,sans-Serif" font-size="10.00">BrowserView.makeInputPanel</text>
</a>
</g>
</g>
<!-- Node3&#45;&gt;Node4 -->
<g id="edge3" class="edge"><title>Node3&#45;&gt;Node4</title>
<path fill="none" stroke="midnightblue" d="M521.643,-15C530.591,-15 539.611,-15 548.397,-15"/>
<polygon fill="midnightblue" stroke="midnightblue" points="521.588,-11.5001 511.588,-15 521.588,-18.5001 521.588,-11.5001"/>
</g>
<!-- Node5 -->
<g id="node5" class="node"><title>Node5</title>
<g id="a_node5"><a xlink:href="../../da/dc7/class_browser_view.html#a5e87a7d2011460380dcf165db009461b" target="_top" xlink:title="BrowserView.BrowserView">
<polygon fill="white" stroke="black" points="740.5,-5.5 740.5,-24.5 879.5,-24.5 879.5,-5.5 740.5,-5.5"/>
<text text-anchor="middle" x="810" y="-12.5" font-family="Helvetica,sans-Serif" font-size="10.00">BrowserView.BrowserView</text>
</a>
</g>
</g>
<!-- Node4&#45;&gt;Node5 -->
<g id="edge4" class="edge"><title>Node4&#45;&gt;Node5</title>
<path fill="none" stroke="midnightblue" d="M713.678,-15C722.592,-15 731.56,-15 740.241,-15"/>
<polygon fill="midnightblue" stroke="midnightblue" points="713.657,-11.5001 703.657,-15 713.657,-18.5001 713.657,-11.5001"/>
</g>
</g>
</svg>
