<?xml version="1.0" encoding="UTF-8" standalone="no"?>
<!DOCTYPE svg PUBLIC "-//W3C//DTD SVG 1.1//EN"
 "http://www.w3.org/Graphics/SVG/1.1/DTD/svg11.dtd">
<!-- Generated by graphviz version 2.36.0 (20140111.2315)
 -->
<!-- Title: BrowserView.LinkListener.changed Pages: 1 -->
<svg width="886pt" height="142pt"
 viewBox="0.00 0.00 886.00 142.00" xmlns="http://www.w3.org/2000/svg" xmlns:xlink="http://www.w3.org/1999/xlink">
<g id="graph0" class="graph" transform="scale(1 1) rotate(0) translate(4 138)">
<title>BrowserView.LinkListener.changed</title>
<polygon fill="white" stroke="none" points="-4,4 -4,-138 882,-138 882,4 -4,4"/>
<!-- Node1 -->
<g id="node1" class="node"><title>Node1</title>
<polygon fill="#bfbfbf" stroke="black" points="0.5,-57.5 0.5,-76.5 179.5,-76.5 179.5,-57.5 0.5,-57.5"/>
<text text-anchor="middle" x="90" y="-64.5" font-family="Helvetica,sans-Serif" font-size="10.00">BrowserView.LinkListener.changed</text>
</g>
<!-- Node2 -->
<g id="node2" class="node"><title>Node2</title>
<g id="a_node2"><a xlink:href="../../da/dc7/class_browser_view.html#ac654bf4a0eb91d6a9b1cf013e52fc3e5" target="_top" xlink:title="BrowserView.showPage">
<polygon fill="white" stroke="black" points="220,-76.5 220,-95.5 346,-95.5 346,-76.5 220,-76.5"/>
<text text-anchor="middle" x="283" y="-83.5" font-family="Helvetica,sans-Serif" font-size="10.00">BrowserView.showPage</text>
</a>
</g>
</g>
<!-- Node1&#45;&gt;Node2 -->
<g id="edge1" class="edge"><title>Node1&#45;&gt;Node2</title>
<path fill="none" stroke="midnightblue" d="M179.511,-75.8048C189.65,-76.8134 199.895,-77.8325 209.786,-78.8164"/>
<polygon fill="midnightblue" stroke="midnightblue" points="209.647,-82.3198 219.944,-79.8269 210.34,-75.3542 209.647,-82.3198"/>
</g>
<!-- Node11 -->
<g id="node11" class="node"><title>Node11</title>
<g id="a_node11"><a xlink:href="../../da/dc7/class_browser_view.html#a74fd342297d9d62d71299d1fdb9c35a6" target="_top" xlink:title="BrowserView.showStatus">
<polygon fill="white" stroke="black" points="216,-38.5 216,-57.5 350,-57.5 350,-38.5 216,-38.5"/>
<text text-anchor="middle" x="283" y="-45.5" font-family="Helvetica,sans-Serif" font-size="10.00">BrowserView.showStatus</text>
</a>
</g>
</g>
<!-- Node1&#45;&gt;Node11 -->
<g id="edge11" class="edge"><title>Node1&#45;&gt;Node11</title>
<path fill="none" stroke="midnightblue" d="M179.511,-58.1952C188.278,-57.3231 197.124,-56.4431 205.752,-55.5849"/>
<polygon fill="midnightblue" stroke="midnightblue" points="206.157,-59.062 215.761,-54.5892 205.464,-52.0964 206.157,-59.062"/>
</g>
<!-- Node3 -->
<g id="node3" class="node"><title>Node3</title>
<g id="a_node3"><a xlink:href="../../d4/d0e/class_browser_model.html#a16df284a0004c149f459b18876491b13" target="_top" xlink:title="BrowserModel.go">
<polygon fill="white" stroke="black" points="400,-114.5 400,-133.5 498,-133.5 498,-114.5 400,-114.5"/>
<text text-anchor="middle" x="449" y="-121.5" font-family="Helvetica,sans-Serif" font-size="10.00">BrowserModel.go</text>
</a>
</g>
</g>
<!-- Node2&#45;&gt;Node3 -->
<g id="edge2" class="edge"><title>Node2&#45;&gt;Node3</title>
<path fill="none" stroke="midnightblue" d="M325.384,-95.589C347.123,-100.626 373.957,-106.844 396.975,-112.177"/>
<polygon fill="midnightblue" stroke="midnightblue" points="396.381,-115.632 406.913,-114.48 397.962,-108.813 396.381,-115.632"/>
</g>
<!-- Node6 -->
<g id="node6" class="node"><title>Node6</title>
<g id="a_node6"><a xlink:href="../../da/dc7/class_browser_view.html#a50820a4578ff7cacb849e7886aa75b13" target="_top" xlink:title="BrowserView.showError">
<polygon fill="white" stroke="black" points="386,-76.5 386,-95.5 512,-95.5 512,-76.5 386,-76.5"/>
<text text-anchor="middle" x="449" y="-83.5" font-family="Helvetica,sans-Serif" font-size="10.00">BrowserView.showError</text>
</a>
</g>
</g>
<!-- Node2&#45;&gt;Node6 -->
<g id="edge5" class="edge"><title>Node2&#45;&gt;Node6</title>
<path fill="none" stroke="midnightblue" d="M346.001,-86C355.696,-86 365.787,-86 375.688,-86"/>
<polygon fill="midnightblue" stroke="midnightblue" points="375.911,-89.5001 385.911,-86 375.911,-82.5001 375.911,-89.5001"/>
</g>
<!-- Node7 -->
<g id="node7" class="node"><title>Node7</title>
<g id="a_node7"><a xlink:href="../../da/dc7/class_browser_view.html#a34f643e815549bd4340fb49f0865c030" target="_top" xlink:title="BrowserView.update">
<polygon fill="white" stroke="black" points="392.5,-38.5 392.5,-57.5 505.5,-57.5 505.5,-38.5 392.5,-38.5"/>
<text text-anchor="middle" x="449" y="-45.5" font-family="Helvetica,sans-Serif" font-size="10.00">BrowserView.update</text>
</a>
</g>
</g>
<!-- Node2&#45;&gt;Node7 -->
<g id="edge6" class="edge"><title>Node2&#45;&gt;Node7</title>
<path fill="none" stroke="midnightblue" d="M325.384,-76.411C347.123,-71.3739 373.957,-65.1562 396.975,-59.8229"/>
<polygon fill="midnightblue" stroke="midnightblue" points="397.962,-63.1871 406.913,-57.5201 396.381,-56.3677 397.962,-63.1871"/>
</g>
<!-- Node4 -->
<g id="node4" class="node"><title>Node4</title>
<g id="a_node4"><a xlink:href="../../d4/d0e/class_browser_model.html#afd48fe0bb4e912c2281ea18754fc8fe2" target="_top" xlink:title="BrowserModel.completeURL">
<polygon fill="white" stroke="black" points="548,-114.5 548,-133.5 698,-133.5 698,-114.5 548,-114.5"/>
<text text-anchor="middle" x="623" y="-121.5" font-family="Helvetica,sans-Serif" font-size="10.00">BrowserModel.completeURL</text>
</a>
</g>
</g>
<!-- Node3&#45;&gt;Node4 -->
<g id="edge3" class="edge"><title>Node3&#45;&gt;Node4</title>
<path fill="none" stroke="midnightblue" d="M498.369,-124C510.642,-124 524.188,-124 537.68,-124"/>
<polygon fill="midnightblue" stroke="midnightblue" points="537.964,-127.5 547.964,-124 537.964,-120.5 537.964,-127.5"/>
</g>
<!-- Node5 -->
<g id="node5" class="node"><title>Node5</title>
<g id="a_node5"><a xlink:href="../../d4/d0e/class_browser_model.html#a8543f3aac30c7f3970509c138f37bfa6" target="_top" xlink:title="BrowserModel.hasNext">
<polygon fill="white" stroke="black" points="743,-76.5 743,-95.5 869,-95.5 869,-76.5 743,-76.5"/>
<text text-anchor="middle" x="806" y="-83.5" font-family="Helvetica,sans-Serif" font-size="10.00">BrowserModel.hasNext</text>
</a>
</g>
</g>
<!-- Node3&#45;&gt;Node5 -->
<g id="edge4" class="edge"><title>Node3&#45;&gt;Node5</title>
<path fill="none" stroke="midnightblue" d="M493.238,-114.479C510.235,-111.036 529.963,-107.407 548,-105 610.155,-96.7065 681.285,-91.7991 732.933,-89.056"/>
<polygon fill="midnightblue" stroke="midnightblue" points="733.188,-92.5476 742.994,-88.5359 732.827,-85.5569 733.188,-92.5476"/>
</g>
<!-- Node8 -->
<g id="node8" class="node"><title>Node8</title>
<g id="a_node8"><a xlink:href="../../da/dc7/class_browser_view.html#a075eb442cd14dfdf391d474164cb5587" target="_top" xlink:title="BrowserView.enableButtons">
<polygon fill="white" stroke="black" points="548.5,-38.5 548.5,-57.5 697.5,-57.5 697.5,-38.5 548.5,-38.5"/>
<text text-anchor="middle" x="623" y="-45.5" font-family="Helvetica,sans-Serif" font-size="10.00">BrowserView.enableButtons</text>
</a>
</g>
</g>
<!-- Node7&#45;&gt;Node8 -->
<g id="edge7" class="edge"><title>Node7&#45;&gt;Node8</title>
<path fill="none" stroke="midnightblue" d="M505.843,-48C516.207,-48 527.24,-48 538.225,-48"/>
<polygon fill="midnightblue" stroke="midnightblue" points="538.279,-51.5001 548.279,-48 538.279,-44.5001 538.279,-51.5001"/>
</g>
<!-- Node8&#45;&gt;Node5 -->
<g id="edge9" class="edge"><title>Node8&#45;&gt;Node5</title>
<path fill="none" stroke="midnightblue" d="M669.674,-57.589C693.989,-62.6939 724.08,-69.0113 749.708,-74.3918"/>
<polygon fill="midnightblue" stroke="midnightblue" points="749.149,-77.8505 759.654,-76.4799 750.587,-70.9999 749.149,-77.8505"/>
</g>
<!-- Node9 -->
<g id="node9" class="node"><title>Node9</title>
<g id="a_node9"><a xlink:href="../../d4/d0e/class_browser_model.html#aef138e6865de073292539cc36ed81d8d" target="_top" xlink:title="BrowserModel.getHome">
<polygon fill="white" stroke="black" points="740.5,-38.5 740.5,-57.5 871.5,-57.5 871.5,-38.5 740.5,-38.5"/>
<text text-anchor="middle" x="806" y="-45.5" font-family="Helvetica,sans-Serif" font-size="10.00">BrowserModel.getHome</text>
</a>
</g>
</g>
<!-- Node8&#45;&gt;Node9 -->
<g id="edge8" class="edge"><title>Node8&#45;&gt;Node9</title>
<path fill="none" stroke="midnightblue" d="M697.62,-48C708.374,-48 719.458,-48 730.236,-48"/>
<polygon fill="midnightblue" stroke="midnightblue" points="730.453,-51.5001 740.453,-48 730.453,-44.5001 730.453,-51.5001"/>
</g>
<!-- Node10 -->
<g id="node10" class="node"><title>Node10</title>
<g id="a_node10"><a xlink:href="../../d4/d0e/class_browser_model.html#a1026df05417d496ec0630e7b76d9bc5c" target="_top" xlink:title="BrowserModel.hasPrevious">
<polygon fill="white" stroke="black" points="734,-0.5 734,-19.5 878,-19.5 878,-0.5 734,-0.5"/>
<text text-anchor="middle" x="806" y="-7.5" font-family="Helvetica,sans-Serif" font-size="10.00">BrowserModel.hasPrevious</text>
</a>
</g>
</g>
<!-- Node8&#45;&gt;Node10 -->
<g id="edge10" class="edge"><title>Node8&#45;&gt;Node10</title>
<path fill="none" stroke="midnightblue" d="M669.674,-38.411C693.989,-33.3061 724.08,-26.9887 749.708,-21.6082"/>
<polygon fill="midnightblue" stroke="midnightblue" points="750.587,-25.0001 759.654,-19.5201 749.149,-18.1495 750.587,-25.0001"/>
</g>
</g>
</svg>
