<?xml version="1.0" encoding="UTF-8" standalone="no"?>
<!DOCTYPE svg PUBLIC "-//W3C//DTD SVG 1.1//EN"
 "http://www.w3.org/Graphics/SVG/1.1/DTD/svg11.dtd">
<!-- Generated by graphviz version 2.36.0 (20140111.2315)
 -->
<!-- Title: BrowserView.ShowPage.handle Pages: 1 -->
<!--zoomable 142 -->
<svg id="main" version="1.1" xmlns="http://www.w3.org/2000/svg" xmlns:xlink="http://www.w3.org/1999/xlink" xml:space="preserve" onload="init(evt)">
<style type="text/css"><![CDATA[
.edge:hover path { stroke: red; }
.edge:hover polygon { stroke: red; fill: red; }
]]></style>
<script type="text/javascript"><![CDATA[
var edges = document.getElementsByTagName('g');
if (edges && edges.length) {
  for (var i=0;i<edges.length;i++) {
    if (edges[i].id.substr(0,4)=='edge') {
      edges[i].setAttribute('class','edge');
    }
  }
}
]]></script>
        <defs>
                <circle id="rim" cx="0" cy="0" r="7"/>
                <circle id="rim2" cx="0" cy="0" r="3.5"/>
                <g id="zoomPlus">
                        <use xlink:href="#rim" fill="#404040">
                                <set attributeName="fill" to="#808080" begin="zoomplus.mouseover" end="zoomplus.mouseout"/>
                        </use>
                        <path d="M-4,0h8M0,-4v8" fill="none" stroke="white" stroke-width="1.5" pointer-events="none"/>
                </g>
                <g id="zoomMin">
                        <use xlink:href="#rim" fill="#404040">
                                <set attributeName="fill" to="#808080" begin="zoomminus.mouseover" end="zoomminus.mouseout"/>
                        </use>
                        <path d="M-4,0h8" fill="none" stroke="white" stroke-width="1.5" pointer-events="none"/>
                </g>
                <g id="dirArrow">
                        <path fill="none" stroke="white" stroke-width="1.5" d="M0,-3.0v7 M-2.5,-0.5L0,-3.0L2.5,-0.5"/>
                </g>
               <g id="resetDef">
                       <use xlink:href="#rim2" fill="#404040">
                               <set attributeName="fill" to="#808080" begin="reset.mouseover" end="reset.mouseout"/>
                       </use>
               </g>
        </defs>

<script type="text/javascript">
var viewWidth = 862;
var viewHeight = 142;
var sectionId = 'dynsection-2';
</script>
<script xlink:href="../../svgpan.js"/>
<svg id="graph" class="graph">
<g id="viewport">
<title>BrowserView.ShowPage.handle</title>
<polygon fill="white" stroke="none" points="-4,4 -4,-138 858,-138 858,4 -4,4"/>
<!-- Node1 -->
<g id="node1" class="node"><title>Node1</title>
<polygon fill="#bfbfbf" stroke="black" points="0.5,-76.5 0.5,-95.5 163.5,-95.5 163.5,-76.5 0.5,-76.5"/>
<text text-anchor="middle" x="82" y="-83.5" font-family="Helvetica,sans-Serif" font-size="10.00">BrowserView.ShowPage.handle</text>
</g>
<!-- Node2 -->
<g id="node2" class="node"><title>Node2</title>
<g id="a_node2"><a xlink:href="../../da/dc7/class_browser_view.html#ac654bf4a0eb91d6a9b1cf013e52fc3e5" target="_top" xlink:title="BrowserView.showPage">
<polygon fill="white" stroke="black" points="200,-76.5 200,-95.5 326,-95.5 326,-76.5 200,-76.5"/>
<text text-anchor="middle" x="263" y="-83.5" font-family="Helvetica,sans-Serif" font-size="10.00">BrowserView.showPage</text>
</a>
</g>
</g>
<!-- Node1&#45;&gt;Node2 -->
<g id="edge1" class="edge"><title>Node1&#45;&gt;Node2</title>
<path fill="none" stroke="midnightblue" d="M163.598,-86C172.335,-86 181.187,-86 189.815,-86"/>
<polygon fill="midnightblue" stroke="midnightblue" points="189.821,-89.5001 199.821,-86 189.821,-82.5001 189.821,-89.5001"/>
</g>
<!-- Node3 -->
<g id="node3" class="node"><title>Node3</title>
<g id="a_node3"><a xlink:href="../../d4/d0e/class_browser_model.html#a16df284a0004c149f459b18876491b13" target="_top" xlink:title="BrowserModel.go">
<polygon fill="white" stroke="black" points="376,-114.5 376,-133.5 474,-133.5 474,-114.5 376,-114.5"/>
<text text-anchor="middle" x="425" y="-121.5" font-family="Helvetica,sans-Serif" font-size="10.00">BrowserModel.go</text>
</a>
</g>
</g>
<!-- Node2&#45;&gt;Node3 -->
<g id="edge2" class="edge"><title>Node2&#45;&gt;Node3</title>
<path fill="none" stroke="midnightblue" d="M304.375,-95.589C325.488,-100.604 351.529,-106.788 373.917,-112.105"/>
<polygon fill="midnightblue" stroke="midnightblue" points="373.377,-115.574 383.916,-114.48 374.995,-108.764 373.377,-115.574"/>
</g>
<!-- Node6 -->
<g id="node6" class="node"><title>Node6</title>
<g id="a_node6"><a xlink:href="../../da/dc7/class_browser_view.html#a50820a4578ff7cacb849e7886aa75b13" target="_top" xlink:title="BrowserView.showError">
<polygon fill="white" stroke="black" points="362,-76.5 362,-95.5 488,-95.5 488,-76.5 362,-76.5"/>
<text text-anchor="middle" x="425" y="-83.5" font-family="Helvetica,sans-Serif" font-size="10.00">BrowserView.showError</text>
</a>
</g>
</g>
<!-- Node2&#45;&gt;Node6 -->
<g id="edge5" class="edge"><title>Node2&#45;&gt;Node6</title>
<path fill="none" stroke="midnightblue" d="M326.318,-86C334.615,-86 343.179,-86 351.628,-86"/>
<polygon fill="midnightblue" stroke="midnightblue" points="351.852,-89.5001 361.852,-86 351.852,-82.5001 351.852,-89.5001"/>
</g>
<!-- Node7 -->
<g id="node7" class="node"><title>Node7</title>
<g id="a_node7"><a xlink:href="../../da/dc7/class_browser_view.html#a34f643e815549bd4340fb49f0865c030" target="_top" xlink:title="BrowserView.update">
<polygon fill="white" stroke="black" points="368.5,-38.5 368.5,-57.5 481.5,-57.5 481.5,-38.5 368.5,-38.5"/>
<text text-anchor="middle" x="425" y="-45.5" font-family="Helvetica,sans-Serif" font-size="10.00">BrowserView.update</text>
</a>
</g>
</g>
<!-- Node2&#45;&gt;Node7 -->
<g id="edge6" class="edge"><title>Node2&#45;&gt;Node7</title>
<path fill="none" stroke="midnightblue" d="M304.375,-76.411C325.488,-71.3965 351.529,-65.2119 373.917,-59.8947"/>
<polygon fill="midnightblue" stroke="midnightblue" points="374.995,-63.2361 383.916,-57.5201 373.377,-56.4256 374.995,-63.2361"/>
</g>
<!-- Node4 -->
<g id="node4" class="node"><title>Node4</title>
<g id="a_node4"><a xlink:href="../../d4/d0e/class_browser_model.html#afd48fe0bb4e912c2281ea18754fc8fe2" target="_top" xlink:title="BrowserModel.completeURL">
<polygon fill="white" stroke="black" points="524,-114.5 524,-133.5 674,-133.5 674,-114.5 524,-114.5"/>
<text text-anchor="middle" x="599" y="-121.5" font-family="Helvetica,sans-Serif" font-size="10.00">BrowserModel.completeURL</text>
</a>
</g>
</g>
<!-- Node3&#45;&gt;Node4 -->
<g id="edge3" class="edge"><title>Node3&#45;&gt;Node4</title>
<path fill="none" stroke="midnightblue" d="M474.369,-124C486.642,-124 500.188,-124 513.68,-124"/>
<polygon fill="midnightblue" stroke="midnightblue" points="513.964,-127.5 523.964,-124 513.964,-120.5 513.964,-127.5"/>
</g>
<!-- Node5 -->
<g id="node5" class="node"><title>Node5</title>
<g id="a_node5"><a xlink:href="../../d4/d0e/class_browser_model.html#a8543f3aac30c7f3970509c138f37bfa6" target="_top" xlink:title="BrowserModel.hasNext">
<polygon fill="white" stroke="black" points="719,-76.5 719,-95.5 845,-95.5 845,-76.5 719,-76.5"/>
<text text-anchor="middle" x="782" y="-83.5" font-family="Helvetica,sans-Serif" font-size="10.00">BrowserModel.hasNext</text>
</a>
</g>
</g>
<!-- Node3&#45;&gt;Node5 -->
<g id="edge4" class="edge"><title>Node3&#45;&gt;Node5</title>
<path fill="none" stroke="midnightblue" d="M469.238,-114.479C486.235,-111.036 505.963,-107.407 524,-105 586.155,-96.7065 657.285,-91.7991 708.933,-89.056"/>
<polygon fill="midnightblue" stroke="midnightblue" points="709.188,-92.5476 718.994,-88.5359 708.827,-85.5569 709.188,-92.5476"/>
</g>
<!-- Node8 -->
<g id="node8" class="node"><title>Node8</title>
<g id="a_node8"><a xlink:href="../../da/dc7/class_browser_view.html#a075eb442cd14dfdf391d474164cb5587" target="_top" xlink:title="BrowserView.enableButtons">
<polygon fill="white" stroke="black" points="524.5,-38.5 524.5,-57.5 673.5,-57.5 673.5,-38.5 524.5,-38.5"/>
<text text-anchor="middle" x="599" y="-45.5" font-family="Helvetica,sans-Serif" font-size="10.00">BrowserView.enableButtons</text>
</a>
</g>
</g>
<!-- Node7&#45;&gt;Node8 -->
<g id="edge7" class="edge"><title>Node7&#45;&gt;Node8</title>
<path fill="none" stroke="midnightblue" d="M481.843,-48C492.207,-48 503.24,-48 514.225,-48"/>
<polygon fill="midnightblue" stroke="midnightblue" points="514.279,-51.5001 524.279,-48 514.279,-44.5001 514.279,-51.5001"/>
</g>
<!-- Node8&#45;&gt;Node5 -->
<g id="edge9" class="edge"><title>Node8&#45;&gt;Node5</title>
<path fill="none" stroke="midnightblue" d="M645.674,-57.589C669.989,-62.6939 700.08,-69.0113 725.708,-74.3918"/>
<polygon fill="midnightblue" stroke="midnightblue" points="725.149,-77.8505 735.654,-76.4799 726.587,-70.9999 725.149,-77.8505"/>
</g>
<!-- Node9 -->
<g id="node9" class="node"><title>Node9</title>
<g id="a_node9"><a xlink:href="../../d4/d0e/class_browser_model.html#aef138e6865de073292539cc36ed81d8d" target="_top" xlink:title="BrowserModel.getHome">
<polygon fill="white" stroke="black" points="716.5,-38.5 716.5,-57.5 847.5,-57.5 847.5,-38.5 716.5,-38.5"/>
<text text-anchor="middle" x="782" y="-45.5" font-family="Helvetica,sans-Serif" font-size="10.00">BrowserModel.getHome</text>
</a>
</g>
</g>
<!-- Node8&#45;&gt;Node9 -->
<g id="edge8" class="edge"><title>Node8&#45;&gt;Node9</title>
<path fill="none" stroke="midnightblue" d="M673.62,-48C684.374,-48 695.458,-48 706.236,-48"/>
<polygon fill="midnightblue" stroke="midnightblue" points="706.453,-51.5001 716.453,-48 706.453,-44.5001 706.453,-51.5001"/>
</g>
<!-- Node10 -->
<g id="node10" class="node"><title>Node10</title>
<g id="a_node10"><a xlink:href="../../d4/d0e/class_browser_model.html#a1026df05417d496ec0630e7b76d9bc5c" target="_top" xlink:title="BrowserModel.hasPrevious">
<polygon fill="white" stroke="black" points="710,-0.5 710,-19.5 854,-19.5 854,-0.5 710,-0.5"/>
<text text-anchor="middle" x="782" y="-7.5" font-family="Helvetica,sans-Serif" font-size="10.00">BrowserModel.hasPrevious</text>
</a>
</g>
</g>
<!-- Node8&#45;&gt;Node10 -->
<g id="edge10" class="edge"><title>Node8&#45;&gt;Node10</title>
<path fill="none" stroke="midnightblue" d="M645.674,-38.411C669.989,-33.3061 700.08,-26.9887 725.708,-21.6082"/>
<polygon fill="midnightblue" stroke="midnightblue" points="726.587,-25.0001 735.654,-19.5201 725.149,-18.1495 726.587,-25.0001"/>
</g>
</g>
</svg>
        <g id="navigator" transform="translate(0 0)" fill="#404254">
                <rect fill="#f2f5e9" fill-opacity="0.5" stroke="#606060" stroke-width=".5" x="0" y="0" width="60" height="60"/>
                <use id="zoomplus" xlink:href="#zoomPlus" x="17" y="9" onmousedown="handleZoom(evt,'in')"/>
                <use id="zoomminus" xlink:href="#zoomMin" x="42" y="9" onmousedown="handleZoom(evt,'out')"/>
                <use id="reset" xlink:href="#resetDef" x="30" y="36" onmousedown="handleReset()"/>
                <g id="arrowUp" xlink:href="#dirArrow" transform="translate(30 24)" onmousedown="handlePan(0,-1)">
                  <use xlink:href="#rim" fill="#404040">
                        <set attributeName="fill" to="#808080" begin="arrowUp.mouseover" end="arrowUp.mouseout"/>
                  </use>
                  <path fill="none" stroke="white" stroke-width="1.5" d="M0,-3.0v7 M-2.5,-0.5L0,-3.0L2.5,-0.5"/>
                </g>
                <g id="arrowRight" xlink:href="#dirArrow" transform="rotate(90) translate(36 -43)" onmousedown="handlePan(1,0)">
                  <use xlink:href="#rim" fill="#404040">
                        <set attributeName="fill" to="#808080" begin="arrowRight.mouseover" end="arrowRight.mouseout"/>
                  </use>
                  <path fill="none" stroke="white" stroke-width="1.5" d="M0,-3.0v7 M-2.5,-0.5L0,-3.0L2.5,-0.5"/>
                </g>
                <g id="arrowDown" xlink:href="#dirArrow" transform="rotate(180) translate(-30 -48)" onmousedown="handlePan(0,1)">
                  <use xlink:href="#rim" fill="#404040">
                        <set attributeName="fill" to="#808080" begin="arrowDown.mouseover" end="arrowDown.mouseout"/>
                  </use>
                  <path fill="none" stroke="white" stroke-width="1.5" d="M0,-3.0v7 M-2.5,-0.5L0,-3.0L2.5,-0.5"/>
                </g>
                <g id="arrowLeft" xlink:href="#dirArrow" transform="rotate(270) translate(-36 17)" onmousedown="handlePan(-1,0)">
                  <use xlink:href="#rim" fill="#404040">
                        <set attributeName="fill" to="#808080" begin="arrowLeft.mouseover" end="arrowLeft.mouseout"/>
                  </use>
                  <path fill="none" stroke="white" stroke-width="1.5" d="M0,-3.0v7 M-2.5,-0.5L0,-3.0L2.5,-0.5"/>
                </g>
        </g>
        <svg viewBox="0 0 15 15" width="100%" height="30px" preserveAspectRatio="xMaxYMin meet">
         <g id="arrow_out" transform="scale(0.3 0.3)">
          <a xlink:href="class_browser_view_1_1_show_page_aa7fc8a1359d9b97a46932a60d385edf1_cgraph_org.svg" target="_base">
           <rect id="button" ry="5" rx="5" y="6" x="6" height="38" width="38"
                fill="#f2f5e9" fill-opacity="0.5" stroke="#606060" stroke-width="1.0"/>
           <path id="arrow"
             d="M 11.500037,31.436501 C 11.940474,20.09759 22.043105,11.32322 32.158766,21.979434 L 37.068811,17.246167 C 37.068811,17.246167 37.088388,32 37.088388,32 L 22.160133,31.978069 C 22.160133,31.978069 26.997745,27.140456 26.997745,27.140456 C 18.528582,18.264221 13.291696,25.230495 11.500037,31.436501 z"
             style="fill:#404040;"/>
          </a>
         </g>
        </svg>
</svg>
