<?xml version="1.0" encoding="UTF-8" standalone="no"?>
<!DOCTYPE svg PUBLIC "-//W3C//DTD SVG 1.1//EN"
 "http://www.w3.org/Graphics/SVG/1.1/DTD/svg11.dtd">
<!-- Generated by graphviz version 2.36.0 (20140111.2315)
 -->
<!-- Title: BrowserView.home Pages: 1 -->
<!--zoomable 142 -->
<svg id="main" version="1.1" xmlns="http://www.w3.org/2000/svg" xmlns:xlink="http://www.w3.org/1999/xlink" xml:space="preserve" onload="init(evt)">
<style type="text/css"><![CDATA[
.edge:hover path { stroke: red; }
.edge:hover polygon { stroke: red; fill: red; }
]]></style>
<script type="text/javascript"><![CDATA[
var edges = document.getElementsByTagName('g');
if (edges && edges.length) {
  for (var i=0;i<edges.length;i++) {
    if (edges[i].id.substr(0,4)=='edge') {
      edges[i].setAttribute('class','edge');
    }
  }
}
]]></script>
        <defs>
                <circle id="rim" cx="0" cy="0" r="7"/>
                <circle id="rim2" cx="0" cy="0" r="3.5"/>
                <g id="zoomPlus">
                        <use xlink:href="#rim" fill="#404040">
                                <set attributeName="fill" to="#808080" begin="zoomplus.mouseover" end="zoomplus.mouseout"/>
                        </use>
                        <path d="M-4,0h8M0,-4v8" fill="none" stroke="white" stroke-width="1.5" pointer-events="none"/>
                </g>
                <g id="zoomMin">
                        <use xlink:href="#rim" fill="#404040">
                                <set attributeName="fill" to="#808080" begin="zoomminus.mouseover" end="zoomminus.mouseout"/>
                        </use>
                        <path d="M-4,0h8" fill="none" stroke="white" stroke-width="1.5" pointer-events="none"/>
                </g>
                <g id="dirArrow">
                        <path fill="none" stroke="white" stroke-width="1.5" d="M0,-3.0v7 M-2.5,-0.5L0,-3.0L2.5,-0.5"/>
                </g>
               <g id="resetDef">
                       <use xlink:href="#rim2" fill="#404040">
                               <set attributeName="fill" to="#808080" begin="reset.mouseover" end="reset.mouseout"/>
                       </use>
               </g>
        </defs>

<script type="text/javascript">
var viewWidth = 806;
var viewHeight = 142;
var sectionId = 'dynsection-9';
</script>
<script xlink:href="../../svgpan.js"/>
<svg id="graph" class="graph">
<g id="viewport">
<title>BrowserView.home</title>
<polygon fill="white" stroke="none" points="-4,4 -4,-138 802,-138 802,4 -4,4"/>
<!-- Node1 -->
<g id="node1" class="node"><title>Node1</title>
<polygon fill="#bfbfbf" stroke="black" points="0.5,-95.5 0.5,-114.5 107.5,-114.5 107.5,-95.5 0.5,-95.5"/>
<text text-anchor="middle" x="54" y="-102.5" font-family="Helvetica,sans-Serif" font-size="10.00">BrowserView.home</text>
</g>
<!-- Node2 -->
<g id="node2" class="node"><title>Node2</title>
<g id="a_node2"><a xlink:href="../../d4/d0e/class_browser_model.html#aef138e6865de073292539cc36ed81d8d" target="_top" xlink:title="BrowserModel.getHome">
<polygon fill="white" stroke="black" points="660.5,-114.5 660.5,-133.5 791.5,-133.5 791.5,-114.5 660.5,-114.5"/>
<text text-anchor="middle" x="726" y="-121.5" font-family="Helvetica,sans-Serif" font-size="10.00">BrowserModel.getHome</text>
</a>
</g>
</g>
<!-- Node1&#45;&gt;Node2 -->
<g id="edge1" class="edge"><title>Node1&#45;&gt;Node2</title>
<path fill="none" stroke="midnightblue" d="M107.574,-106.491C225.807,-109.844 513.004,-117.988 649.952,-121.872"/>
<polygon fill="midnightblue" stroke="midnightblue" points="650.249,-125.382 660.344,-122.166 650.447,-118.384 650.249,-125.382"/>
</g>
<!-- Node3 -->
<g id="node3" class="node"><title>Node3</title>
<g id="a_node3"><a xlink:href="../../da/dc7/class_browser_view.html#ac654bf4a0eb91d6a9b1cf013e52fc3e5" target="_top" xlink:title="BrowserView.showPage">
<polygon fill="white" stroke="black" points="144,-57.5 144,-76.5 270,-76.5 270,-57.5 144,-57.5"/>
<text text-anchor="middle" x="207" y="-64.5" font-family="Helvetica,sans-Serif" font-size="10.00">BrowserView.showPage</text>
</a>
</g>
</g>
<!-- Node1&#45;&gt;Node3 -->
<g id="edge2" class="edge"><title>Node1&#45;&gt;Node3</title>
<path fill="none" stroke="midnightblue" d="M93.1037,-95.411C112.94,-90.4191 137.384,-84.2676 158.448,-78.9666"/>
<polygon fill="midnightblue" stroke="midnightblue" points="159.327,-82.3548 168.17,-76.5201 157.618,-75.5664 159.327,-82.3548"/>
</g>
<!-- Node4 -->
<g id="node4" class="node"><title>Node4</title>
<g id="a_node4"><a xlink:href="../../da/dc7/class_browser_view.html#a34f643e815549bd4340fb49f0865c030" target="_top" xlink:title="BrowserView.update">
<polygon fill="white" stroke="black" points="312.5,-76.5 312.5,-95.5 425.5,-95.5 425.5,-76.5 312.5,-76.5"/>
<text text-anchor="middle" x="369" y="-83.5" font-family="Helvetica,sans-Serif" font-size="10.00">BrowserView.update</text>
</a>
</g>
</g>
<!-- Node3&#45;&gt;Node4 -->
<g id="edge3" class="edge"><title>Node3&#45;&gt;Node4</title>
<path fill="none" stroke="midnightblue" d="M270.318,-74.4003C280.824,-75.6479 291.759,-76.9463 302.346,-78.2036"/>
<polygon fill="midnightblue" stroke="midnightblue" points="302.023,-81.6898 312.366,-79.3935 302.849,-74.7386 302.023,-81.6898"/>
</g>
<!-- Node8 -->
<g id="node8" class="node"><title>Node8</title>
<g id="a_node8"><a xlink:href="../../d4/d0e/class_browser_model.html#a16df284a0004c149f459b18876491b13" target="_top" xlink:title="BrowserModel.go">
<polygon fill="white" stroke="black" points="320,-38.5 320,-57.5 418,-57.5 418,-38.5 320,-38.5"/>
<text text-anchor="middle" x="369" y="-45.5" font-family="Helvetica,sans-Serif" font-size="10.00">BrowserModel.go</text>
</a>
</g>
</g>
<!-- Node3&#45;&gt;Node8 -->
<g id="edge8" class="edge"><title>Node3&#45;&gt;Node8</title>
<path fill="none" stroke="midnightblue" d="M270.318,-59.5997C283.335,-58.054 297.008,-56.4302 309.866,-54.9034"/>
<polygon fill="midnightblue" stroke="midnightblue" points="310.457,-58.3579 319.974,-53.703 309.631,-51.4068 310.457,-58.3579"/>
</g>
<!-- Node10 -->
<g id="node10" class="node"><title>Node10</title>
<g id="a_node10"><a xlink:href="../../da/dc7/class_browser_view.html#a50820a4578ff7cacb849e7886aa75b13" target="_top" xlink:title="BrowserView.showError">
<polygon fill="white" stroke="black" points="306,-0.5 306,-19.5 432,-19.5 432,-0.5 306,-0.5"/>
<text text-anchor="middle" x="369" y="-7.5" font-family="Helvetica,sans-Serif" font-size="10.00">BrowserView.showError</text>
</a>
</g>
</g>
<!-- Node3&#45;&gt;Node10 -->
<g id="edge11" class="edge"><title>Node3&#45;&gt;Node10</title>
<path fill="none" stroke="midnightblue" d="M231.189,-57.4607C250.937,-49.4695 280.137,-37.9639 306,-29 312.361,-26.7954 319.133,-24.5841 325.777,-22.4895"/>
<polygon fill="midnightblue" stroke="midnightblue" points="326.842,-25.8236 335.357,-19.5184 324.769,-19.1377 326.842,-25.8236"/>
</g>
<!-- Node5 -->
<g id="node5" class="node"><title>Node5</title>
<g id="a_node5"><a xlink:href="../../da/dc7/class_browser_view.html#a075eb442cd14dfdf391d474164cb5587" target="_top" xlink:title="BrowserView.enableButtons">
<polygon fill="white" stroke="black" points="468.5,-76.5 468.5,-95.5 617.5,-95.5 617.5,-76.5 468.5,-76.5"/>
<text text-anchor="middle" x="543" y="-83.5" font-family="Helvetica,sans-Serif" font-size="10.00">BrowserView.enableButtons</text>
</a>
</g>
</g>
<!-- Node4&#45;&gt;Node5 -->
<g id="edge4" class="edge"><title>Node4&#45;&gt;Node5</title>
<path fill="none" stroke="midnightblue" d="M425.843,-86C436.207,-86 447.24,-86 458.225,-86"/>
<polygon fill="midnightblue" stroke="midnightblue" points="458.279,-89.5001 468.279,-86 458.279,-82.5001 458.279,-89.5001"/>
</g>
<!-- Node5&#45;&gt;Node2 -->
<g id="edge5" class="edge"><title>Node5&#45;&gt;Node2</title>
<path fill="none" stroke="midnightblue" d="M589.674,-95.589C613.989,-100.694 644.08,-107.011 669.708,-112.392"/>
<polygon fill="midnightblue" stroke="midnightblue" points="669.149,-115.851 679.654,-114.48 670.587,-109 669.149,-115.851"/>
</g>
<!-- Node6 -->
<g id="node6" class="node"><title>Node6</title>
<g id="a_node6"><a xlink:href="../../d4/d0e/class_browser_model.html#a8543f3aac30c7f3970509c138f37bfa6" target="_top" xlink:title="BrowserModel.hasNext">
<polygon fill="white" stroke="black" points="663,-38.5 663,-57.5 789,-57.5 789,-38.5 663,-38.5"/>
<text text-anchor="middle" x="726" y="-45.5" font-family="Helvetica,sans-Serif" font-size="10.00">BrowserModel.hasNext</text>
</a>
</g>
</g>
<!-- Node5&#45;&gt;Node6 -->
<g id="edge6" class="edge"><title>Node5&#45;&gt;Node6</title>
<path fill="none" stroke="midnightblue" d="M589.674,-76.411C613.989,-71.3061 644.08,-64.9887 669.708,-59.6082"/>
<polygon fill="midnightblue" stroke="midnightblue" points="670.587,-63.0001 679.654,-57.5201 669.149,-56.1495 670.587,-63.0001"/>
</g>
<!-- Node7 -->
<g id="node7" class="node"><title>Node7</title>
<g id="a_node7"><a xlink:href="../../d4/d0e/class_browser_model.html#a1026df05417d496ec0630e7b76d9bc5c" target="_top" xlink:title="BrowserModel.hasPrevious">
<polygon fill="white" stroke="black" points="654,-76.5 654,-95.5 798,-95.5 798,-76.5 654,-76.5"/>
<text text-anchor="middle" x="726" y="-83.5" font-family="Helvetica,sans-Serif" font-size="10.00">BrowserModel.hasPrevious</text>
</a>
</g>
</g>
<!-- Node5&#45;&gt;Node7 -->
<g id="edge7" class="edge"><title>Node5&#45;&gt;Node7</title>
<path fill="none" stroke="midnightblue" d="M617.62,-86C626.202,-86 634.994,-86 643.673,-86"/>
<polygon fill="midnightblue" stroke="midnightblue" points="643.789,-89.5001 653.789,-86 643.789,-82.5001 643.789,-89.5001"/>
</g>
<!-- Node8&#45;&gt;Node6 -->
<g id="edge10" class="edge"><title>Node8&#45;&gt;Node6</title>
<path fill="none" stroke="midnightblue" d="M418.246,-48C478.687,-48 582.799,-48 652.759,-48"/>
<polygon fill="midnightblue" stroke="midnightblue" points="652.824,-51.5001 662.824,-48 652.824,-44.5001 652.824,-51.5001"/>
</g>
<!-- Node9 -->
<g id="node9" class="node"><title>Node9</title>
<g id="a_node9"><a xlink:href="../../d4/d0e/class_browser_model.html#afd48fe0bb4e912c2281ea18754fc8fe2" target="_top" xlink:title="BrowserModel.completeURL">
<polygon fill="white" stroke="black" points="468,-0.5 468,-19.5 618,-19.5 618,-0.5 468,-0.5"/>
<text text-anchor="middle" x="543" y="-7.5" font-family="Helvetica,sans-Serif" font-size="10.00">BrowserModel.completeURL</text>
</a>
</g>
</g>
<!-- Node8&#45;&gt;Node9 -->
<g id="edge9" class="edge"><title>Node8&#45;&gt;Node9</title>
<path fill="none" stroke="midnightblue" d="M413.403,-38.411C436.407,-33.3287 464.851,-27.0446 489.134,-21.6797"/>
<polygon fill="midnightblue" stroke="midnightblue" points="489.9,-25.095 498.909,-19.5201 488.39,-18.2598 489.9,-25.095"/>
</g>
</g>
</svg>
        <g id="navigator" transform="translate(0 0)" fill="#404254">
                <rect fill="#f2f5e9" fill-opacity="0.5" stroke="#606060" stroke-width=".5" x="0" y="0" width="60" height="60"/>
                <use id="zoomplus" xlink:href="#zoomPlus" x="17" y="9" onmousedown="handleZoom(evt,'in')"/>
                <use id="zoomminus" xlink:href="#zoomMin" x="42" y="9" onmousedown="handleZoom(evt,'out')"/>
                <use id="reset" xlink:href="#resetDef" x="30" y="36" onmousedown="handleReset()"/>
                <g id="arrowUp" xlink:href="#dirArrow" transform="translate(30 24)" onmousedown="handlePan(0,-1)">
                  <use xlink:href="#rim" fill="#404040">
                        <set attributeName="fill" to="#808080" begin="arrowUp.mouseover" end="arrowUp.mouseout"/>
                  </use>
                  <path fill="none" stroke="white" stroke-width="1.5" d="M0,-3.0v7 M-2.5,-0.5L0,-3.0L2.5,-0.5"/>
                </g>
                <g id="arrowRight" xlink:href="#dirArrow" transform="rotate(90) translate(36 -43)" onmousedown="handlePan(1,0)">
                  <use xlink:href="#rim" fill="#404040">
                        <set attributeName="fill" to="#808080" begin="arrowRight.mouseover" end="arrowRight.mouseout"/>
                  </use>
                  <path fill="none" stroke="white" stroke-width="1.5" d="M0,-3.0v7 M-2.5,-0.5L0,-3.0L2.5,-0.5"/>
                </g>
                <g id="arrowDown" xlink:href="#dirArrow" transform="rotate(180) translate(-30 -48)" onmousedown="handlePan(0,1)">
                  <use xlink:href="#rim" fill="#404040">
                        <set attributeName="fill" to="#808080" begin="arrowDown.mouseover" end="arrowDown.mouseout"/>
                  </use>
                  <path fill="none" stroke="white" stroke-width="1.5" d="M0,-3.0v7 M-2.5,-0.5L0,-3.0L2.5,-0.5"/>
                </g>
                <g id="arrowLeft" xlink:href="#dirArrow" transform="rotate(270) translate(-36 17)" onmousedown="handlePan(-1,0)">
                  <use xlink:href="#rim" fill="#404040">
                        <set attributeName="fill" to="#808080" begin="arrowLeft.mouseover" end="arrowLeft.mouseout"/>
                  </use>
                  <path fill="none" stroke="white" stroke-width="1.5" d="M0,-3.0v7 M-2.5,-0.5L0,-3.0L2.5,-0.5"/>
                </g>
        </g>
        <svg viewBox="0 0 15 15" width="100%" height="30px" preserveAspectRatio="xMaxYMin meet">
         <g id="arrow_out" transform="scale(0.3 0.3)">
          <a xlink:href="class_browser_view_a27f780fabcdd2064805f4434fea1a495_cgraph_org.svg" target="_base">
           <rect id="button" ry="5" rx="5" y="6" x="6" height="38" width="38"
                fill="#f2f5e9" fill-opacity="0.5" stroke="#606060" stroke-width="1.0"/>
           <path id="arrow"
             d="M 11.500037,31.436501 C 11.940474,20.09759 22.043105,11.32322 32.158766,21.979434 L 37.068811,17.246167 C 37.068811,17.246167 37.088388,32 37.088388,32 L 22.160133,31.978069 C 22.160133,31.978069 26.997745,27.140456 26.997745,27.140456 C 18.528582,18.264221 13.291696,25.230495 11.500037,31.436501 z"
             style="fill:#404040;"/>
          </a>
         </g>
        </svg>
</svg>
