<?xml version="1.0" encoding="UTF-8" standalone="no"?>
<!DOCTYPE svg PUBLIC "-//W3C//DTD SVG 1.1//EN"
 "http://www.w3.org/Graphics/SVG/1.1/DTD/svg11.dtd">
<!-- Generated by graphviz version 2.36.0 (20140111.2315)
 -->
<!-- Title: BrowserView.back Pages: 1 -->
<svg width="626pt" height="104pt"
 viewBox="0.00 0.00 626.00 104.00" xmlns="http://www.w3.org/2000/svg" xmlns:xlink="http://www.w3.org/1999/xlink">
<g id="graph0" class="graph" transform="scale(1 1) rotate(0) translate(4 100)">
<title>BrowserView.back</title>
<polygon fill="white" stroke="none" points="-4,4 -4,-100 622,-100 622,4 -4,4"/>
<!-- Node1 -->
<g id="node1" class="node"><title>Node1</title>
<polygon fill="#bfbfbf" stroke="black" points="0.5,-57.5 0.5,-76.5 101.5,-76.5 101.5,-57.5 0.5,-57.5"/>
<text text-anchor="middle" x="51" y="-64.5" font-family="Helvetica,sans-Serif" font-size="10.00">BrowserView.back</text>
</g>
<!-- Node2 -->
<g id="node2" class="node"><title>Node2</title>
<g id="a_node2"><a xlink:href="../../d4/d0e/class_browser_model.html#a48b671d68ebdc1f64cabf275b7c4c70e" target="_top" xlink:title="BrowserModel.back">
<polygon fill="white" stroke="black" points="308.5,-76.5 308.5,-95.5 417.5,-95.5 417.5,-76.5 308.5,-76.5"/>
<text text-anchor="middle" x="363" y="-83.5" font-family="Helvetica,sans-Serif" font-size="10.00">BrowserModel.back</text>
</a>
</g>
</g>
<!-- Node1&#45;&gt;Node2 -->
<g id="edge1" class="edge"><title>Node1&#45;&gt;Node2</title>
<path fill="none" stroke="midnightblue" d="M101.807,-70.0527C155.169,-73.3232 240.025,-78.5241 298.232,-82.0916"/>
<polygon fill="midnightblue" stroke="midnightblue" points="298.22,-85.5974 308.415,-82.7158 298.648,-78.6105 298.22,-85.5974"/>
</g>
<!-- Node4 -->
<g id="node4" class="node"><title>Node4</title>
<g id="a_node4"><a xlink:href="../../da/dc7/class_browser_view.html#a34f643e815549bd4340fb49f0865c030" target="_top" xlink:title="BrowserView.update">
<polygon fill="white" stroke="black" points="138.5,-38.5 138.5,-57.5 251.5,-57.5 251.5,-38.5 138.5,-38.5"/>
<text text-anchor="middle" x="195" y="-45.5" font-family="Helvetica,sans-Serif" font-size="10.00">BrowserView.update</text>
</a>
</g>
</g>
<!-- Node1&#45;&gt;Node4 -->
<g id="edge3" class="edge"><title>Node1&#45;&gt;Node4</title>
<path fill="none" stroke="midnightblue" d="M101.665,-60.3547C110.265,-59.204 119.325,-57.9917 128.274,-56.7944"/>
<polygon fill="midnightblue" stroke="midnightblue" points="128.851,-60.2484 138.298,-55.4531 127.922,-53.3103 128.851,-60.2484"/>
</g>
<!-- Node3 -->
<g id="node3" class="node"><title>Node3</title>
<g id="a_node3"><a xlink:href="../../d4/d0e/class_browser_model.html#a1026df05417d496ec0630e7b76d9bc5c" target="_top" xlink:title="BrowserModel.hasPrevious">
<polygon fill="white" stroke="black" points="474,-76.5 474,-95.5 618,-95.5 618,-76.5 474,-76.5"/>
<text text-anchor="middle" x="546" y="-83.5" font-family="Helvetica,sans-Serif" font-size="10.00">BrowserModel.hasPrevious</text>
</a>
</g>
</g>
<!-- Node2&#45;&gt;Node3 -->
<g id="edge2" class="edge"><title>Node2&#45;&gt;Node3</title>
<path fill="none" stroke="midnightblue" d="M417.816,-86C432.262,-86 448.21,-86 463.787,-86"/>
<polygon fill="midnightblue" stroke="midnightblue" points="463.95,-89.5001 473.95,-86 463.95,-82.5001 463.95,-89.5001"/>
</g>
<!-- Node5 -->
<g id="node5" class="node"><title>Node5</title>
<g id="a_node5"><a xlink:href="../../da/dc7/class_browser_view.html#a075eb442cd14dfdf391d474164cb5587" target="_top" xlink:title="BrowserView.enableButtons">
<polygon fill="white" stroke="black" points="288.5,-38.5 288.5,-57.5 437.5,-57.5 437.5,-38.5 288.5,-38.5"/>
<text text-anchor="middle" x="363" y="-45.5" font-family="Helvetica,sans-Serif" font-size="10.00">BrowserView.enableButtons</text>
</a>
</g>
</g>
<!-- Node4&#45;&gt;Node5 -->
<g id="edge4" class="edge"><title>Node4&#45;&gt;Node5</title>
<path fill="none" stroke="midnightblue" d="M251.737,-48C260.292,-48 269.281,-48 278.281,-48"/>
<polygon fill="midnightblue" stroke="midnightblue" points="278.424,-51.5001 288.424,-48 278.424,-44.5001 278.424,-51.5001"/>
</g>
<!-- Node5&#45;&gt;Node3 -->
<g id="edge5" class="edge"><title>Node5&#45;&gt;Node3</title>
<path fill="none" stroke="midnightblue" d="M409.674,-57.589C433.989,-62.6939 464.08,-69.0113 489.708,-74.3918"/>
<polygon fill="midnightblue" stroke="midnightblue" points="489.149,-77.8505 499.654,-76.4799 490.587,-70.9999 489.149,-77.8505"/>
</g>
<!-- Node6 -->
<g id="node6" class="node"><title>Node6</title>
<g id="a_node6"><a xlink:href="../../d4/d0e/class_browser_model.html#a8543f3aac30c7f3970509c138f37bfa6" target="_top" xlink:title="BrowserModel.hasNext">
<polygon fill="white" stroke="black" points="483,-38.5 483,-57.5 609,-57.5 609,-38.5 483,-38.5"/>
<text text-anchor="middle" x="546" y="-45.5" font-family="Helvetica,sans-Serif" font-size="10.00">BrowserModel.hasNext</text>
</a>
</g>
</g>
<!-- Node5&#45;&gt;Node6 -->
<g id="edge6" class="edge"><title>Node5&#45;&gt;Node6</title>
<path fill="none" stroke="midnightblue" d="M437.62,-48C449.201,-48 461.166,-48 472.717,-48"/>
<polygon fill="midnightblue" stroke="midnightblue" points="472.742,-51.5001 482.742,-48 472.742,-44.5001 472.742,-51.5001"/>
</g>
<!-- Node7 -->
<g id="node7" class="node"><title>Node7</title>
<g id="a_node7"><a xlink:href="../../d4/d0e/class_browser_model.html#aef138e6865de073292539cc36ed81d8d" target="_top" xlink:title="BrowserModel.getHome">
<polygon fill="white" stroke="black" points="480.5,-0.5 480.5,-19.5 611.5,-19.5 611.5,-0.5 480.5,-0.5"/>
<text text-anchor="middle" x="546" y="-7.5" font-family="Helvetica,sans-Serif" font-size="10.00">BrowserModel.getHome</text>
</a>
</g>
</g>
<!-- Node5&#45;&gt;Node7 -->
<g id="edge7" class="edge"><title>Node5&#45;&gt;Node7</title>
<path fill="none" stroke="midnightblue" d="M409.674,-38.411C433.989,-33.3061 464.08,-26.9887 489.708,-21.6082"/>
<polygon fill="midnightblue" stroke="midnightblue" points="490.587,-25.0001 499.654,-19.5201 489.149,-18.1495 490.587,-25.0001"/>
</g>
</g>
</svg>
