<?xml version="1.0" encoding="UTF-8" standalone="no"?>
<!DOCTYPE svg PUBLIC "-//W3C//DTD SVG 1.1//EN"
 "http://www.w3.org/Graphics/SVG/1.1/DTD/svg11.dtd">
<!-- Generated by graphviz version 2.36.0 (20140111.2315)
 -->
<!-- Title: BrowserView.update Pages: 1 -->
<svg width="1068pt" height="256pt"
 viewBox="0.00 0.00 1068.00 256.00" xmlns="http://www.w3.org/2000/svg" xmlns:xlink="http://www.w3.org/1999/xlink">
<g id="graph0" class="graph" transform="scale(1 1) rotate(0) translate(4 252)">
<title>BrowserView.update</title>
<polygon fill="white" stroke="none" points="-4,4 -4,-252 1064,-252 1064,4 -4,4"/>
<!-- Node1 -->
<g id="node1" class="node"><title>Node1</title>
<polygon fill="#bfbfbf" stroke="black" points="0.5,-190.5 0.5,-209.5 113.5,-209.5 113.5,-190.5 0.5,-190.5"/>
<text text-anchor="middle" x="57" y="-197.5" font-family="Helvetica,sans-Serif" font-size="10.00">BrowserView.update</text>
</g>
<!-- Node2 -->
<g id="node2" class="node"><title>Node2</title>
<g id="a_node2"><a xlink:href="../../da/dc7/class_browser_view.html#a6936eb74671b8632e4e361fa00fc74df" target="_top" xlink:title="BrowserView.back">
<polygon fill="white" stroke="black" points="162.5,-228.5 162.5,-247.5 263.5,-247.5 263.5,-228.5 162.5,-228.5"/>
<text text-anchor="middle" x="213" y="-235.5" font-family="Helvetica,sans-Serif" font-size="10.00">BrowserView.back</text>
</a>
</g>
</g>
<!-- Node1&#45;&gt;Node2 -->
<g id="edge1" class="edge"><title>Node1&#45;&gt;Node2</title>
<path fill="none" stroke="midnightblue" d="M106.794,-212.04C128.308,-217.349 153.232,-223.499 173.419,-228.48"/>
<polygon fill="midnightblue" stroke="midnightblue" points="107.408,-208.587 96.8607,-209.589 105.731,-215.383 107.408,-208.587"/>
</g>
<!-- Node6 -->
<g id="node6" class="node"><title>Node6</title>
<g id="a_node6"><a xlink:href="../../da/dc7/class_browser_view.html#acd8bc4226c2213dc9ce03cb6e8b4d24c" target="_top" xlink:title="BrowserView.next">
<polygon fill="white" stroke="black" points="163,-190.5 163,-209.5 263,-209.5 263,-190.5 163,-190.5"/>
<text text-anchor="middle" x="213" y="-197.5" font-family="Helvetica,sans-Serif" font-size="10.00">BrowserView.next</text>
</a>
</g>
</g>
<!-- Node1&#45;&gt;Node6 -->
<g id="edge5" class="edge"><title>Node1&#45;&gt;Node6</title>
<path fill="none" stroke="midnightblue" d="M123.945,-200C136.999,-200 150.486,-200 162.863,-200"/>
<polygon fill="midnightblue" stroke="midnightblue" points="123.598,-196.5 113.598,-200 123.598,-203.5 123.598,-196.5"/>
</g>
<!-- Node7 -->
<g id="node7" class="node"><title>Node7</title>
<g id="a_node7"><a xlink:href="../../da/dc7/class_browser_view.html#ac654bf4a0eb91d6a9b1cf013e52fc3e5" target="_top" xlink:title="BrowserView.showPage">
<polygon fill="white" stroke="black" points="150,-95.5 150,-114.5 276,-114.5 276,-95.5 150,-95.5"/>
<text text-anchor="middle" x="213" y="-102.5" font-family="Helvetica,sans-Serif" font-size="10.00">BrowserView.showPage</text>
</a>
</g>
</g>
<!-- Node1&#45;&gt;Node7 -->
<g id="edge7" class="edge"><title>Node1&#45;&gt;Node7</title>
<path fill="none" stroke="midnightblue" d="M82.3469,-184.981C114.295,-165.273 169.451,-131.248 196.345,-114.657"/>
<polygon fill="midnightblue" stroke="midnightblue" points="80.2871,-182.139 73.6138,-190.368 83.9623,-188.097 80.2871,-182.139"/>
</g>
<!-- Node3 -->
<g id="node3" class="node"><title>Node3</title>
<g id="a_node3"><a xlink:href="../../da/dc7/class_browser_view.html#a857540bb858533e7a993f15225a56e79" target="_top" xlink:title="BrowserView.makeNavigation\lPanel">
<polygon fill="white" stroke="black" points="531.5,-159 531.5,-189 688.5,-189 688.5,-159 531.5,-159"/>
<text text-anchor="start" x="539.5" y="-177" font-family="Helvetica,sans-Serif" font-size="10.00">BrowserView.makeNavigation</text>
<text text-anchor="middle" x="610" y="-166" font-family="Helvetica,sans-Serif" font-size="10.00">Panel</text>
</a>
</g>
</g>
<!-- Node2&#45;&gt;Node3 -->
<g id="edge2" class="edge"><title>Node2&#45;&gt;Node3</title>
<path fill="none" stroke="midnightblue" d="M273.896,-232.101C330.391,-226.099 417.313,-215.733 492,-202 511.515,-198.412 532.658,-193.631 551.534,-189.037"/>
<polygon fill="midnightblue" stroke="midnightblue" points="273.291,-228.645 263.711,-233.171 274.022,-235.607 273.291,-228.645"/>
</g>
<!-- Node4 -->
<g id="node4" class="node"><title>Node4</title>
<g id="a_node4"><a xlink:href="../../da/dc7/class_browser_view.html#a7187363a54226b91dcd71bfb90e60aa4" target="_top" xlink:title="BrowserView.makeInputPanel">
<polygon fill="white" stroke="black" points="728.5,-114.5 728.5,-133.5 883.5,-133.5 883.5,-114.5 728.5,-114.5"/>
<text text-anchor="middle" x="806" y="-121.5" font-family="Helvetica,sans-Serif" font-size="10.00">BrowserView.makeInputPanel</text>
</a>
</g>
</g>
<!-- Node3&#45;&gt;Node4 -->
<g id="edge3" class="edge"><title>Node3&#45;&gt;Node4</title>
<path fill="none" stroke="midnightblue" d="M679.157,-156.434C709.005,-148.741 742.862,-140.015 767.934,-133.553"/>
<polygon fill="midnightblue" stroke="midnightblue" points="678.016,-153.113 669.206,-158.998 679.763,-159.892 678.016,-153.113"/>
</g>
<!-- Node5 -->
<g id="node5" class="node"><title>Node5</title>
<g id="a_node5"><a xlink:href="../../da/dc7/class_browser_view.html#a5e87a7d2011460380dcf165db009461b" target="_top" xlink:title="BrowserView.BrowserView">
<polygon fill="white" stroke="black" points="920.5,-114.5 920.5,-133.5 1059.5,-133.5 1059.5,-114.5 920.5,-114.5"/>
<text text-anchor="middle" x="990" y="-121.5" font-family="Helvetica,sans-Serif" font-size="10.00">BrowserView.BrowserView</text>
</a>
</g>
</g>
<!-- Node4&#45;&gt;Node5 -->
<g id="edge4" class="edge"><title>Node4&#45;&gt;Node5</title>
<path fill="none" stroke="midnightblue" d="M893.678,-124C902.592,-124 911.56,-124 920.241,-124"/>
<polygon fill="midnightblue" stroke="midnightblue" points="893.657,-120.5 883.657,-124 893.657,-127.5 893.657,-120.5"/>
</g>
<!-- Node6&#45;&gt;Node3 -->
<g id="edge6" class="edge"><title>Node6&#45;&gt;Node3</title>
<path fill="none" stroke="midnightblue" d="M273.449,-196.087C342.179,-191.563 455.532,-184.102 531.217,-179.12"/>
<polygon fill="midnightblue" stroke="midnightblue" points="272.977,-192.61 263.228,-196.76 273.437,-199.595 272.977,-192.61"/>
</g>
<!-- Node8 -->
<g id="node8" class="node"><title>Node8</title>
<g id="a_node8"><a xlink:href="../../d1/db7/class_browser_view_1_1_link_listener.html#ac327c216bc964212d29c574a5c9f4c9c" target="_top" xlink:title="BrowserView.LinkListener.changed">
<polygon fill="white" stroke="black" points="312.5,-152.5 312.5,-171.5 491.5,-171.5 491.5,-152.5 312.5,-152.5"/>
<text text-anchor="middle" x="402" y="-159.5" font-family="Helvetica,sans-Serif" font-size="10.00">BrowserView.LinkListener.changed</text>
</a>
</g>
</g>
<!-- Node7&#45;&gt;Node8 -->
<g id="edge8" class="edge"><title>Node7&#45;&gt;Node8</title>
<path fill="none" stroke="midnightblue" d="M245.205,-118.57C264.241,-126.478 289.218,-136.199 312,-143 323.96,-146.571 337.014,-149.747 349.348,-152.432"/>
<polygon fill="midnightblue" stroke="midnightblue" points="246.409,-115.28 235.835,-114.626 243.693,-121.731 246.409,-115.28"/>
</g>
<!-- Node9 -->
<g id="node9" class="node"><title>Node9</title>
<g id="a_node9"><a xlink:href="../../de/dbe/class_browser_view_1_1_show_page.html#aa7fc8a1359d9b97a46932a60d385edf1" target="_top" xlink:title="BrowserView.ShowPage.handle">
<polygon fill="white" stroke="black" points="320.5,-114.5 320.5,-133.5 483.5,-133.5 483.5,-114.5 320.5,-114.5"/>
<text text-anchor="middle" x="402" y="-121.5" font-family="Helvetica,sans-Serif" font-size="10.00">BrowserView.ShowPage.handle</text>
</a>
</g>
</g>
<!-- Node7&#45;&gt;Node9 -->
<g id="edge9" class="edge"><title>Node7&#45;&gt;Node9</title>
<path fill="none" stroke="midnightblue" d="M286.111,-112.327C297.263,-113.46 308.845,-114.637 320.173,-115.788"/>
<polygon fill="midnightblue" stroke="midnightblue" points="286.311,-108.829 276.009,-111.3 285.604,-115.793 286.311,-108.829"/>
</g>
<!-- Node10 -->
<g id="node10" class="node"><title>Node10</title>
<g id="a_node10"><a xlink:href="../../da/dc7/class_browser_view.html#a27f780fabcdd2064805f4434fea1a495" target="_top" xlink:title="BrowserView.home">
<polygon fill="white" stroke="black" points="348.5,-76.5 348.5,-95.5 455.5,-95.5 455.5,-76.5 348.5,-76.5"/>
<text text-anchor="middle" x="402" y="-83.5" font-family="Helvetica,sans-Serif" font-size="10.00">BrowserView.home</text>
</a>
</g>
</g>
<!-- Node7&#45;&gt;Node10 -->
<g id="edge10" class="edge"><title>Node7&#45;&gt;Node10</title>
<path fill="none" stroke="midnightblue" d="M286.034,-97.6811C306.737,-95.5776 328.924,-93.3232 348.231,-91.3615"/>
<polygon fill="midnightblue" stroke="midnightblue" points="285.604,-94.2067 276.009,-98.6997 286.311,-101.171 285.604,-94.2067"/>
</g>
<!-- Node11 -->
<g id="node11" class="node"><title>Node11</title>
<g id="a_node11"><a xlink:href="../../da/dc7/class_browser_view.html#a5eb25d6d929e3bf06fbc98aad4dfe990" target="_top" xlink:title="BrowserView.showFavorite">
<polygon fill="white" stroke="black" points="332,-38.5 332,-57.5 472,-57.5 472,-38.5 332,-38.5"/>
<text text-anchor="middle" x="402" y="-45.5" font-family="Helvetica,sans-Serif" font-size="10.00">BrowserView.showFavorite</text>
</a>
</g>
</g>
<!-- Node7&#45;&gt;Node11 -->
<g id="edge12" class="edge"><title>Node7&#45;&gt;Node11</title>
<path fill="none" stroke="midnightblue" d="M245.205,-91.4298C264.241,-83.5225 289.218,-73.8013 312,-67 323.96,-63.4295 337.014,-60.2532 349.348,-57.568"/>
<polygon fill="midnightblue" stroke="midnightblue" points="243.693,-88.2686 235.835,-95.3743 246.409,-94.7202 243.693,-88.2686"/>
</g>
<!-- Node13 -->
<g id="node13" class="node"><title>Node13</title>
<g id="a_node13"><a xlink:href="../../d0/d4b/class_main.html#a6d9ee2db320148cdd46abd77f0f5c388" target="_top" xlink:title="Main.start">
<polygon fill="white" stroke="black" points="369.5,-0.5 369.5,-19.5 434.5,-19.5 434.5,-0.5 369.5,-0.5"/>
<text text-anchor="middle" x="402" y="-7.5" font-family="Helvetica,sans-Serif" font-size="10.00">Main.start</text>
</a>
</g>
</g>
<!-- Node7&#45;&gt;Node13 -->
<g id="edge15" class="edge"><title>Node7&#45;&gt;Node13</title>
<path fill="none" stroke="midnightblue" d="M230.792,-88.0627C249.134,-70.5663 280.167,-43.7914 312,-29 330.054,-20.6112 351.896,-15.8774 369.424,-13.2329"/>
<polygon fill="midnightblue" stroke="midnightblue" points="228.014,-85.8835 223.3,-95.3722 232.902,-90.8937 228.014,-85.8835"/>
</g>
<!-- Node10&#45;&gt;Node3 -->
<g id="edge11" class="edge"><title>Node10&#45;&gt;Node3</title>
<path fill="none" stroke="midnightblue" d="M465.383,-96.6318C474.453,-98.9472 483.567,-101.714 492,-105 527.815,-118.957 565.455,-143.114 588.076,-158.823"/>
<polygon fill="midnightblue" stroke="midnightblue" points="466.133,-93.2126 455.594,-94.2934 464.507,-100.021 466.133,-93.2126"/>
</g>
<!-- Node12 -->
<g id="node12" class="node"><title>Node12</title>
<g id="a_node12"><a xlink:href="../../da/dc7/class_browser_view.html#a5da1de68c05af5b4999d5169ea8a3cb1" target="_top" xlink:title="BrowserView.makePreferences\lPanel">
<polygon fill="white" stroke="black" points="528.5,-59 528.5,-89 691.5,-89 691.5,-59 528.5,-59"/>
<text text-anchor="start" x="536.5" y="-77" font-family="Helvetica,sans-Serif" font-size="10.00">BrowserView.makePreferences</text>
<text text-anchor="middle" x="610" y="-66" font-family="Helvetica,sans-Serif" font-size="10.00">Panel</text>
</a>
</g>
</g>
<!-- Node11&#45;&gt;Node12 -->
<g id="edge13" class="edge"><title>Node11&#45;&gt;Node12</title>
<path fill="none" stroke="midnightblue" d="M482.44,-58.0264C497.465,-59.9227 513.196,-61.9082 528.26,-63.8095"/>
<polygon fill="midnightblue" stroke="midnightblue" points="482.528,-54.5098 472.168,-56.73 481.651,-61.4547 482.528,-54.5098"/>
</g>
<!-- Node12&#45;&gt;Node4 -->
<g id="edge14" class="edge"><title>Node12&#45;&gt;Node4</title>
<path fill="none" stroke="midnightblue" d="M679.157,-91.5662C709.005,-99.259 742.862,-107.985 767.934,-114.447"/>
<polygon fill="midnightblue" stroke="midnightblue" points="679.763,-88.1082 669.206,-89.0016 678.016,-94.8867 679.763,-88.1082"/>
</g>
</g>
</svg>
