<?xml version="1.0" encoding="UTF-8" standalone="no"?>
<!DOCTYPE svg PUBLIC "-//W3C//DTD SVG 1.1//EN"
 "http://www.w3.org/Graphics/SVG/1.1/DTD/svg11.dtd">
<!-- Generated by graphviz version 2.36.0 (20140111.2315)
 -->
<!-- Title: BrowserView.showPage Pages: 1 -->
<svg width="918pt" height="180pt"
 viewBox="0.00 0.00 918.00 180.00" xmlns="http://www.w3.org/2000/svg" xmlns:xlink="http://www.w3.org/1999/xlink">
<g id="graph0" class="graph" transform="scale(1 1) rotate(0) translate(4 176)">
<title>BrowserView.showPage</title>
<polygon fill="white" stroke="none" points="-4,4 -4,-176 914,-176 914,4 -4,4"/>
<!-- Node1 -->
<g id="node1" class="node"><title>Node1</title>
<polygon fill="#bfbfbf" stroke="black" points="0,-76.5 0,-95.5 126,-95.5 126,-76.5 0,-76.5"/>
<text text-anchor="middle" x="63" y="-83.5" font-family="Helvetica,sans-Serif" font-size="10.00">BrowserView.showPage</text>
</g>
<!-- Node2 -->
<g id="node2" class="node"><title>Node2</title>
<g id="a_node2"><a xlink:href="../../d1/db7/class_browser_view_1_1_link_listener.html#ac327c216bc964212d29c574a5c9f4c9c" target="_top" xlink:title="BrowserView.LinkListener.changed">
<polygon fill="white" stroke="black" points="162.5,-152.5 162.5,-171.5 341.5,-171.5 341.5,-152.5 162.5,-152.5"/>
<text text-anchor="middle" x="252" y="-159.5" font-family="Helvetica,sans-Serif" font-size="10.00">BrowserView.LinkListener.changed</text>
</a>
</g>
</g>
<!-- Node1&#45;&gt;Node2 -->
<g id="edge1" class="edge"><title>Node1&#45;&gt;Node2</title>
<path fill="none" stroke="midnightblue" d="M85.5861,-101.258C104.8,-114.163 134.103,-132.226 162,-143 171.875,-146.814 182.677,-149.933 193.245,-152.459"/>
<polygon fill="midnightblue" stroke="midnightblue" points="87.4921,-98.3209 77.2623,-95.5638 83.54,-104.099 87.4921,-98.3209"/>
</g>
<!-- Node3 -->
<g id="node3" class="node"><title>Node3</title>
<g id="a_node3"><a xlink:href="../../de/dbe/class_browser_view_1_1_show_page.html#aa7fc8a1359d9b97a46932a60d385edf1" target="_top" xlink:title="BrowserView.ShowPage.handle">
<polygon fill="white" stroke="black" points="170.5,-114.5 170.5,-133.5 333.5,-133.5 333.5,-114.5 170.5,-114.5"/>
<text text-anchor="middle" x="252" y="-121.5" font-family="Helvetica,sans-Serif" font-size="10.00">BrowserView.ShowPage.handle</text>
</a>
</g>
</g>
<!-- Node1&#45;&gt;Node3 -->
<g id="edge2" class="edge"><title>Node1&#45;&gt;Node3</title>
<path fill="none" stroke="midnightblue" d="M121.131,-97.6095C147.727,-103.014 178.973,-109.364 204.151,-114.48"/>
<polygon fill="midnightblue" stroke="midnightblue" points="121.685,-94.1506 111.188,-95.589 120.291,-101.01 121.685,-94.1506"/>
</g>
<!-- Node4 -->
<g id="node4" class="node"><title>Node4</title>
<g id="a_node4"><a xlink:href="../../da/dc7/class_browser_view.html#a27f780fabcdd2064805f4434fea1a495" target="_top" xlink:title="BrowserView.home">
<polygon fill="white" stroke="black" points="198.5,-76.5 198.5,-95.5 305.5,-95.5 305.5,-76.5 198.5,-76.5"/>
<text text-anchor="middle" x="252" y="-83.5" font-family="Helvetica,sans-Serif" font-size="10.00">BrowserView.home</text>
</a>
</g>
</g>
<!-- Node1&#45;&gt;Node4 -->
<g id="edge3" class="edge"><title>Node1&#45;&gt;Node4</title>
<path fill="none" stroke="midnightblue" d="M136.034,-86C156.737,-86 178.924,-86 198.231,-86"/>
<polygon fill="midnightblue" stroke="midnightblue" points="136.009,-82.5001 126.009,-86 136.009,-89.5001 136.009,-82.5001"/>
</g>
<!-- Node8 -->
<g id="node8" class="node"><title>Node8</title>
<g id="a_node8"><a xlink:href="../../da/dc7/class_browser_view.html#a5eb25d6d929e3bf06fbc98aad4dfe990" target="_top" xlink:title="BrowserView.showFavorite">
<polygon fill="white" stroke="black" points="182,-38.5 182,-57.5 322,-57.5 322,-38.5 182,-38.5"/>
<text text-anchor="middle" x="252" y="-45.5" font-family="Helvetica,sans-Serif" font-size="10.00">BrowserView.showFavorite</text>
</a>
</g>
</g>
<!-- Node1&#45;&gt;Node8 -->
<g id="edge7" class="edge"><title>Node1&#45;&gt;Node8</title>
<path fill="none" stroke="midnightblue" d="M121.131,-74.3905C147.727,-68.986 178.973,-62.6365 204.151,-57.5201"/>
<polygon fill="midnightblue" stroke="midnightblue" points="120.291,-70.9896 111.188,-76.411 121.685,-77.8494 120.291,-70.9896"/>
</g>
<!-- Node10 -->
<g id="node10" class="node"><title>Node10</title>
<g id="a_node10"><a xlink:href="../../d0/d4b/class_main.html#a6d9ee2db320148cdd46abd77f0f5c388" target="_top" xlink:title="Main.start">
<polygon fill="white" stroke="black" points="219.5,-0.5 219.5,-19.5 284.5,-19.5 284.5,-0.5 219.5,-0.5"/>
<text text-anchor="middle" x="252" y="-7.5" font-family="Helvetica,sans-Serif" font-size="10.00">Main.start</text>
</a>
</g>
</g>
<!-- Node1&#45;&gt;Node10 -->
<g id="edge10" class="edge"><title>Node1&#45;&gt;Node10</title>
<path fill="none" stroke="midnightblue" d="M85.5861,-70.7424C104.8,-57.8374 134.103,-39.7741 162,-29 180.423,-21.8847 202.074,-17.188 219.409,-14.2444"/>
<polygon fill="midnightblue" stroke="midnightblue" points="83.54,-67.9015 77.2623,-76.4362 87.4921,-73.6791 83.54,-67.9015"/>
</g>
<!-- Node5 -->
<g id="node5" class="node"><title>Node5</title>
<g id="a_node5"><a xlink:href="../../da/dc7/class_browser_view.html#a857540bb858533e7a993f15225a56e79" target="_top" xlink:title="BrowserView.makeNavigation\lPanel">
<polygon fill="white" stroke="black" points="381.5,-76 381.5,-106 538.5,-106 538.5,-76 381.5,-76"/>
<text text-anchor="start" x="389.5" y="-94" font-family="Helvetica,sans-Serif" font-size="10.00">BrowserView.makeNavigation</text>
<text text-anchor="middle" x="460" y="-83" font-family="Helvetica,sans-Serif" font-size="10.00">Panel</text>
</a>
</g>
</g>
<!-- Node4&#45;&gt;Node5 -->
<g id="edge4" class="edge"><title>Node4&#45;&gt;Node5</title>
<path fill="none" stroke="midnightblue" d="M315.751,-87.5231C336.417,-88.0247 359.65,-88.5886 381.293,-89.1139"/>
<polygon fill="midnightblue" stroke="midnightblue" points="315.598,-84.0184 305.516,-87.2746 315.428,-91.0164 315.598,-84.0184"/>
</g>
<!-- Node6 -->
<g id="node6" class="node"><title>Node6</title>
<g id="a_node6"><a xlink:href="../../da/dc7/class_browser_view.html#a7187363a54226b91dcd71bfb90e60aa4" target="_top" xlink:title="BrowserView.makeInputPanel">
<polygon fill="white" stroke="black" points="578.5,-56.5 578.5,-75.5 733.5,-75.5 733.5,-56.5 578.5,-56.5"/>
<text text-anchor="middle" x="656" y="-63.5" font-family="Helvetica,sans-Serif" font-size="10.00">BrowserView.makeInputPanel</text>
</a>
</g>
</g>
<!-- Node5&#45;&gt;Node6 -->
<g id="edge5" class="edge"><title>Node5&#45;&gt;Node6</title>
<path fill="none" stroke="midnightblue" d="M548.458,-79.7297C559.356,-78.3252 570.417,-76.8999 581.082,-75.5255"/>
<polygon fill="midnightblue" stroke="midnightblue" points="547.981,-76.2621 538.51,-81.0116 548.876,-83.2047 547.981,-76.2621"/>
</g>
<!-- Node7 -->
<g id="node7" class="node"><title>Node7</title>
<g id="a_node7"><a xlink:href="../../da/dc7/class_browser_view.html#a5e87a7d2011460380dcf165db009461b" target="_top" xlink:title="BrowserView.BrowserView">
<polygon fill="white" stroke="black" points="770.5,-56.5 770.5,-75.5 909.5,-75.5 909.5,-56.5 770.5,-56.5"/>
<text text-anchor="middle" x="840" y="-63.5" font-family="Helvetica,sans-Serif" font-size="10.00">BrowserView.BrowserView</text>
</a>
</g>
</g>
<!-- Node6&#45;&gt;Node7 -->
<g id="edge6" class="edge"><title>Node6&#45;&gt;Node7</title>
<path fill="none" stroke="midnightblue" d="M743.678,-66C752.592,-66 761.56,-66 770.241,-66"/>
<polygon fill="midnightblue" stroke="midnightblue" points="743.657,-62.5001 733.657,-66 743.657,-69.5001 743.657,-62.5001"/>
</g>
<!-- Node9 -->
<g id="node9" class="node"><title>Node9</title>
<g id="a_node9"><a xlink:href="../../da/dc7/class_browser_view.html#a5da1de68c05af5b4999d5169ea8a3cb1" target="_top" xlink:title="BrowserView.makePreferences\lPanel">
<polygon fill="white" stroke="black" points="378.5,-27 378.5,-57 541.5,-57 541.5,-27 378.5,-27"/>
<text text-anchor="start" x="386.5" y="-45" font-family="Helvetica,sans-Serif" font-size="10.00">BrowserView.makePreferences</text>
<text text-anchor="middle" x="460" y="-34" font-family="Helvetica,sans-Serif" font-size="10.00">Panel</text>
</a>
</g>
</g>
<!-- Node8&#45;&gt;Node9 -->
<g id="edge8" class="edge"><title>Node8&#45;&gt;Node9</title>
<path fill="none" stroke="midnightblue" d="M332.44,-45.6862C347.465,-45.2486 363.196,-44.7904 378.26,-44.3517"/>
<polygon fill="midnightblue" stroke="midnightblue" points="332.062,-42.1956 322.168,-45.9854 332.266,-49.1927 332.062,-42.1956"/>
</g>
<!-- Node9&#45;&gt;Node6 -->
<g id="edge9" class="edge"><title>Node9&#45;&gt;Node6</title>
<path fill="none" stroke="midnightblue" d="M551.643,-53.2136C560.591,-54.3205 569.611,-55.4364 578.397,-56.5233"/>
<polygon fill="midnightblue" stroke="midnightblue" points="551.942,-49.724 541.588,-51.9697 551.083,-56.671 551.942,-49.724"/>
</g>
</g>
</svg>
