<?xml version="1.0" encoding="UTF-8" standalone="no"?>
<!DOCTYPE svg PUBLIC "-//W3C//DTD SVG 1.1//EN"
 "http://www.w3.org/Graphics/SVG/1.1/DTD/svg11.dtd">
<!-- Generated by graphviz version 2.36.0 (20140111.2315)
 -->
<!-- Title: BrowserView.showError Pages: 1 -->
<svg width="1080pt" height="193pt"
 viewBox="0.00 0.00 1080.00 193.00" xmlns="http://www.w3.org/2000/svg" xmlns:xlink="http://www.w3.org/1999/xlink">
<g id="graph0" class="graph" transform="scale(1 1) rotate(0) translate(4 189)">
<title>BrowserView.showError</title>
<polygon fill="white" stroke="none" points="-4,4 -4,-189 1076,-189 1076,4 -4,4"/>
<!-- Node1 -->
<g id="node1" class="node"><title>Node1</title>
<polygon fill="#bfbfbf" stroke="black" points="0,-76.5 0,-95.5 126,-95.5 126,-76.5 0,-76.5"/>
<text text-anchor="middle" x="63" y="-83.5" font-family="Helvetica,sans-Serif" font-size="10.00">BrowserView.showError</text>
</g>
<!-- Node2 -->
<g id="node2" class="node"><title>Node2</title>
<g id="a_node2"><a xlink:href="../../da/dc7/class_browser_view.html#ac654bf4a0eb91d6a9b1cf013e52fc3e5" target="_top" xlink:title="BrowserView.showPage">
<polygon fill="white" stroke="black" points="162,-76.5 162,-95.5 288,-95.5 288,-76.5 162,-76.5"/>
<text text-anchor="middle" x="225" y="-83.5" font-family="Helvetica,sans-Serif" font-size="10.00">BrowserView.showPage</text>
</a>
</g>
</g>
<!-- Node1&#45;&gt;Node2 -->
<g id="edge1" class="edge"><title>Node1&#45;&gt;Node2</title>
<path fill="none" stroke="midnightblue" d="M136.545,-86C144.996,-86 153.559,-86 161.852,-86"/>
<polygon fill="midnightblue" stroke="midnightblue" points="136.318,-82.5001 126.318,-86 136.318,-89.5001 136.318,-82.5001"/>
</g>
<!-- Node3 -->
<g id="node3" class="node"><title>Node3</title>
<g id="a_node3"><a xlink:href="../../da/dc7/class_browser_view.html#a27f780fabcdd2064805f4434fea1a495" target="_top" xlink:title="BrowserView.home">
<polygon fill="white" stroke="black" points="360.5,-155.5 360.5,-174.5 467.5,-174.5 467.5,-155.5 360.5,-155.5"/>
<text text-anchor="middle" x="414" y="-162.5" font-family="Helvetica,sans-Serif" font-size="10.00">BrowserView.home</text>
</a>
</g>
</g>
<!-- Node2&#45;&gt;Node3 -->
<g id="edge2" class="edge"><title>Node2&#45;&gt;Node3</title>
<path fill="none" stroke="midnightblue" d="M248.003,-101.255C267.276,-114.005 296.437,-131.845 324,-143 336.541,-148.076 350.566,-152.206 363.706,-155.459"/>
<polygon fill="midnightblue" stroke="midnightblue" points="249.886,-98.304 239.635,-95.6272 245.98,-104.112 249.886,-98.304"/>
</g>
<!-- Node7 -->
<g id="node7" class="node"><title>Node7</title>
<g id="a_node7"><a xlink:href="../../da/dc7/class_browser_view.html#a5eb25d6d929e3bf06fbc98aad4dfe990" target="_top" xlink:title="BrowserView.showFavorite">
<polygon fill="white" stroke="black" points="344,-114.5 344,-133.5 484,-133.5 484,-114.5 344,-114.5"/>
<text text-anchor="middle" x="414" y="-121.5" font-family="Helvetica,sans-Serif" font-size="10.00">BrowserView.showFavorite</text>
</a>
</g>
</g>
<!-- Node2&#45;&gt;Node7 -->
<g id="edge6" class="edge"><title>Node2&#45;&gt;Node7</title>
<path fill="none" stroke="midnightblue" d="M283.131,-97.6095C309.727,-103.014 340.973,-109.364 366.151,-114.48"/>
<polygon fill="midnightblue" stroke="midnightblue" points="283.685,-94.1506 273.188,-95.589 282.291,-101.01 283.685,-94.1506"/>
</g>
<!-- Node9 -->
<g id="node9" class="node"><title>Node9</title>
<g id="a_node9"><a xlink:href="../../de/dbe/class_browser_view_1_1_show_page.html#aa7fc8a1359d9b97a46932a60d385edf1" target="_top" xlink:title="BrowserView.ShowPage.handle">
<polygon fill="white" stroke="black" points="332.5,-76.5 332.5,-95.5 495.5,-95.5 495.5,-76.5 332.5,-76.5"/>
<text text-anchor="middle" x="414" y="-83.5" font-family="Helvetica,sans-Serif" font-size="10.00">BrowserView.ShowPage.handle</text>
</a>
</g>
</g>
<!-- Node2&#45;&gt;Node9 -->
<g id="edge9" class="edge"><title>Node2&#45;&gt;Node9</title>
<path fill="none" stroke="midnightblue" d="M298.111,-86C309.263,-86 320.845,-86 332.173,-86"/>
<polygon fill="midnightblue" stroke="midnightblue" points="298.009,-82.5001 288.009,-86 298.009,-89.5001 298.009,-82.5001"/>
</g>
<!-- Node10 -->
<g id="node10" class="node"><title>Node10</title>
<g id="a_node10"><a xlink:href="../../d1/db7/class_browser_view_1_1_link_listener.html#ac327c216bc964212d29c574a5c9f4c9c" target="_top" xlink:title="BrowserView.LinkListener.changed">
<polygon fill="white" stroke="black" points="324.5,-38.5 324.5,-57.5 503.5,-57.5 503.5,-38.5 324.5,-38.5"/>
<text text-anchor="middle" x="414" y="-45.5" font-family="Helvetica,sans-Serif" font-size="10.00">BrowserView.LinkListener.changed</text>
</a>
</g>
</g>
<!-- Node2&#45;&gt;Node10 -->
<g id="edge10" class="edge"><title>Node2&#45;&gt;Node10</title>
<path fill="none" stroke="midnightblue" d="M283.131,-74.3905C309.727,-68.986 340.973,-62.6365 366.151,-57.5201"/>
<polygon fill="midnightblue" stroke="midnightblue" points="282.291,-70.9896 273.188,-76.411 283.685,-77.8494 282.291,-70.9896"/>
</g>
<!-- Node11 -->
<g id="node11" class="node"><title>Node11</title>
<g id="a_node11"><a xlink:href="../../d0/d4b/class_main.html#a6d9ee2db320148cdd46abd77f0f5c388" target="_top" xlink:title="Main.start">
<polygon fill="white" stroke="black" points="381.5,-0.5 381.5,-19.5 446.5,-19.5 446.5,-0.5 381.5,-0.5"/>
<text text-anchor="middle" x="414" y="-7.5" font-family="Helvetica,sans-Serif" font-size="10.00">Main.start</text>
</a>
</g>
</g>
<!-- Node2&#45;&gt;Node11 -->
<g id="edge11" class="edge"><title>Node2&#45;&gt;Node11</title>
<path fill="none" stroke="midnightblue" d="M247.586,-70.7424C266.8,-57.8374 296.103,-39.7741 324,-29 342.423,-21.8847 364.074,-17.188 381.409,-14.2444"/>
<polygon fill="midnightblue" stroke="midnightblue" points="245.54,-67.9015 239.262,-76.4362 249.492,-73.6791 245.54,-67.9015"/>
</g>
<!-- Node4 -->
<g id="node4" class="node"><title>Node4</title>
<g id="a_node4"><a xlink:href="../../da/dc7/class_browser_view.html#a857540bb858533e7a993f15225a56e79" target="_top" xlink:title="BrowserView.makeNavigation\lPanel">
<polygon fill="white" stroke="black" points="543.5,-155 543.5,-185 700.5,-185 700.5,-155 543.5,-155"/>
<text text-anchor="start" x="551.5" y="-173" font-family="Helvetica,sans-Serif" font-size="10.00">BrowserView.makeNavigation</text>
<text text-anchor="middle" x="622" y="-162" font-family="Helvetica,sans-Serif" font-size="10.00">Panel</text>
</a>
</g>
</g>
<!-- Node3&#45;&gt;Node4 -->
<g id="edge3" class="edge"><title>Node3&#45;&gt;Node4</title>
<path fill="none" stroke="midnightblue" d="M477.751,-166.523C498.417,-167.025 521.65,-167.589 543.293,-168.114"/>
<polygon fill="midnightblue" stroke="midnightblue" points="477.598,-163.018 467.516,-166.275 477.428,-170.016 477.598,-163.018"/>
</g>
<!-- Node5 -->
<g id="node5" class="node"><title>Node5</title>
<g id="a_node5"><a xlink:href="../../da/dc7/class_browser_view.html#a7187363a54226b91dcd71bfb90e60aa4" target="_top" xlink:title="BrowserView.makeInputPanel">
<polygon fill="white" stroke="black" points="740.5,-135.5 740.5,-154.5 895.5,-154.5 895.5,-135.5 740.5,-135.5"/>
<text text-anchor="middle" x="818" y="-142.5" font-family="Helvetica,sans-Serif" font-size="10.00">BrowserView.makeInputPanel</text>
</a>
</g>
</g>
<!-- Node4&#45;&gt;Node5 -->
<g id="edge4" class="edge"><title>Node4&#45;&gt;Node5</title>
<path fill="none" stroke="midnightblue" d="M710.458,-158.73C721.356,-157.325 732.417,-155.9 743.082,-154.525"/>
<polygon fill="midnightblue" stroke="midnightblue" points="709.981,-155.262 700.51,-160.012 710.876,-162.205 709.981,-155.262"/>
</g>
<!-- Node6 -->
<g id="node6" class="node"><title>Node6</title>
<g id="a_node6"><a xlink:href="../../da/dc7/class_browser_view.html#a5e87a7d2011460380dcf165db009461b" target="_top" xlink:title="BrowserView.BrowserView">
<polygon fill="white" stroke="black" points="932.5,-135.5 932.5,-154.5 1071.5,-154.5 1071.5,-135.5 932.5,-135.5"/>
<text text-anchor="middle" x="1002" y="-142.5" font-family="Helvetica,sans-Serif" font-size="10.00">BrowserView.BrowserView</text>
</a>
</g>
</g>
<!-- Node5&#45;&gt;Node6 -->
<g id="edge5" class="edge"><title>Node5&#45;&gt;Node6</title>
<path fill="none" stroke="midnightblue" d="M905.678,-145C914.592,-145 923.56,-145 932.241,-145"/>
<polygon fill="midnightblue" stroke="midnightblue" points="905.657,-141.5 895.657,-145 905.657,-148.5 905.657,-141.5"/>
</g>
<!-- Node8 -->
<g id="node8" class="node"><title>Node8</title>
<g id="a_node8"><a xlink:href="../../da/dc7/class_browser_view.html#a5da1de68c05af5b4999d5169ea8a3cb1" target="_top" xlink:title="BrowserView.makePreferences\lPanel">
<polygon fill="white" stroke="black" points="540.5,-106 540.5,-136 703.5,-136 703.5,-106 540.5,-106"/>
<text text-anchor="start" x="548.5" y="-124" font-family="Helvetica,sans-Serif" font-size="10.00">BrowserView.makePreferences</text>
<text text-anchor="middle" x="622" y="-113" font-family="Helvetica,sans-Serif" font-size="10.00">Panel</text>
</a>
</g>
</g>
<!-- Node7&#45;&gt;Node8 -->
<g id="edge7" class="edge"><title>Node7&#45;&gt;Node8</title>
<path fill="none" stroke="midnightblue" d="M494.44,-122.843C509.465,-122.624 525.196,-122.395 540.26,-122.176"/>
<polygon fill="midnightblue" stroke="midnightblue" points="494.116,-119.347 484.168,-122.993 494.218,-126.347 494.116,-119.347"/>
</g>
<!-- Node8&#45;&gt;Node5 -->
<g id="edge8" class="edge"><title>Node8&#45;&gt;Node5</title>
<path fill="none" stroke="midnightblue" d="M713.643,-132.214C722.591,-133.32 731.611,-134.436 740.397,-135.523"/>
<polygon fill="midnightblue" stroke="midnightblue" points="713.942,-128.724 703.588,-130.97 713.083,-135.671 713.942,-128.724"/>
</g>
</g>
</svg>
