<?xml version="1.0" encoding="UTF-8" standalone="no"?>
<!DOCTYPE svg PUBLIC "-//W3C//DTD SVG 1.1//EN"
 "http://www.w3.org/Graphics/SVG/1.1/DTD/svg11.dtd">
<!-- Generated by graphviz version 2.36.0 (20140111.2315)
 -->
<!-- Title: BrowserView.makeNavigationPanel Pages: 1 -->
<!--zoomable 234 -->
<svg id="main" version="1.1" xmlns="http://www.w3.org/2000/svg" xmlns:xlink="http://www.w3.org/1999/xlink" xml:space="preserve" onload="init(evt)">
<style type="text/css"><![CDATA[
.edge:hover path { stroke: red; }
.edge:hover polygon { stroke: red; fill: red; }
]]></style>
<script type="text/javascript"><![CDATA[
var edges = document.getElementsByTagName('g');
if (edges && edges.length) {
  for (var i=0;i<edges.length;i++) {
    if (edges[i].id.substr(0,4)=='edge') {
      edges[i].setAttribute('class','edge');
    }
  }
}
]]></script>
        <defs>
                <circle id="rim" cx="0" cy="0" r="7"/>
                <circle id="rim2" cx="0" cy="0" r="3.5"/>
                <g id="zoomPlus">
                        <use xlink:href="#rim" fill="#404040">
                                <set attributeName="fill" to="#808080" begin="zoomplus.mouseover" end="zoomplus.mouseout"/>
                        </use>
                        <path d="M-4,0h8M0,-4v8" fill="none" stroke="white" stroke-width="1.5" pointer-events="none"/>
                </g>
                <g id="zoomMin">
                        <use xlink:href="#rim" fill="#404040">
                                <set attributeName="fill" to="#808080" begin="zoomminus.mouseover" end="zoomminus.mouseout"/>
                        </use>
                        <path d="M-4,0h8" fill="none" stroke="white" stroke-width="1.5" pointer-events="none"/>
                </g>
                <g id="dirArrow">
                        <path fill="none" stroke="white" stroke-width="1.5" d="M0,-3.0v7 M-2.5,-0.5L0,-3.0L2.5,-0.5"/>
                </g>
               <g id="resetDef">
                       <use xlink:href="#rim2" fill="#404040">
                               <set attributeName="fill" to="#808080" begin="reset.mouseover" end="reset.mouseout"/>
                       </use>
               </g>
        </defs>

<script type="text/javascript">
var viewWidth = 1044;
var viewHeight = 234;
var sectionId = 'dynsection-16';
</script>
<script xlink:href="../../svgpan.js"/>
<svg id="graph" class="graph">
<g id="viewport">
<title>BrowserView.makeNavigationPanel</title>
<polygon fill="white" stroke="none" points="-4,4 -4,-229.721 1040,-229.721 1040,4 -4,4"/>
<!-- Node1 -->
<g id="node1" class="node"><title>Node1</title>
<polygon fill="#bfbfbf" stroke="black" points="0.5,-71 0.5,-101 157.5,-101 157.5,-71 0.5,-71"/>
<text text-anchor="start" x="8.5" y="-89" font-family="Helvetica,sans-Serif" font-size="10.00">BrowserView.makeNavigation</text>
<text text-anchor="middle" x="79" y="-78" font-family="Helvetica,sans-Serif" font-size="10.00">Panel</text>
</g>
<!-- Node2 -->
<g id="node2" class="node"><title>Node2</title>
<g id="a_node2"><a xlink:href="../../da/dc7/class_browser_view.html#a6936eb74671b8632e4e361fa00fc74df" target="_top" xlink:title="BrowserView.back">
<polygon fill="white" stroke="black" points="394.5,-114.5 394.5,-133.5 495.5,-133.5 495.5,-114.5 394.5,-114.5"/>
<text text-anchor="middle" x="445" y="-121.5" font-family="Helvetica,sans-Serif" font-size="10.00">BrowserView.back</text>
</a>
</g>
</g>
<!-- Node1&#45;&gt;Node2 -->
<g id="edge1" class="edge"><title>Node1&#45;&gt;Node2</title>
<path fill="none" stroke="midnightblue" d="M157.541,-95.8024C169.736,-97.2632 182.206,-98.7099 194,-100 258.88,-107.097 333.361,-114.1 384.033,-118.692"/>
<polygon fill="midnightblue" stroke="midnightblue" points="383.881,-122.193 394.155,-119.607 384.511,-115.221 383.881,-122.193"/>
</g>
<!-- Node9 -->
<g id="node9" class="node"><title>Node9</title>
<g id="a_node9"><a xlink:href="../../da/dc7/class_browser_view.html#a27f780fabcdd2064805f4434fea1a495" target="_top" xlink:title="BrowserView.home">
<polygon fill="white" stroke="black" points="216.5,-152.5 216.5,-171.5 323.5,-171.5 323.5,-152.5 216.5,-152.5"/>
<text text-anchor="middle" x="270" y="-159.5" font-family="Helvetica,sans-Serif" font-size="10.00">BrowserView.home</text>
</a>
</g>
</g>
<!-- Node1&#45;&gt;Node9 -->
<g id="edge9" class="edge"><title>Node1&#45;&gt;Node9</title>
<path fill="none" stroke="midnightblue" d="M110.545,-101.126C133.264,-112.082 165.187,-126.864 194,-138 204.447,-142.038 215.888,-145.949 226.617,-149.401"/>
<polygon fill="midnightblue" stroke="midnightblue" points="225.631,-152.76 236.221,-152.433 227.738,-146.085 225.631,-152.76"/>
</g>
<!-- Node14 -->
<g id="node14" class="node"><title>Node14</title>
<g id="a_node14"><a xlink:href="../../da/dc7/class_browser_view.html#a9f7dc5ce97b315e98a3405f58a1f0e9e" target="_top" xlink:title="BrowserView.makeButton">
<polygon fill="white" stroke="black" points="201,-38.5 201,-57.5 339,-57.5 339,-38.5 201,-38.5"/>
<text text-anchor="middle" x="270" y="-45.5" font-family="Helvetica,sans-Serif" font-size="10.00">BrowserView.makeButton</text>
</a>
</g>
</g>
<!-- Node1&#45;&gt;Node14 -->
<g id="edge17" class="edge"><title>Node1&#45;&gt;Node14</title>
<path fill="none" stroke="midnightblue" d="M154.698,-70.9814C173.675,-67.1658 193.769,-63.1259 211.727,-59.5152"/>
<polygon fill="midnightblue" stroke="midnightblue" points="212.632,-62.9035 221.745,-57.5009 211.252,-56.0408 212.632,-62.9035"/>
</g>
<!-- Node15 -->
<g id="node15" class="node"><title>Node15</title>
<g id="a_node15"><a xlink:href="../../da/dc7/class_browser_view.html#a2211cf8495fb203235dd74a4fe725ff4" target="_top" xlink:title="BrowserView.makeInputField">
<polygon fill="white" stroke="black" points="194.5,-0.5 194.5,-19.5 345.5,-19.5 345.5,-0.5 194.5,-0.5"/>
<text text-anchor="middle" x="270" y="-7.5" font-family="Helvetica,sans-Serif" font-size="10.00">BrowserView.makeInputField</text>
</a>
</g>
</g>
<!-- Node1&#45;&gt;Node15 -->
<g id="edge18" class="edge"><title>Node1&#45;&gt;Node15</title>
<path fill="none" stroke="midnightblue" d="M105.996,-70.9743C128.646,-58.3809 162.681,-40.6416 194,-29 200.514,-26.5788 207.458,-24.3603 214.392,-22.3614"/>
<polygon fill="midnightblue" stroke="midnightblue" points="215.775,-25.6115 224.493,-19.5918 213.924,-18.8606 215.775,-25.6115"/>
</g>
<!-- Node16 -->
<g id="node16" class="node"><title>Node16</title>
<g id="a_node16"><a xlink:href="../../da/dc7/class_browser_view.html#acd8bc4226c2213dc9ce03cb6e8b4d24c" target="_top" xlink:title="BrowserView.next">
<polygon fill="white" stroke="black" points="395,-76.5 395,-95.5 495,-95.5 495,-76.5 395,-76.5"/>
<text text-anchor="middle" x="445" y="-83.5" font-family="Helvetica,sans-Serif" font-size="10.00">BrowserView.next</text>
</a>
</g>
</g>
<!-- Node1&#45;&gt;Node16 -->
<g id="edge19" class="edge"><title>Node1&#45;&gt;Node16</title>
<path fill="none" stroke="midnightblue" d="M157.641,-86C225.538,-86 322.703,-86 384.569,-86"/>
<polygon fill="midnightblue" stroke="midnightblue" points="384.939,-89.5001 394.939,-86 384.939,-82.5001 384.939,-89.5001"/>
</g>
<!-- Node3 -->
<g id="node3" class="node"><title>Node3</title>
<g id="a_node3"><a xlink:href="../../d4/d0e/class_browser_model.html#a48b671d68ebdc1f64cabf275b7c4c70e" target="_top" xlink:title="BrowserModel.back">
<polygon fill="white" stroke="black" points="726.5,-133.5 726.5,-152.5 835.5,-152.5 835.5,-133.5 726.5,-133.5"/>
<text text-anchor="middle" x="781" y="-140.5" font-family="Helvetica,sans-Serif" font-size="10.00">BrowserModel.back</text>
</a>
</g>
</g>
<!-- Node2&#45;&gt;Node3 -->
<g id="edge2" class="edge"><title>Node2&#45;&gt;Node3</title>
<path fill="none" stroke="midnightblue" d="M495.643,-126.824C554.377,-130.165 652.273,-135.734 716.482,-139.387"/>
<polygon fill="midnightblue" stroke="midnightblue" points="716.305,-142.882 726.487,-139.956 716.702,-135.893 716.305,-142.882"/>
</g>
<!-- Node5 -->
<g id="node5" class="node"><title>Node5</title>
<g id="a_node5"><a xlink:href="../../da/dc7/class_browser_view.html#a34f643e815549bd4340fb49f0865c030" target="_top" xlink:title="BrowserView.update">
<polygon fill="white" stroke="black" points="550.5,-76.5 550.5,-95.5 663.5,-95.5 663.5,-76.5 550.5,-76.5"/>
<text text-anchor="middle" x="607" y="-83.5" font-family="Helvetica,sans-Serif" font-size="10.00">BrowserView.update</text>
</a>
</g>
</g>
<!-- Node2&#45;&gt;Node5 -->
<g id="edge4" class="edge"><title>Node2&#45;&gt;Node5</title>
<path fill="none" stroke="midnightblue" d="M486.375,-114.411C507.488,-109.396 533.529,-103.212 555.917,-97.8947"/>
<polygon fill="midnightblue" stroke="midnightblue" points="556.995,-101.236 565.916,-95.5201 555.377,-94.4256 556.995,-101.236"/>
</g>
<!-- Node4 -->
<g id="node4" class="node"><title>Node4</title>
<g id="a_node4"><a xlink:href="../../d4/d0e/class_browser_model.html#a1026df05417d496ec0630e7b76d9bc5c" target="_top" xlink:title="BrowserModel.hasPrevious">
<polygon fill="white" stroke="black" points="892,-114.5 892,-133.5 1036,-133.5 1036,-114.5 892,-114.5"/>
<text text-anchor="middle" x="964" y="-121.5" font-family="Helvetica,sans-Serif" font-size="10.00">BrowserModel.hasPrevious</text>
</a>
</g>
</g>
<!-- Node3&#45;&gt;Node4 -->
<g id="edge3" class="edge"><title>Node3&#45;&gt;Node4</title>
<path fill="none" stroke="midnightblue" d="M835.816,-137.351C850.262,-135.834 866.21,-134.16 881.787,-132.525"/>
<polygon fill="midnightblue" stroke="midnightblue" points="882.37,-135.983 891.95,-131.458 881.639,-129.021 882.37,-135.983"/>
</g>
<!-- Node6 -->
<g id="node6" class="node"><title>Node6</title>
<g id="a_node6"><a xlink:href="../../da/dc7/class_browser_view.html#a075eb442cd14dfdf391d474164cb5587" target="_top" xlink:title="BrowserView.enableButtons">
<polygon fill="white" stroke="black" points="706.5,-95.5 706.5,-114.5 855.5,-114.5 855.5,-95.5 706.5,-95.5"/>
<text text-anchor="middle" x="781" y="-102.5" font-family="Helvetica,sans-Serif" font-size="10.00">BrowserView.enableButtons</text>
</a>
</g>
</g>
<!-- Node5&#45;&gt;Node6 -->
<g id="edge5" class="edge"><title>Node5&#45;&gt;Node6</title>
<path fill="none" stroke="midnightblue" d="M663.843,-92.1688C674.207,-93.3136 685.24,-94.5324 696.225,-95.7458"/>
<polygon fill="midnightblue" stroke="midnightblue" points="695.955,-99.2372 706.279,-96.8564 696.724,-92.2795 695.955,-99.2372"/>
</g>
<!-- Node6&#45;&gt;Node4 -->
<g id="edge8" class="edge"><title>Node6&#45;&gt;Node4</title>
<path fill="none" stroke="midnightblue" d="M855.62,-112.728C864.202,-113.629 872.994,-114.552 881.673,-115.463"/>
<polygon fill="midnightblue" stroke="midnightblue" points="881.478,-118.962 891.789,-116.525 882.209,-112 881.478,-118.962"/>
</g>
<!-- Node7 -->
<g id="node7" class="node"><title>Node7</title>
<g id="a_node7"><a xlink:href="../../d4/d0e/class_browser_model.html#aef138e6865de073292539cc36ed81d8d" target="_top" xlink:title="BrowserModel.getHome">
<polygon fill="white" stroke="black" points="898.5,-199.5 898.5,-218.5 1029.5,-218.5 1029.5,-199.5 898.5,-199.5"/>
<text text-anchor="middle" x="964" y="-206.5" font-family="Helvetica,sans-Serif" font-size="10.00">BrowserModel.getHome</text>
</a>
</g>
</g>
<!-- Node6&#45;&gt;Node7 -->
<g id="edge6" class="edge"><title>Node6&#45;&gt;Node7</title>
<path fill="none" stroke="midnightblue" d="M831.218,-114.538C839.709,-117.049 848.28,-120.162 856,-124 891.663,-141.728 926.565,-172.756 946.368,-192.018"/>
<polygon fill="midnightblue" stroke="midnightblue" points="944.091,-194.689 953.656,-199.244 949.019,-189.718 944.091,-194.689"/>
</g>
<!-- Node8 -->
<g id="node8" class="node"><title>Node8</title>
<g id="a_node8"><a xlink:href="../../d4/d0e/class_browser_model.html#a8543f3aac30c7f3970509c138f37bfa6" target="_top" xlink:title="BrowserModel.hasNext">
<polygon fill="white" stroke="black" points="901,-57.5 901,-76.5 1027,-76.5 1027,-57.5 901,-57.5"/>
<text text-anchor="middle" x="964" y="-64.5" font-family="Helvetica,sans-Serif" font-size="10.00">BrowserModel.hasNext</text>
</a>
</g>
</g>
<!-- Node6&#45;&gt;Node8 -->
<g id="edge7" class="edge"><title>Node6&#45;&gt;Node8</title>
<path fill="none" stroke="midnightblue" d="M827.674,-95.411C851.989,-90.3061 882.08,-83.9887 907.708,-78.6082"/>
<polygon fill="midnightblue" stroke="midnightblue" points="908.587,-82.0001 917.654,-76.5201 907.149,-75.1495 908.587,-82.0001"/>
</g>
<!-- Node9&#45;&gt;Node7 -->
<g id="edge10" class="edge"><title>Node9&#45;&gt;Node7</title>
<path fill="none" stroke="midnightblue" d="M305.546,-171.606C357.006,-185.367 457.068,-210.022 544,-219 663.854,-231.379 803.969,-223.559 887.984,-216.492"/>
<polygon fill="midnightblue" stroke="midnightblue" points="888.535,-219.958 898.198,-215.613 887.935,-212.983 888.535,-219.958"/>
</g>
<!-- Node10 -->
<g id="node10" class="node"><title>Node10</title>
<g id="a_node10"><a xlink:href="../../da/dc7/class_browser_view.html#ac654bf4a0eb91d6a9b1cf013e52fc3e5" target="_top" xlink:title="BrowserView.showPage">
<polygon fill="white" stroke="black" points="382,-152.5 382,-171.5 508,-171.5 508,-152.5 382,-152.5"/>
<text text-anchor="middle" x="445" y="-159.5" font-family="Helvetica,sans-Serif" font-size="10.00">BrowserView.showPage</text>
</a>
</g>
</g>
<!-- Node9&#45;&gt;Node10 -->
<g id="edge11" class="edge"><title>Node9&#45;&gt;Node10</title>
<path fill="none" stroke="midnightblue" d="M323.846,-162C338.844,-162 355.442,-162 371.392,-162"/>
<polygon fill="midnightblue" stroke="midnightblue" points="371.757,-165.5 381.757,-162 371.757,-158.5 371.757,-165.5"/>
</g>
<!-- Node10&#45;&gt;Node5 -->
<g id="edge12" class="edge"><title>Node10&#45;&gt;Node5</title>
<path fill="none" stroke="midnightblue" d="M482.244,-152.42C490.827,-149.735 499.851,-146.562 508,-143 535.09,-131.159 564.13,-113.589 583.504,-101.09"/>
<polygon fill="midnightblue" stroke="midnightblue" points="585.482,-103.978 591.936,-95.5761 581.651,-98.12 585.482,-103.978"/>
</g>
<!-- Node11 -->
<g id="node11" class="node"><title>Node11</title>
<g id="a_node11"><a xlink:href="../../d4/d0e/class_browser_model.html#a16df284a0004c149f459b18876491b13" target="_top" xlink:title="BrowserModel.go">
<polygon fill="white" stroke="black" points="558,-152.5 558,-171.5 656,-171.5 656,-152.5 558,-152.5"/>
<text text-anchor="middle" x="607" y="-159.5" font-family="Helvetica,sans-Serif" font-size="10.00">BrowserModel.go</text>
</a>
</g>
</g>
<!-- Node10&#45;&gt;Node11 -->
<g id="edge13" class="edge"><title>Node10&#45;&gt;Node11</title>
<path fill="none" stroke="midnightblue" d="M508.318,-162C521.335,-162 535.008,-162 547.866,-162"/>
<polygon fill="midnightblue" stroke="midnightblue" points="547.974,-165.5 557.974,-162 547.974,-158.5 547.974,-165.5"/>
</g>
<!-- Node13 -->
<g id="node13" class="node"><title>Node13</title>
<g id="a_node13"><a xlink:href="../../da/dc7/class_browser_view.html#a50820a4578ff7cacb849e7886aa75b13" target="_top" xlink:title="BrowserView.showError">
<polygon fill="white" stroke="black" points="544,-190.5 544,-209.5 670,-209.5 670,-190.5 544,-190.5"/>
<text text-anchor="middle" x="607" y="-197.5" font-family="Helvetica,sans-Serif" font-size="10.00">BrowserView.showError</text>
</a>
</g>
</g>
<!-- Node10&#45;&gt;Node13 -->
<g id="edge16" class="edge"><title>Node10&#45;&gt;Node13</title>
<path fill="none" stroke="midnightblue" d="M486.375,-171.589C507.488,-176.604 533.529,-182.788 555.917,-188.105"/>
<polygon fill="midnightblue" stroke="midnightblue" points="555.377,-191.574 565.916,-190.48 556.995,-184.764 555.377,-191.574"/>
</g>
<!-- Node11&#45;&gt;Node8 -->
<g id="edge15" class="edge"><title>Node11&#45;&gt;Node8</title>
<path fill="none" stroke="midnightblue" d="M616.568,-152.375C632.327,-135.427 667.812,-100.668 706,-86 765.222,-63.2538 837.685,-59.8764 890.553,-61.3898"/>
<polygon fill="midnightblue" stroke="midnightblue" points="890.738,-64.8984 900.855,-61.7534 890.985,-57.9028 890.738,-64.8984"/>
</g>
<!-- Node12 -->
<g id="node12" class="node"><title>Node12</title>
<g id="a_node12"><a xlink:href="../../d4/d0e/class_browser_model.html#afd48fe0bb4e912c2281ea18754fc8fe2" target="_top" xlink:title="BrowserModel.completeURL">
<polygon fill="white" stroke="black" points="706,-171.5 706,-190.5 856,-190.5 856,-171.5 706,-171.5"/>
<text text-anchor="middle" x="781" y="-178.5" font-family="Helvetica,sans-Serif" font-size="10.00">BrowserModel.completeURL</text>
</a>
</g>
</g>
<!-- Node11&#45;&gt;Node12 -->
<g id="edge14" class="edge"><title>Node11&#45;&gt;Node12</title>
<path fill="none" stroke="midnightblue" d="M656.369,-167.343C668.642,-168.699 682.188,-170.195 695.68,-171.686"/>
<polygon fill="midnightblue" stroke="midnightblue" points="695.64,-175.202 705.964,-172.822 696.408,-168.245 695.64,-175.202"/>
</g>
<!-- Node16&#45;&gt;Node5 -->
<g id="edge20" class="edge"><title>Node16&#45;&gt;Node5</title>
<path fill="none" stroke="midnightblue" d="M495.311,-86C509.486,-86 525.175,-86 540.178,-86"/>
<polygon fill="midnightblue" stroke="midnightblue" points="540.427,-89.5001 550.427,-86 540.427,-82.5001 540.427,-89.5001"/>
</g>
<!-- Node17 -->
<g id="node17" class="node"><title>Node17</title>
<g id="a_node17"><a xlink:href="../../d4/d0e/class_browser_model.html#af6ac28da81c98130778254d039fe3cbb" target="_top" xlink:title="BrowserModel.next">
<polygon fill="white" stroke="black" points="727.5,-19.5 727.5,-38.5 834.5,-38.5 834.5,-19.5 727.5,-19.5"/>
<text text-anchor="middle" x="781" y="-26.5" font-family="Helvetica,sans-Serif" font-size="10.00">BrowserModel.next</text>
</a>
</g>
</g>
<!-- Node16&#45;&gt;Node17 -->
<g id="edge21" class="edge"><title>Node16&#45;&gt;Node17</title>
<path fill="none" stroke="midnightblue" d="M493.795,-76.4173C509.742,-73.3045 527.618,-69.9061 544,-67 602.626,-56.5997 669.665,-45.9214 717.273,-38.5433"/>
<polygon fill="midnightblue" stroke="midnightblue" points="718.08,-41.9602 727.428,-36.9739 717.011,-35.0424 718.08,-41.9602"/>
</g>
<!-- Node17&#45;&gt;Node8 -->
<g id="edge22" class="edge"><title>Node17&#45;&gt;Node8</title>
<path fill="none" stroke="midnightblue" d="M827.674,-38.589C851.989,-43.6939 882.08,-50.0113 907.708,-55.3918"/>
<polygon fill="midnightblue" stroke="midnightblue" points="907.149,-58.8505 917.654,-57.4799 908.587,-51.9999 907.149,-58.8505"/>
</g>
</g>
</svg>
        <g id="navigator" transform="translate(0 0)" fill="#404254">
                <rect fill="#f2f5e9" fill-opacity="0.5" stroke="#606060" stroke-width=".5" x="0" y="0" width="60" height="60"/>
                <use id="zoomplus" xlink:href="#zoomPlus" x="17" y="9" onmousedown="handleZoom(evt,'in')"/>
                <use id="zoomminus" xlink:href="#zoomMin" x="42" y="9" onmousedown="handleZoom(evt,'out')"/>
                <use id="reset" xlink:href="#resetDef" x="30" y="36" onmousedown="handleReset()"/>
                <g id="arrowUp" xlink:href="#dirArrow" transform="translate(30 24)" onmousedown="handlePan(0,-1)">
                  <use xlink:href="#rim" fill="#404040">
                        <set attributeName="fill" to="#808080" begin="arrowUp.mouseover" end="arrowUp.mouseout"/>
                  </use>
                  <path fill="none" stroke="white" stroke-width="1.5" d="M0,-3.0v7 M-2.5,-0.5L0,-3.0L2.5,-0.5"/>
                </g>
                <g id="arrowRight" xlink:href="#dirArrow" transform="rotate(90) translate(36 -43)" onmousedown="handlePan(1,0)">
                  <use xlink:href="#rim" fill="#404040">
                        <set attributeName="fill" to="#808080" begin="arrowRight.mouseover" end="arrowRight.mouseout"/>
                  </use>
                  <path fill="none" stroke="white" stroke-width="1.5" d="M0,-3.0v7 M-2.5,-0.5L0,-3.0L2.5,-0.5"/>
                </g>
                <g id="arrowDown" xlink:href="#dirArrow" transform="rotate(180) translate(-30 -48)" onmousedown="handlePan(0,1)">
                  <use xlink:href="#rim" fill="#404040">
                        <set attributeName="fill" to="#808080" begin="arrowDown.mouseover" end="arrowDown.mouseout"/>
                  </use>
                  <path fill="none" stroke="white" stroke-width="1.5" d="M0,-3.0v7 M-2.5,-0.5L0,-3.0L2.5,-0.5"/>
                </g>
                <g id="arrowLeft" xlink:href="#dirArrow" transform="rotate(270) translate(-36 17)" onmousedown="handlePan(-1,0)">
                  <use xlink:href="#rim" fill="#404040">
                        <set attributeName="fill" to="#808080" begin="arrowLeft.mouseover" end="arrowLeft.mouseout"/>
                  </use>
                  <path fill="none" stroke="white" stroke-width="1.5" d="M0,-3.0v7 M-2.5,-0.5L0,-3.0L2.5,-0.5"/>
                </g>
        </g>
        <svg viewBox="0 0 15 15" width="100%" height="30px" preserveAspectRatio="xMaxYMin meet">
         <g id="arrow_out" transform="scale(0.3 0.3)">
          <a xlink:href="class_browser_view_a857540bb858533e7a993f15225a56e79_cgraph_org.svg" target="_base">
           <rect id="button" ry="5" rx="5" y="6" x="6" height="38" width="38"
                fill="#f2f5e9" fill-opacity="0.5" stroke="#606060" stroke-width="1.0"/>
           <path id="arrow"
             d="M 11.500037,31.436501 C 11.940474,20.09759 22.043105,11.32322 32.158766,21.979434 L 37.068811,17.246167 C 37.068811,17.246167 37.088388,32 37.088388,32 L 22.160133,31.978069 C 22.160133,31.978069 26.997745,27.140456 26.997745,27.140456 C 18.528582,18.264221 13.291696,25.230495 11.500037,31.436501 z"
             style="fill:#404040;"/>
          </a>
         </g>
        </svg>
</svg>
