<?xml version="1.0" encoding="UTF-8" standalone="no"?>
<!DOCTYPE svg PUBLIC "-//W3C//DTD SVG 1.1//EN"
 "http://www.w3.org/Graphics/SVG/1.1/DTD/svg11.dtd">
<!-- Generated by graphviz version 2.36.0 (20140111.2315)
 -->
<!-- Title: BrowserView.addFavorite Pages: 1 -->
<svg width="710pt" height="38pt"
 viewBox="0.00 0.00 710.00 38.00" xmlns="http://www.w3.org/2000/svg" xmlns:xlink="http://www.w3.org/1999/xlink">
<g id="graph0" class="graph" transform="scale(1 1) rotate(0) translate(4 34)">
<title>BrowserView.addFavorite</title>
<polygon fill="white" stroke="none" points="-4,4 -4,-34 706,-34 706,4 -4,4"/>
<!-- Node1 -->
<g id="node1" class="node"><title>Node1</title>
<polygon fill="#bfbfbf" stroke="black" points="0,-5.5 0,-24.5 134,-24.5 134,-5.5 0,-5.5"/>
<text text-anchor="middle" x="67" y="-12.5" font-family="Helvetica,sans-Serif" font-size="10.00">BrowserView.addFavorite</text>
</g>
<!-- Node2 -->
<g id="node2" class="node"><title>Node2</title>
<g id="a_node2"><a xlink:href="../../da/dc7/class_browser_view.html#a5da1de68c05af5b4999d5169ea8a3cb1" target="_top" xlink:title="BrowserView.makePreferences\lPanel">
<polygon fill="white" stroke="black" points="170.5,-0 170.5,-30 333.5,-30 333.5,-0 170.5,-0"/>
<text text-anchor="start" x="178.5" y="-18" font-family="Helvetica,sans-Serif" font-size="10.00">BrowserView.makePreferences</text>
<text text-anchor="middle" x="252" y="-7" font-family="Helvetica,sans-Serif" font-size="10.00">Panel</text>
</a>
</g>
</g>
<!-- Node1&#45;&gt;Node2 -->
<g id="edge1" class="edge"><title>Node1&#45;&gt;Node2</title>
<path fill="none" stroke="midnightblue" d="M144.127,-15C152.786,-15 161.635,-15 170.351,-15"/>
<polygon fill="midnightblue" stroke="midnightblue" points="144.067,-11.5001 134.067,-15 144.067,-18.5001 144.067,-11.5001"/>
</g>
<!-- Node3 -->
<g id="node3" class="node"><title>Node3</title>
<g id="a_node3"><a xlink:href="../../da/dc7/class_browser_view.html#a7187363a54226b91dcd71bfb90e60aa4" target="_top" xlink:title="BrowserView.makeInputPanel">
<polygon fill="white" stroke="black" points="370.5,-5.5 370.5,-24.5 525.5,-24.5 525.5,-5.5 370.5,-5.5"/>
<text text-anchor="middle" x="448" y="-12.5" font-family="Helvetica,sans-Serif" font-size="10.00">BrowserView.makeInputPanel</text>
</a>
</g>
</g>
<!-- Node2&#45;&gt;Node3 -->
<g id="edge2" class="edge"><title>Node2&#45;&gt;Node3</title>
<path fill="none" stroke="midnightblue" d="M343.643,-15C352.591,-15 361.611,-15 370.397,-15"/>
<polygon fill="midnightblue" stroke="midnightblue" points="343.588,-11.5001 333.588,-15 343.588,-18.5001 343.588,-11.5001"/>
</g>
<!-- Node4 -->
<g id="node4" class="node"><title>Node4</title>
<g id="a_node4"><a xlink:href="../../da/dc7/class_browser_view.html#a5e87a7d2011460380dcf165db009461b" target="_top" xlink:title="BrowserView.BrowserView">
<polygon fill="white" stroke="black" points="562.5,-5.5 562.5,-24.5 701.5,-24.5 701.5,-5.5 562.5,-5.5"/>
<text text-anchor="middle" x="632" y="-12.5" font-family="Helvetica,sans-Serif" font-size="10.00">BrowserView.BrowserView</text>
</a>
</g>
</g>
<!-- Node3&#45;&gt;Node4 -->
<g id="edge3" class="edge"><title>Node3&#45;&gt;Node4</title>
<path fill="none" stroke="midnightblue" d="M535.678,-15C544.592,-15 553.56,-15 562.241,-15"/>
<polygon fill="midnightblue" stroke="midnightblue" points="535.657,-11.5001 525.657,-15 535.657,-18.5001 535.657,-11.5001"/>
</g>
</g>
</svg>
