<?xml version="1.0" encoding="UTF-8" standalone="no"?>
<!DOCTYPE svg PUBLIC "-//W3C//DTD SVG 1.1//EN"
 "http://www.w3.org/Graphics/SVG/1.1/DTD/svg11.dtd">
<!-- Generated by graphviz version 2.36.0 (20140111.2315)
 -->
<!-- Title: BrowserView.home Pages: 1 -->
<svg width="806pt" height="142pt"
 viewBox="0.00 0.00 806.00 142.00" xmlns="http://www.w3.org/2000/svg" xmlns:xlink="http://www.w3.org/1999/xlink">
<g id="graph0" class="graph" transform="scale(1 1) rotate(0) translate(4 138)">
<title>BrowserView.home</title>
<polygon fill="white" stroke="none" points="-4,4 -4,-138 802,-138 802,4 -4,4"/>
<!-- Node1 -->
<g id="node1" class="node"><title>Node1</title>
<polygon fill="#bfbfbf" stroke="black" points="0.5,-95.5 0.5,-114.5 107.5,-114.5 107.5,-95.5 0.5,-95.5"/>
<text text-anchor="middle" x="54" y="-102.5" font-family="Helvetica,sans-Serif" font-size="10.00">BrowserView.home</text>
</g>
<!-- Node2 -->
<g id="node2" class="node"><title>Node2</title>
<g id="a_node2"><a xlink:href="../../d4/d0e/class_browser_model.html#aef138e6865de073292539cc36ed81d8d" target="_top" xlink:title="BrowserModel.getHome">
<polygon fill="white" stroke="black" points="660.5,-114.5 660.5,-133.5 791.5,-133.5 791.5,-114.5 660.5,-114.5"/>
<text text-anchor="middle" x="726" y="-121.5" font-family="Helvetica,sans-Serif" font-size="10.00">BrowserModel.getHome</text>
</a>
</g>
</g>
<!-- Node1&#45;&gt;Node2 -->
<g id="edge1" class="edge"><title>Node1&#45;&gt;Node2</title>
<path fill="none" stroke="midnightblue" d="M107.574,-106.491C225.807,-109.844 513.004,-117.988 649.952,-121.872"/>
<polygon fill="midnightblue" stroke="midnightblue" points="650.249,-125.382 660.344,-122.166 650.447,-118.384 650.249,-125.382"/>
</g>
<!-- Node3 -->
<g id="node3" class="node"><title>Node3</title>
<g id="a_node3"><a xlink:href="../../da/dc7/class_browser_view.html#ac654bf4a0eb91d6a9b1cf013e52fc3e5" target="_top" xlink:title="BrowserView.showPage">
<polygon fill="white" stroke="black" points="144,-57.5 144,-76.5 270,-76.5 270,-57.5 144,-57.5"/>
<text text-anchor="middle" x="207" y="-64.5" font-family="Helvetica,sans-Serif" font-size="10.00">BrowserView.showPage</text>
</a>
</g>
</g>
<!-- Node1&#45;&gt;Node3 -->
<g id="edge2" class="edge"><title>Node1&#45;&gt;Node3</title>
<path fill="none" stroke="midnightblue" d="M93.1037,-95.411C112.94,-90.4191 137.384,-84.2676 158.448,-78.9666"/>
<polygon fill="midnightblue" stroke="midnightblue" points="159.327,-82.3548 168.17,-76.5201 157.618,-75.5664 159.327,-82.3548"/>
</g>
<!-- Node4 -->
<g id="node4" class="node"><title>Node4</title>
<g id="a_node4"><a xlink:href="../../da/dc7/class_browser_view.html#a34f643e815549bd4340fb49f0865c030" target="_top" xlink:title="BrowserView.update">
<polygon fill="white" stroke="black" points="312.5,-76.5 312.5,-95.5 425.5,-95.5 425.5,-76.5 312.5,-76.5"/>
<text text-anchor="middle" x="369" y="-83.5" font-family="Helvetica,sans-Serif" font-size="10.00">BrowserView.update</text>
</a>
</g>
</g>
<!-- Node3&#45;&gt;Node4 -->
<g id="edge3" class="edge"><title>Node3&#45;&gt;Node4</title>
<path fill="none" stroke="midnightblue" d="M270.318,-74.4003C280.824,-75.6479 291.759,-76.9463 302.346,-78.2036"/>
<polygon fill="midnightblue" stroke="midnightblue" points="302.023,-81.6898 312.366,-79.3935 302.849,-74.7386 302.023,-81.6898"/>
</g>
<!-- Node8 -->
<g id="node8" class="node"><title>Node8</title>
<g id="a_node8"><a xlink:href="../../d4/d0e/class_browser_model.html#a16df284a0004c149f459b18876491b13" target="_top" xlink:title="BrowserModel.go">
<polygon fill="white" stroke="black" points="320,-38.5 320,-57.5 418,-57.5 418,-38.5 320,-38.5"/>
<text text-anchor="middle" x="369" y="-45.5" font-family="Helvetica,sans-Serif" font-size="10.00">BrowserModel.go</text>
</a>
</g>
</g>
<!-- Node3&#45;&gt;Node8 -->
<g id="edge8" class="edge"><title>Node3&#45;&gt;Node8</title>
<path fill="none" stroke="midnightblue" d="M270.318,-59.5997C283.335,-58.054 297.008,-56.4302 309.866,-54.9034"/>
<polygon fill="midnightblue" stroke="midnightblue" points="310.457,-58.3579 319.974,-53.703 309.631,-51.4068 310.457,-58.3579"/>
</g>
<!-- Node10 -->
<g id="node10" class="node"><title>Node10</title>
<g id="a_node10"><a xlink:href="../../da/dc7/class_browser_view.html#a50820a4578ff7cacb849e7886aa75b13" target="_top" xlink:title="BrowserView.showError">
<polygon fill="white" stroke="black" points="306,-0.5 306,-19.5 432,-19.5 432,-0.5 306,-0.5"/>
<text text-anchor="middle" x="369" y="-7.5" font-family="Helvetica,sans-Serif" font-size="10.00">BrowserView.showError</text>
</a>
</g>
</g>
<!-- Node3&#45;&gt;Node10 -->
<g id="edge11" class="edge"><title>Node3&#45;&gt;Node10</title>
<path fill="none" stroke="midnightblue" d="M231.189,-57.4607C250.937,-49.4695 280.137,-37.9639 306,-29 312.361,-26.7954 319.133,-24.5841 325.777,-22.4895"/>
<polygon fill="midnightblue" stroke="midnightblue" points="326.842,-25.8236 335.357,-19.5184 324.769,-19.1377 326.842,-25.8236"/>
</g>
<!-- Node5 -->
<g id="node5" class="node"><title>Node5</title>
<g id="a_node5"><a xlink:href="../../da/dc7/class_browser_view.html#a075eb442cd14dfdf391d474164cb5587" target="_top" xlink:title="BrowserView.enableButtons">
<polygon fill="white" stroke="black" points="468.5,-76.5 468.5,-95.5 617.5,-95.5 617.5,-76.5 468.5,-76.5"/>
<text text-anchor="middle" x="543" y="-83.5" font-family="Helvetica,sans-Serif" font-size="10.00">BrowserView.enableButtons</text>
</a>
</g>
</g>
<!-- Node4&#45;&gt;Node5 -->
<g id="edge4" class="edge"><title>Node4&#45;&gt;Node5</title>
<path fill="none" stroke="midnightblue" d="M425.843,-86C436.207,-86 447.24,-86 458.225,-86"/>
<polygon fill="midnightblue" stroke="midnightblue" points="458.279,-89.5001 468.279,-86 458.279,-82.5001 458.279,-89.5001"/>
</g>
<!-- Node5&#45;&gt;Node2 -->
<g id="edge5" class="edge"><title>Node5&#45;&gt;Node2</title>
<path fill="none" stroke="midnightblue" d="M589.674,-95.589C613.989,-100.694 644.08,-107.011 669.708,-112.392"/>
<polygon fill="midnightblue" stroke="midnightblue" points="669.149,-115.851 679.654,-114.48 670.587,-109 669.149,-115.851"/>
</g>
<!-- Node6 -->
<g id="node6" class="node"><title>Node6</title>
<g id="a_node6"><a xlink:href="../../d4/d0e/class_browser_model.html#a8543f3aac30c7f3970509c138f37bfa6" target="_top" xlink:title="BrowserModel.hasNext">
<polygon fill="white" stroke="black" points="663,-38.5 663,-57.5 789,-57.5 789,-38.5 663,-38.5"/>
<text text-anchor="middle" x="726" y="-45.5" font-family="Helvetica,sans-Serif" font-size="10.00">BrowserModel.hasNext</text>
</a>
</g>
</g>
<!-- Node5&#45;&gt;Node6 -->
<g id="edge6" class="edge"><title>Node5&#45;&gt;Node6</title>
<path fill="none" stroke="midnightblue" d="M589.674,-76.411C613.989,-71.3061 644.08,-64.9887 669.708,-59.6082"/>
<polygon fill="midnightblue" stroke="midnightblue" points="670.587,-63.0001 679.654,-57.5201 669.149,-56.1495 670.587,-63.0001"/>
</g>
<!-- Node7 -->
<g id="node7" class="node"><title>Node7</title>
<g id="a_node7"><a xlink:href="../../d4/d0e/class_browser_model.html#a1026df05417d496ec0630e7b76d9bc5c" target="_top" xlink:title="BrowserModel.hasPrevious">
<polygon fill="white" stroke="black" points="654,-76.5 654,-95.5 798,-95.5 798,-76.5 654,-76.5"/>
<text text-anchor="middle" x="726" y="-83.5" font-family="Helvetica,sans-Serif" font-size="10.00">BrowserModel.hasPrevious</text>
</a>
</g>
</g>
<!-- Node5&#45;&gt;Node7 -->
<g id="edge7" class="edge"><title>Node5&#45;&gt;Node7</title>
<path fill="none" stroke="midnightblue" d="M617.62,-86C626.202,-86 634.994,-86 643.673,-86"/>
<polygon fill="midnightblue" stroke="midnightblue" points="643.789,-89.5001 653.789,-86 643.789,-82.5001 643.789,-89.5001"/>
</g>
<!-- Node8&#45;&gt;Node6 -->
<g id="edge10" class="edge"><title>Node8&#45;&gt;Node6</title>
<path fill="none" stroke="midnightblue" d="M418.246,-48C478.687,-48 582.799,-48 652.759,-48"/>
<polygon fill="midnightblue" stroke="midnightblue" points="652.824,-51.5001 662.824,-48 652.824,-44.5001 652.824,-51.5001"/>
</g>
<!-- Node9 -->
<g id="node9" class="node"><title>Node9</title>
<g id="a_node9"><a xlink:href="../../d4/d0e/class_browser_model.html#afd48fe0bb4e912c2281ea18754fc8fe2" target="_top" xlink:title="BrowserModel.completeURL">
<polygon fill="white" stroke="black" points="468,-0.5 468,-19.5 618,-19.5 618,-0.5 468,-0.5"/>
<text text-anchor="middle" x="543" y="-7.5" font-family="Helvetica,sans-Serif" font-size="10.00">BrowserModel.completeURL</text>
</a>
</g>
</g>
<!-- Node8&#45;&gt;Node9 -->
<g id="edge9" class="edge"><title>Node8&#45;&gt;Node9</title>
<path fill="none" stroke="midnightblue" d="M413.403,-38.411C436.407,-33.3287 464.851,-27.0446 489.134,-21.6797"/>
<polygon fill="midnightblue" stroke="midnightblue" points="489.9,-25.095 498.909,-19.5201 488.39,-18.2598 489.9,-25.095"/>
</g>
</g>
</svg>
