<?xml version="1.0" encoding="UTF-8" standalone="no"?>
<!DOCTYPE svg PUBLIC "-//W3C//DTD SVG 1.1//EN"
 "http://www.w3.org/Graphics/SVG/1.1/DTD/svg11.dtd">
<!-- Generated by graphviz version 2.36.0 (20140111.2315)
 -->
<!-- Title: BrowserView.makeInputPanel Pages: 1 -->
<svg width="1258pt" height="332pt"
 viewBox="0.00 0.00 1258.00 332.00" xmlns="http://www.w3.org/2000/svg" xmlns:xlink="http://www.w3.org/1999/xlink">
<g id="graph0" class="graph" transform="scale(1 1) rotate(0) translate(4 328)">
<title>BrowserView.makeInputPanel</title>
<polygon fill="white" stroke="none" points="-4,4 -4,-328 1254,-328 1254,4 -4,4"/>
<!-- Node1 -->
<g id="node1" class="node"><title>Node1</title>
<polygon fill="#bfbfbf" stroke="black" points="0.5,-161.5 0.5,-180.5 155.5,-180.5 155.5,-161.5 0.5,-161.5"/>
<text text-anchor="middle" x="78" y="-168.5" font-family="Helvetica,sans-Serif" font-size="10.00">BrowserView.makeInputPanel</text>
</g>
<!-- Node2 -->
<g id="node2" class="node"><title>Node2</title>
<g id="a_node2"><a xlink:href="../../da/dc7/class_browser_view.html#a857540bb858533e7a993f15225a56e79" target="_top" xlink:title="BrowserView.makeNavigation\lPanel">
<polygon fill="white" stroke="black" points="195.5,-204 195.5,-234 352.5,-234 352.5,-204 195.5,-204"/>
<text text-anchor="start" x="203.5" y="-222" font-family="Helvetica,sans-Serif" font-size="10.00">BrowserView.makeNavigation</text>
<text text-anchor="middle" x="274" y="-211" font-family="Helvetica,sans-Serif" font-size="10.00">Panel</text>
</a>
</g>
</g>
<!-- Node1&#45;&gt;Node2 -->
<g id="edge1" class="edge"><title>Node1&#45;&gt;Node2</title>
<path fill="none" stroke="midnightblue" d="M117.793,-180.598C141.927,-186.57 173.691,-194.429 202.193,-201.481"/>
<polygon fill="midnightblue" stroke="midnightblue" points="201.572,-204.933 212.12,-203.937 203.254,-198.138 201.572,-204.933"/>
</g>
<!-- Node19 -->
<g id="node19" class="node"><title>Node19</title>
<g id="a_node19"><a xlink:href="../../da/dc7/class_browser_view.html#a5da1de68c05af5b4999d5169ea8a3cb1" target="_top" xlink:title="BrowserView.makePreferences\lPanel">
<polygon fill="white" stroke="black" points="192.5,-90 192.5,-120 355.5,-120 355.5,-90 192.5,-90"/>
<text text-anchor="start" x="200.5" y="-108" font-family="Helvetica,sans-Serif" font-size="10.00">BrowserView.makePreferences</text>
<text text-anchor="middle" x="274" y="-97" font-family="Helvetica,sans-Serif" font-size="10.00">Panel</text>
</a>
</g>
</g>
<!-- Node1&#45;&gt;Node19 -->
<g id="edge24" class="edge"><title>Node1&#45;&gt;Node19</title>
<path fill="none" stroke="midnightblue" d="M107.209,-161.403C136.315,-151.501 182.445,-135.808 218.664,-123.486"/>
<polygon fill="midnightblue" stroke="midnightblue" points="220.254,-126.641 228.594,-120.107 218,-120.014 220.254,-126.641"/>
</g>
<!-- Node3 -->
<g id="node3" class="node"><title>Node3</title>
<g id="a_node3"><a xlink:href="../../da/dc7/class_browser_view.html#a9f7dc5ce97b315e98a3405f58a1f0e9e" target="_top" xlink:title="BrowserView.makeButton">
<polygon fill="white" stroke="black" points="399,-152.5 399,-171.5 537,-171.5 537,-152.5 399,-152.5"/>
<text text-anchor="middle" x="468" y="-159.5" font-family="Helvetica,sans-Serif" font-size="10.00">BrowserView.makeButton</text>
</a>
</g>
</g>
<!-- Node2&#45;&gt;Node3 -->
<g id="edge2" class="edge"><title>Node2&#45;&gt;Node3</title>
<path fill="none" stroke="midnightblue" d="M325.697,-203.949C356.605,-194.773 395.643,-183.184 424.851,-174.513"/>
<polygon fill="midnightblue" stroke="midnightblue" points="426.152,-177.778 434.742,-171.577 424.16,-171.067 426.152,-177.778"/>
</g>
<!-- Node4 -->
<g id="node4" class="node"><title>Node4</title>
<g id="a_node4"><a xlink:href="../../da/dc7/class_browser_view.html#a6936eb74671b8632e4e361fa00fc74df" target="_top" xlink:title="BrowserView.back">
<polygon fill="white" stroke="black" points="600.5,-228.5 600.5,-247.5 701.5,-247.5 701.5,-228.5 600.5,-228.5"/>
<text text-anchor="middle" x="651" y="-235.5" font-family="Helvetica,sans-Serif" font-size="10.00">BrowserView.back</text>
</a>
</g>
</g>
<!-- Node2&#45;&gt;Node4 -->
<g id="edge3" class="edge"><title>Node2&#45;&gt;Node4</title>
<path fill="none" stroke="midnightblue" d="M352.7,-222.937C423.217,-226.51 525.725,-231.703 590.084,-234.964"/>
<polygon fill="midnightblue" stroke="midnightblue" points="590.302,-238.48 600.466,-235.49 590.656,-231.489 590.302,-238.48"/>
</g>
<!-- Node11 -->
<g id="node11" class="node"><title>Node11</title>
<g id="a_node11"><a xlink:href="../../da/dc7/class_browser_view.html#acd8bc4226c2213dc9ce03cb6e8b4d24c" target="_top" xlink:title="BrowserView.next">
<polygon fill="white" stroke="black" points="601,-190.5 601,-209.5 701,-209.5 701,-190.5 601,-190.5"/>
<text text-anchor="middle" x="651" y="-197.5" font-family="Helvetica,sans-Serif" font-size="10.00">BrowserView.next</text>
</a>
</g>
</g>
<!-- Node2&#45;&gt;Node11 -->
<g id="edge11" class="edge"><title>Node2&#45;&gt;Node11</title>
<path fill="none" stroke="midnightblue" d="M352.7,-215.063C423.318,-211.485 526.021,-206.282 590.362,-203.022"/>
<polygon fill="midnightblue" stroke="midnightblue" points="590.929,-206.498 600.739,-202.496 590.575,-199.506 590.929,-206.498"/>
</g>
<!-- Node13 -->
<g id="node13" class="node"><title>Node13</title>
<g id="a_node13"><a xlink:href="../../da/dc7/class_browser_view.html#a27f780fabcdd2064805f4434fea1a495" target="_top" xlink:title="BrowserView.home">
<polygon fill="white" stroke="black" points="414.5,-266.5 414.5,-285.5 521.5,-285.5 521.5,-266.5 414.5,-266.5"/>
<text text-anchor="middle" x="468" y="-273.5" font-family="Helvetica,sans-Serif" font-size="10.00">BrowserView.home</text>
</a>
</g>
</g>
<!-- Node2&#45;&gt;Node13 -->
<g id="edge15" class="edge"><title>Node2&#45;&gt;Node13</title>
<path fill="none" stroke="midnightblue" d="M325.697,-234.051C356.605,-243.227 395.643,-254.816 424.851,-263.487"/>
<polygon fill="midnightblue" stroke="midnightblue" points="424.16,-266.933 434.742,-266.423 426.152,-260.222 424.16,-266.933"/>
</g>
<!-- Node18 -->
<g id="node18" class="node"><title>Node18</title>
<g id="a_node18"><a xlink:href="../../da/dc7/class_browser_view.html#a2211cf8495fb203235dd74a4fe725ff4" target="_top" xlink:title="BrowserView.makeInputField">
<polygon fill="white" stroke="black" points="392.5,-304.5 392.5,-323.5 543.5,-323.5 543.5,-304.5 392.5,-304.5"/>
<text text-anchor="middle" x="468" y="-311.5" font-family="Helvetica,sans-Serif" font-size="10.00">BrowserView.makeInputField</text>
</a>
</g>
</g>
<!-- Node2&#45;&gt;Node18 -->
<g id="edge23" class="edge"><title>Node2&#45;&gt;Node18</title>
<path fill="none" stroke="midnightblue" d="M294.152,-234.296C316.439,-251.393 354.936,-278.799 392,-295 397.654,-297.471 403.694,-299.668 409.799,-301.608"/>
<polygon fill="midnightblue" stroke="midnightblue" points="408.818,-304.968 419.4,-304.449 410.804,-298.255 408.818,-304.968"/>
</g>
<!-- Node5 -->
<g id="node5" class="node"><title>Node5</title>
<g id="a_node5"><a xlink:href="../../d4/d0e/class_browser_model.html#a48b671d68ebdc1f64cabf275b7c4c70e" target="_top" xlink:title="BrowserModel.back">
<polygon fill="white" stroke="black" points="940.5,-228.5 940.5,-247.5 1049.5,-247.5 1049.5,-228.5 940.5,-228.5"/>
<text text-anchor="middle" x="995" y="-235.5" font-family="Helvetica,sans-Serif" font-size="10.00">BrowserModel.back</text>
</a>
</g>
</g>
<!-- Node4&#45;&gt;Node5 -->
<g id="edge4" class="edge"><title>Node4&#45;&gt;Node5</title>
<path fill="none" stroke="midnightblue" d="M701.73,-238C762.047,-238 863.838,-238 929.966,-238"/>
<polygon fill="midnightblue" stroke="midnightblue" points="930.261,-241.5 940.261,-238 930.261,-234.5 930.261,-241.5"/>
</g>
<!-- Node7 -->
<g id="node7" class="node"><title>Node7</title>
<g id="a_node7"><a xlink:href="../../da/dc7/class_browser_view.html#a34f643e815549bd4340fb49f0865c030" target="_top" xlink:title="BrowserView.update">
<polygon fill="white" stroke="black" points="764.5,-190.5 764.5,-209.5 877.5,-209.5 877.5,-190.5 764.5,-190.5"/>
<text text-anchor="middle" x="821" y="-197.5" font-family="Helvetica,sans-Serif" font-size="10.00">BrowserView.update</text>
</a>
</g>
</g>
<!-- Node4&#45;&gt;Node7 -->
<g id="edge6" class="edge"><title>Node4&#45;&gt;Node7</title>
<path fill="none" stroke="midnightblue" d="M694.393,-228.411C716.763,-223.351 744.398,-217.1 768.047,-211.751"/>
<polygon fill="midnightblue" stroke="midnightblue" points="768.93,-215.14 777.911,-209.52 767.386,-208.313 768.93,-215.14"/>
</g>
<!-- Node6 -->
<g id="node6" class="node"><title>Node6</title>
<g id="a_node6"><a xlink:href="../../d4/d0e/class_browser_model.html#a1026df05417d496ec0630e7b76d9bc5c" target="_top" xlink:title="BrowserModel.hasPrevious">
<polygon fill="white" stroke="black" points="1106,-199.5 1106,-218.5 1250,-218.5 1250,-199.5 1106,-199.5"/>
<text text-anchor="middle" x="1178" y="-206.5" font-family="Helvetica,sans-Serif" font-size="10.00">BrowserModel.hasPrevious</text>
</a>
</g>
</g>
<!-- Node5&#45;&gt;Node6 -->
<g id="edge5" class="edge"><title>Node5&#45;&gt;Node6</title>
<path fill="none" stroke="midnightblue" d="M1049.82,-229.378C1068.01,-226.463 1088.58,-223.167 1107.79,-220.088"/>
<polygon fill="midnightblue" stroke="midnightblue" points="1108.38,-223.54 1117.7,-218.501 1107.27,-216.628 1108.38,-223.54"/>
</g>
<!-- Node8 -->
<g id="node8" class="node"><title>Node8</title>
<g id="a_node8"><a xlink:href="../../da/dc7/class_browser_view.html#a075eb442cd14dfdf391d474164cb5587" target="_top" xlink:title="BrowserView.enableButtons">
<polygon fill="white" stroke="black" points="920.5,-190.5 920.5,-209.5 1069.5,-209.5 1069.5,-190.5 920.5,-190.5"/>
<text text-anchor="middle" x="995" y="-197.5" font-family="Helvetica,sans-Serif" font-size="10.00">BrowserView.enableButtons</text>
</a>
</g>
</g>
<!-- Node7&#45;&gt;Node8 -->
<g id="edge7" class="edge"><title>Node7&#45;&gt;Node8</title>
<path fill="none" stroke="midnightblue" d="M877.843,-200C888.207,-200 899.24,-200 910.225,-200"/>
<polygon fill="midnightblue" stroke="midnightblue" points="910.279,-203.5 920.279,-200 910.279,-196.5 910.279,-203.5"/>
</g>
<!-- Node8&#45;&gt;Node6 -->
<g id="edge10" class="edge"><title>Node8&#45;&gt;Node6</title>
<path fill="none" stroke="midnightblue" d="M1069.62,-203.661C1078.2,-204.087 1086.99,-204.525 1095.67,-204.956"/>
<polygon fill="midnightblue" stroke="midnightblue" points="1095.63,-208.458 1105.79,-205.459 1095.97,-201.467 1095.63,-208.458"/>
</g>
<!-- Node9 -->
<g id="node9" class="node"><title>Node9</title>
<g id="a_node9"><a xlink:href="../../d4/d0e/class_browser_model.html#aef138e6865de073292539cc36ed81d8d" target="_top" xlink:title="BrowserModel.getHome">
<polygon fill="white" stroke="black" points="1112.5,-256.5 1112.5,-275.5 1243.5,-275.5 1243.5,-256.5 1112.5,-256.5"/>
<text text-anchor="middle" x="1178" y="-263.5" font-family="Helvetica,sans-Serif" font-size="10.00">BrowserModel.getHome</text>
</a>
</g>
</g>
<!-- Node8&#45;&gt;Node9 -->
<g id="edge8" class="edge"><title>Node8&#45;&gt;Node9</title>
<path fill="none" stroke="midnightblue" d="M1038.23,-209.58C1048.71,-212.302 1059.85,-215.492 1070,-219 1097.27,-228.421 1127.27,-241.88 1148.54,-251.983"/>
<polygon fill="midnightblue" stroke="midnightblue" points="1147.13,-255.189 1157.66,-256.362 1150.16,-248.878 1147.13,-255.189"/>
</g>
<!-- Node10 -->
<g id="node10" class="node"><title>Node10</title>
<g id="a_node10"><a xlink:href="../../d4/d0e/class_browser_model.html#a8543f3aac30c7f3970509c138f37bfa6" target="_top" xlink:title="BrowserModel.hasNext">
<polygon fill="white" stroke="black" points="1115,-152.5 1115,-171.5 1241,-171.5 1241,-152.5 1115,-152.5"/>
<text text-anchor="middle" x="1178" y="-159.5" font-family="Helvetica,sans-Serif" font-size="10.00">BrowserModel.hasNext</text>
</a>
</g>
</g>
<!-- Node8&#45;&gt;Node10 -->
<g id="edge9" class="edge"><title>Node8&#45;&gt;Node10</title>
<path fill="none" stroke="midnightblue" d="M1041.67,-190.411C1065.99,-185.306 1096.08,-178.989 1121.71,-173.608"/>
<polygon fill="midnightblue" stroke="midnightblue" points="1122.59,-177 1131.65,-171.52 1121.15,-170.149 1122.59,-177"/>
</g>
<!-- Node11&#45;&gt;Node7 -->
<g id="edge12" class="edge"><title>Node11&#45;&gt;Node7</title>
<path fill="none" stroke="midnightblue" d="M701.044,-200C717.641,-200 736.454,-200 754.14,-200"/>
<polygon fill="midnightblue" stroke="midnightblue" points="754.398,-203.5 764.398,-200 754.398,-196.5 754.398,-203.5"/>
</g>
<!-- Node12 -->
<g id="node12" class="node"><title>Node12</title>
<g id="a_node12"><a xlink:href="../../d4/d0e/class_browser_model.html#af6ac28da81c98130778254d039fe3cbb" target="_top" xlink:title="BrowserModel.next">
<polygon fill="white" stroke="black" points="941.5,-152.5 941.5,-171.5 1048.5,-171.5 1048.5,-152.5 941.5,-152.5"/>
<text text-anchor="middle" x="995" y="-159.5" font-family="Helvetica,sans-Serif" font-size="10.00">BrowserModel.next</text>
</a>
</g>
</g>
<!-- Node11&#45;&gt;Node12 -->
<g id="edge13" class="edge"><title>Node11&#45;&gt;Node12</title>
<path fill="none" stroke="midnightblue" d="M699.602,-190.453C717.811,-187.068 738.81,-183.486 758,-181 816.485,-173.422 883.542,-168.371 931.192,-165.394"/>
<polygon fill="midnightblue" stroke="midnightblue" points="931.589,-168.876 941.356,-164.772 931.161,-161.889 931.589,-168.876"/>
</g>
<!-- Node12&#45;&gt;Node10 -->
<g id="edge14" class="edge"><title>Node12&#45;&gt;Node10</title>
<path fill="none" stroke="midnightblue" d="M1048.84,-162C1066.27,-162 1085.97,-162 1104.61,-162"/>
<polygon fill="midnightblue" stroke="midnightblue" points="1104.83,-165.5 1114.83,-162 1104.83,-158.5 1104.83,-165.5"/>
</g>
<!-- Node13&#45;&gt;Node9 -->
<g id="edge16" class="edge"><title>Node13&#45;&gt;Node9</title>
<path fill="none" stroke="midnightblue" d="M521.637,-275.257C646.038,-273.499 958.522,-269.086 1102.38,-267.054"/>
<polygon fill="midnightblue" stroke="midnightblue" points="1102.5,-270.553 1112.44,-266.912 1102.4,-263.553 1102.5,-270.553"/>
</g>
<!-- Node14 -->
<g id="node14" class="node"><title>Node14</title>
<g id="a_node14"><a xlink:href="../../da/dc7/class_browser_view.html#ac654bf4a0eb91d6a9b1cf013e52fc3e5" target="_top" xlink:title="BrowserView.showPage">
<polygon fill="white" stroke="black" points="588,-152.5 588,-171.5 714,-171.5 714,-152.5 588,-152.5"/>
<text text-anchor="middle" x="651" y="-159.5" font-family="Helvetica,sans-Serif" font-size="10.00">BrowserView.showPage</text>
</a>
</g>
</g>
<!-- Node13&#45;&gt;Node14 -->
<g id="edge17" class="edge"><title>Node13&#45;&gt;Node14</title>
<path fill="none" stroke="midnightblue" d="M477.456,-266.328C494.759,-247.14 536.276,-204.124 580,-181 584.296,-178.728 588.888,-176.709 593.588,-174.919"/>
<polygon fill="midnightblue" stroke="midnightblue" points="595.019,-178.128 603.33,-171.557 592.735,-171.511 595.019,-178.128"/>
</g>
<!-- Node14&#45;&gt;Node7 -->
<g id="edge18" class="edge"><title>Node14&#45;&gt;Node7</title>
<path fill="none" stroke="midnightblue" d="M694.393,-171.589C716.763,-176.649 744.398,-182.9 768.047,-188.249"/>
<polygon fill="midnightblue" stroke="midnightblue" points="767.386,-191.687 777.911,-190.48 768.93,-184.86 767.386,-191.687"/>
</g>
<!-- Node15 -->
<g id="node15" class="node"><title>Node15</title>
<g id="a_node15"><a xlink:href="../../d4/d0e/class_browser_model.html#a16df284a0004c149f459b18876491b13" target="_top" xlink:title="BrowserModel.go">
<polygon fill="white" stroke="black" points="772,-38.5 772,-57.5 870,-57.5 870,-38.5 772,-38.5"/>
<text text-anchor="middle" x="821" y="-45.5" font-family="Helvetica,sans-Serif" font-size="10.00">BrowserModel.go</text>
</a>
</g>
</g>
<!-- Node14&#45;&gt;Node15 -->
<g id="edge19" class="edge"><title>Node14&#45;&gt;Node15</title>
<path fill="none" stroke="midnightblue" d="M700.862,-152.459C708.224,-149.979 715.515,-146.876 722,-143 741.969,-131.064 741.427,-121.327 758,-105 772.184,-91.027 788.821,-75.7915 801.288,-64.5901"/>
<polygon fill="midnightblue" stroke="midnightblue" points="803.687,-67.1395 808.81,-57.8655 799.022,-61.9206 803.687,-67.1395"/>
</g>
<!-- Node17 -->
<g id="node17" class="node"><title>Node17</title>
<g id="a_node17"><a xlink:href="../../da/dc7/class_browser_view.html#a50820a4578ff7cacb849e7886aa75b13" target="_top" xlink:title="BrowserView.showError">
<polygon fill="white" stroke="black" points="758,-114.5 758,-133.5 884,-133.5 884,-114.5 758,-114.5"/>
<text text-anchor="middle" x="821" y="-121.5" font-family="Helvetica,sans-Serif" font-size="10.00">BrowserView.showError</text>
</a>
</g>
</g>
<!-- Node14&#45;&gt;Node17 -->
<g id="edge22" class="edge"><title>Node14&#45;&gt;Node17</title>
<path fill="none" stroke="midnightblue" d="M694.393,-152.411C716.763,-147.351 744.398,-141.1 768.047,-135.751"/>
<polygon fill="midnightblue" stroke="midnightblue" points="768.93,-139.14 777.911,-133.52 767.386,-132.313 768.93,-139.14"/>
</g>
<!-- Node15&#45;&gt;Node10 -->
<g id="edge21" class="edge"><title>Node15&#45;&gt;Node10</title>
<path fill="none" stroke="midnightblue" d="M870.28,-42.8484C921.872,-39.322 1005.01,-39.4241 1070,-67 1109.77,-83.8743 1144.89,-121.666 1163.32,-144.166"/>
<polygon fill="midnightblue" stroke="midnightblue" points="1160.78,-146.595 1169.75,-152.234 1166.25,-142.232 1160.78,-146.595"/>
</g>
<!-- Node16 -->
<g id="node16" class="node"><title>Node16</title>
<g id="a_node16"><a xlink:href="../../d4/d0e/class_browser_model.html#afd48fe0bb4e912c2281ea18754fc8fe2" target="_top" xlink:title="BrowserModel.completeURL">
<polygon fill="white" stroke="black" points="920,-76.5 920,-95.5 1070,-95.5 1070,-76.5 920,-76.5"/>
<text text-anchor="middle" x="995" y="-83.5" font-family="Helvetica,sans-Serif" font-size="10.00">BrowserModel.completeURL</text>
</a>
</g>
</g>
<!-- Node15&#45;&gt;Node16 -->
<g id="edge20" class="edge"><title>Node15&#45;&gt;Node16</title>
<path fill="none" stroke="midnightblue" d="M865.403,-57.589C888.407,-62.6713 916.851,-68.9554 941.134,-74.3203"/>
<polygon fill="midnightblue" stroke="midnightblue" points="940.39,-77.7402 950.909,-76.4799 941.9,-70.905 940.39,-77.7402"/>
</g>
<!-- Node19&#45;&gt;Node3 -->
<g id="edge28" class="edge"><title>Node19&#45;&gt;Node3</title>
<path fill="none" stroke="midnightblue" d="M318.957,-120.036C340.811,-127.317 367.685,-135.98 392,-143 400.162,-145.357 408.87,-147.709 417.354,-149.914"/>
<polygon fill="midnightblue" stroke="midnightblue" points="416.611,-153.337 427.167,-152.428 418.348,-146.556 416.611,-153.337"/>
</g>
<!-- Node19&#45;&gt;Node8 -->
<g id="edge32" class="edge"><title>Node19&#45;&gt;Node8</title>
<path fill="none" stroke="midnightblue" d="M355.775,-94.6238C500.891,-77.6507 798.566,-50.935 884,-105 915.583,-124.987 891.171,-157.213 920,-181 922.059,-182.699 924.252,-184.248 926.544,-185.661"/>
<polygon fill="midnightblue" stroke="midnightblue" points="925.32,-188.968 935.81,-190.459 928.539,-182.752 925.32,-188.968"/>
</g>
<!-- Node20 -->
<g id="node20" class="node"><title>Node20</title>
<g id="a_node20"><a xlink:href="../../da/dc7/class_browser_view.html#a5eb25d6d929e3bf06fbc98aad4dfe990" target="_top" xlink:title="BrowserView.showFavorite">
<polygon fill="white" stroke="black" points="398,-114.5 398,-133.5 538,-133.5 538,-114.5 398,-114.5"/>
<text text-anchor="middle" x="468" y="-121.5" font-family="Helvetica,sans-Serif" font-size="10.00">BrowserView.showFavorite</text>
</a>
</g>
</g>
<!-- Node19&#45;&gt;Node20 -->
<g id="edge25" class="edge"><title>Node19&#45;&gt;Node20</title>
<path fill="none" stroke="midnightblue" d="M355.591,-112.975C366.245,-114.029 377.159,-115.11 387.79,-116.162"/>
<polygon fill="midnightblue" stroke="midnightblue" points="387.582,-119.658 397.878,-117.16 388.271,-112.692 387.582,-119.658"/>
</g>
<!-- Node22 -->
<g id="node22" class="node"><title>Node22</title>
<g id="a_node22"><a xlink:href="../../da/dc7/class_browser_view.html#ae2f24f59bc3b1c41a3b85698ed3c37e3" target="_top" xlink:title="BrowserView.addFavorite">
<polygon fill="white" stroke="black" points="401,-38.5 401,-57.5 535,-57.5 535,-38.5 401,-38.5"/>
<text text-anchor="middle" x="468" y="-45.5" font-family="Helvetica,sans-Serif" font-size="10.00">BrowserView.addFavorite</text>
</a>
</g>
</g>
<!-- Node19&#45;&gt;Node22 -->
<g id="edge29" class="edge"><title>Node19&#45;&gt;Node22</title>
<path fill="none" stroke="midnightblue" d="M325.697,-89.9494C356.605,-80.7734 395.643,-69.1841 424.851,-60.5131"/>
<polygon fill="midnightblue" stroke="midnightblue" points="426.152,-63.7779 434.742,-57.5765 424.16,-57.0673 426.152,-63.7779"/>
</g>
<!-- Node24 -->
<g id="node24" class="node"><title>Node24</title>
<g id="a_node24"><a xlink:href="../../d4/d0e/class_browser_model.html#a980e06d7d1e4a934303ca5ff1ea98d20" target="_top" xlink:title="BrowserModel.setHome">
<polygon fill="white" stroke="black" points="402.5,-0.5 402.5,-19.5 533.5,-19.5 533.5,-0.5 402.5,-0.5"/>
<text text-anchor="middle" x="468" y="-7.5" font-family="Helvetica,sans-Serif" font-size="10.00">BrowserModel.setHome</text>
</a>
</g>
</g>
<!-- Node19&#45;&gt;Node24 -->
<g id="edge31" class="edge"><title>Node19&#45;&gt;Node24</title>
<path fill="none" stroke="midnightblue" d="M294.152,-89.7043C316.439,-72.6071 354.936,-45.2015 392,-29 397.654,-26.5286 403.694,-24.3323 409.799,-22.392"/>
<polygon fill="midnightblue" stroke="midnightblue" points="410.804,-25.7446 419.4,-19.551 408.818,-19.0323 410.804,-25.7446"/>
</g>
<!-- Node20&#45;&gt;Node14 -->
<g id="edge26" class="edge"><title>Node20&#45;&gt;Node14</title>
<path fill="none" stroke="midnightblue" d="M514.674,-133.589C538.989,-138.694 569.08,-145.011 594.708,-150.392"/>
<polygon fill="midnightblue" stroke="midnightblue" points="594.149,-153.851 604.654,-152.48 595.587,-147 594.149,-153.851"/>
</g>
<!-- Node21 -->
<g id="node21" class="node"><title>Node21</title>
<g id="a_node21"><a xlink:href="../../d4/d0e/class_browser_model.html#a30c5eef3b38c5fadf0ec8ec633957cad" target="_top" xlink:title="BrowserModel.getFavorite">
<polygon fill="white" stroke="black" points="581,-114.5 581,-133.5 721,-133.5 721,-114.5 581,-114.5"/>
<text text-anchor="middle" x="651" y="-121.5" font-family="Helvetica,sans-Serif" font-size="10.00">BrowserModel.getFavorite</text>
</a>
</g>
</g>
<!-- Node20&#45;&gt;Node21 -->
<g id="edge27" class="edge"><title>Node20&#45;&gt;Node21</title>
<path fill="none" stroke="midnightblue" d="M538.203,-124C548.791,-124 559.791,-124 570.579,-124"/>
<polygon fill="midnightblue" stroke="midnightblue" points="570.835,-127.5 580.835,-124 570.835,-120.5 570.835,-127.5"/>
</g>
<!-- Node23 -->
<g id="node23" class="node"><title>Node23</title>
<g id="a_node23"><a xlink:href="../../d4/d0e/class_browser_model.html#a9b87835ef281535bb5c37c84280b655e" target="_top" xlink:title="BrowserModel.addFavorite">
<polygon fill="white" stroke="black" points="580,-38.5 580,-57.5 722,-57.5 722,-38.5 580,-38.5"/>
<text text-anchor="middle" x="651" y="-45.5" font-family="Helvetica,sans-Serif" font-size="10.00">BrowserModel.addFavorite</text>
</a>
</g>
</g>
<!-- Node22&#45;&gt;Node23 -->
<g id="edge30" class="edge"><title>Node22&#45;&gt;Node23</title>
<path fill="none" stroke="midnightblue" d="M535.113,-48C546.361,-48 558.151,-48 569.716,-48"/>
<polygon fill="midnightblue" stroke="midnightblue" points="569.802,-51.5001 579.802,-48 569.802,-44.5001 569.802,-51.5001"/>
</g>
</g>
</svg>
