<?xml version="1.0" encoding="UTF-8" standalone="no"?>
<!DOCTYPE svg PUBLIC "-//W3C//DTD SVG 1.1//EN"
 "http://www.w3.org/Graphics/SVG/1.1/DTD/svg11.dtd">
<!-- Generated by graphviz version 2.36.0 (20140111.2315)
 -->
<!-- Title: BrowserView.showPage Pages: 1 -->
<svg width="662pt" height="142pt"
 viewBox="0.00 0.00 662.00 142.00" xmlns="http://www.w3.org/2000/svg" xmlns:xlink="http://www.w3.org/1999/xlink">
<g id="graph0" class="graph" transform="scale(1 1) rotate(0) translate(4 138)">
<title>BrowserView.showPage</title>
<polygon fill="white" stroke="none" points="-4,4 -4,-138 658,-138 658,4 -4,4"/>
<!-- Node1 -->
<g id="node1" class="node"><title>Node1</title>
<polygon fill="#bfbfbf" stroke="black" points="0,-76.5 0,-95.5 126,-95.5 126,-76.5 0,-76.5"/>
<text text-anchor="middle" x="63" y="-83.5" font-family="Helvetica,sans-Serif" font-size="10.00">BrowserView.showPage</text>
</g>
<!-- Node2 -->
<g id="node2" class="node"><title>Node2</title>
<g id="a_node2"><a xlink:href="../../d4/d0e/class_browser_model.html#a16df284a0004c149f459b18876491b13" target="_top" xlink:title="BrowserModel.go">
<polygon fill="white" stroke="black" points="176,-114.5 176,-133.5 274,-133.5 274,-114.5 176,-114.5"/>
<text text-anchor="middle" x="225" y="-121.5" font-family="Helvetica,sans-Serif" font-size="10.00">BrowserModel.go</text>
</a>
</g>
</g>
<!-- Node1&#45;&gt;Node2 -->
<g id="edge1" class="edge"><title>Node1&#45;&gt;Node2</title>
<path fill="none" stroke="midnightblue" d="M104.375,-95.589C125.488,-100.604 151.529,-106.788 173.917,-112.105"/>
<polygon fill="midnightblue" stroke="midnightblue" points="173.377,-115.574 183.916,-114.48 174.995,-108.764 173.377,-115.574"/>
</g>
<!-- Node5 -->
<g id="node5" class="node"><title>Node5</title>
<g id="a_node5"><a xlink:href="../../da/dc7/class_browser_view.html#a50820a4578ff7cacb849e7886aa75b13" target="_top" xlink:title="BrowserView.showError">
<polygon fill="white" stroke="black" points="162,-76.5 162,-95.5 288,-95.5 288,-76.5 162,-76.5"/>
<text text-anchor="middle" x="225" y="-83.5" font-family="Helvetica,sans-Serif" font-size="10.00">BrowserView.showError</text>
</a>
</g>
</g>
<!-- Node1&#45;&gt;Node5 -->
<g id="edge4" class="edge"><title>Node1&#45;&gt;Node5</title>
<path fill="none" stroke="midnightblue" d="M126.318,-86C134.615,-86 143.179,-86 151.628,-86"/>
<polygon fill="midnightblue" stroke="midnightblue" points="151.852,-89.5001 161.852,-86 151.852,-82.5001 151.852,-89.5001"/>
</g>
<!-- Node6 -->
<g id="node6" class="node"><title>Node6</title>
<g id="a_node6"><a xlink:href="../../da/dc7/class_browser_view.html#a34f643e815549bd4340fb49f0865c030" target="_top" xlink:title="BrowserView.update">
<polygon fill="white" stroke="black" points="168.5,-38.5 168.5,-57.5 281.5,-57.5 281.5,-38.5 168.5,-38.5"/>
<text text-anchor="middle" x="225" y="-45.5" font-family="Helvetica,sans-Serif" font-size="10.00">BrowserView.update</text>
</a>
</g>
</g>
<!-- Node1&#45;&gt;Node6 -->
<g id="edge5" class="edge"><title>Node1&#45;&gt;Node6</title>
<path fill="none" stroke="midnightblue" d="M104.375,-76.411C125.488,-71.3965 151.529,-65.2119 173.917,-59.8947"/>
<polygon fill="midnightblue" stroke="midnightblue" points="174.995,-63.2361 183.916,-57.5201 173.377,-56.4256 174.995,-63.2361"/>
</g>
<!-- Node3 -->
<g id="node3" class="node"><title>Node3</title>
<g id="a_node3"><a xlink:href="../../d4/d0e/class_browser_model.html#afd48fe0bb4e912c2281ea18754fc8fe2" target="_top" xlink:title="BrowserModel.completeURL">
<polygon fill="white" stroke="black" points="324,-114.5 324,-133.5 474,-133.5 474,-114.5 324,-114.5"/>
<text text-anchor="middle" x="399" y="-121.5" font-family="Helvetica,sans-Serif" font-size="10.00">BrowserModel.completeURL</text>
</a>
</g>
</g>
<!-- Node2&#45;&gt;Node3 -->
<g id="edge2" class="edge"><title>Node2&#45;&gt;Node3</title>
<path fill="none" stroke="midnightblue" d="M274.369,-124C286.642,-124 300.188,-124 313.68,-124"/>
<polygon fill="midnightblue" stroke="midnightblue" points="313.964,-127.5 323.964,-124 313.964,-120.5 313.964,-127.5"/>
</g>
<!-- Node4 -->
<g id="node4" class="node"><title>Node4</title>
<g id="a_node4"><a xlink:href="../../d4/d0e/class_browser_model.html#a8543f3aac30c7f3970509c138f37bfa6" target="_top" xlink:title="BrowserModel.hasNext">
<polygon fill="white" stroke="black" points="519,-76.5 519,-95.5 645,-95.5 645,-76.5 519,-76.5"/>
<text text-anchor="middle" x="582" y="-83.5" font-family="Helvetica,sans-Serif" font-size="10.00">BrowserModel.hasNext</text>
</a>
</g>
</g>
<!-- Node2&#45;&gt;Node4 -->
<g id="edge3" class="edge"><title>Node2&#45;&gt;Node4</title>
<path fill="none" stroke="midnightblue" d="M269.238,-114.479C286.235,-111.036 305.963,-107.407 324,-105 386.155,-96.7065 457.285,-91.7991 508.933,-89.056"/>
<polygon fill="midnightblue" stroke="midnightblue" points="509.188,-92.5476 518.994,-88.5359 508.827,-85.5569 509.188,-92.5476"/>
</g>
<!-- Node7 -->
<g id="node7" class="node"><title>Node7</title>
<g id="a_node7"><a xlink:href="../../da/dc7/class_browser_view.html#a075eb442cd14dfdf391d474164cb5587" target="_top" xlink:title="BrowserView.enableButtons">
<polygon fill="white" stroke="black" points="324.5,-38.5 324.5,-57.5 473.5,-57.5 473.5,-38.5 324.5,-38.5"/>
<text text-anchor="middle" x="399" y="-45.5" font-family="Helvetica,sans-Serif" font-size="10.00">BrowserView.enableButtons</text>
</a>
</g>
</g>
<!-- Node6&#45;&gt;Node7 -->
<g id="edge6" class="edge"><title>Node6&#45;&gt;Node7</title>
<path fill="none" stroke="midnightblue" d="M281.843,-48C292.207,-48 303.24,-48 314.225,-48"/>
<polygon fill="midnightblue" stroke="midnightblue" points="314.279,-51.5001 324.279,-48 314.279,-44.5001 314.279,-51.5001"/>
</g>
<!-- Node7&#45;&gt;Node4 -->
<g id="edge8" class="edge"><title>Node7&#45;&gt;Node4</title>
<path fill="none" stroke="midnightblue" d="M445.674,-57.589C469.989,-62.6939 500.08,-69.0113 525.708,-74.3918"/>
<polygon fill="midnightblue" stroke="midnightblue" points="525.149,-77.8505 535.654,-76.4799 526.587,-70.9999 525.149,-77.8505"/>
</g>
<!-- Node8 -->
<g id="node8" class="node"><title>Node8</title>
<g id="a_node8"><a xlink:href="../../d4/d0e/class_browser_model.html#aef138e6865de073292539cc36ed81d8d" target="_top" xlink:title="BrowserModel.getHome">
<polygon fill="white" stroke="black" points="516.5,-38.5 516.5,-57.5 647.5,-57.5 647.5,-38.5 516.5,-38.5"/>
<text text-anchor="middle" x="582" y="-45.5" font-family="Helvetica,sans-Serif" font-size="10.00">BrowserModel.getHome</text>
</a>
</g>
</g>
<!-- Node7&#45;&gt;Node8 -->
<g id="edge7" class="edge"><title>Node7&#45;&gt;Node8</title>
<path fill="none" stroke="midnightblue" d="M473.62,-48C484.374,-48 495.458,-48 506.236,-48"/>
<polygon fill="midnightblue" stroke="midnightblue" points="506.453,-51.5001 516.453,-48 506.453,-44.5001 506.453,-51.5001"/>
</g>
<!-- Node9 -->
<g id="node9" class="node"><title>Node9</title>
<g id="a_node9"><a xlink:href="../../d4/d0e/class_browser_model.html#a1026df05417d496ec0630e7b76d9bc5c" target="_top" xlink:title="BrowserModel.hasPrevious">
<polygon fill="white" stroke="black" points="510,-0.5 510,-19.5 654,-19.5 654,-0.5 510,-0.5"/>
<text text-anchor="middle" x="582" y="-7.5" font-family="Helvetica,sans-Serif" font-size="10.00">BrowserModel.hasPrevious</text>
</a>
</g>
</g>
<!-- Node7&#45;&gt;Node9 -->
<g id="edge9" class="edge"><title>Node7&#45;&gt;Node9</title>
<path fill="none" stroke="midnightblue" d="M445.674,-38.411C469.989,-33.3061 500.08,-26.9887 525.708,-21.6082"/>
<polygon fill="midnightblue" stroke="midnightblue" points="526.587,-25.0001 535.654,-19.5201 525.149,-18.1495 526.587,-25.0001"/>
</g>
</g>
</svg>
