<?xml version="1.0" encoding="UTF-8" standalone="no"?>
<!DOCTYPE svg PUBLIC "-//W3C//DTD SVG 1.1//EN"
 "http://www.w3.org/Graphics/SVG/1.1/DTD/svg11.dtd">
<!-- Generated by graphviz version 2.36.0 (20140111.2315)
 -->
<!-- Title: BrowserView.showFavorite Pages: 1 -->
<!--zoomable 142 -->
<svg id="main" version="1.1" xmlns="http://www.w3.org/2000/svg" xmlns:xlink="http://www.w3.org/1999/xlink" xml:space="preserve" onload="init(evt)">
<style type="text/css"><![CDATA[
.edge:hover path { stroke: red; }
.edge:hover polygon { stroke: red; fill: red; }
]]></style>
<script type="text/javascript"><![CDATA[
var edges = document.getElementsByTagName('g');
if (edges && edges.length) {
  for (var i=0;i<edges.length;i++) {
    if (edges[i].id.substr(0,4)=='edge') {
      edges[i].setAttribute('class','edge');
    }
  }
}
]]></script>
        <defs>
                <circle id="rim" cx="0" cy="0" r="7"/>
                <circle id="rim2" cx="0" cy="0" r="3.5"/>
                <g id="zoomPlus">
                        <use xlink:href="#rim" fill="#404040">
                                <set attributeName="fill" to="#808080" begin="zoomplus.mouseover" end="zoomplus.mouseout"/>
                        </use>
                        <path d="M-4,0h8M0,-4v8" fill="none" stroke="white" stroke-width="1.5" pointer-events="none"/>
                </g>
                <g id="zoomMin">
                        <use xlink:href="#rim" fill="#404040">
                                <set attributeName="fill" to="#808080" begin="zoomminus.mouseover" end="zoomminus.mouseout"/>
                        </use>
                        <path d="M-4,0h8" fill="none" stroke="white" stroke-width="1.5" pointer-events="none"/>
                </g>
                <g id="dirArrow">
                        <path fill="none" stroke="white" stroke-width="1.5" d="M0,-3.0v7 M-2.5,-0.5L0,-3.0L2.5,-0.5"/>
                </g>
               <g id="resetDef">
                       <use xlink:href="#rim2" fill="#404040">
                               <set attributeName="fill" to="#808080" begin="reset.mouseover" end="reset.mouseout"/>
                       </use>
               </g>
        </defs>

<script type="text/javascript">
var viewWidth = 852;
var viewHeight = 142;
var sectionId = 'dynsection-24';
</script>
<script xlink:href="../../svgpan.js"/>
<svg id="graph" class="graph">
<g id="viewport">
<title>BrowserView.showFavorite</title>
<polygon fill="white" stroke="none" points="-4,4 -4,-138 848,-138 848,4 -4,4"/>
<!-- Node1 -->
<g id="node1" class="node"><title>Node1</title>
<polygon fill="#bfbfbf" stroke="black" points="0,-57.5 0,-76.5 140,-76.5 140,-57.5 0,-57.5"/>
<text text-anchor="middle" x="70" y="-64.5" font-family="Helvetica,sans-Serif" font-size="10.00">BrowserView.showFavorite</text>
</g>
<!-- Node2 -->
<g id="node2" class="node"><title>Node2</title>
<g id="a_node2"><a xlink:href="../../d4/d0e/class_browser_model.html#a30c5eef3b38c5fadf0ec8ec633957cad" target="_top" xlink:title="BrowserModel.getFavorite">
<polygon fill="white" stroke="black" points="176,-76.5 176,-95.5 316,-95.5 316,-76.5 176,-76.5"/>
<text text-anchor="middle" x="246" y="-83.5" font-family="Helvetica,sans-Serif" font-size="10.00">BrowserModel.getFavorite</text>
</a>
</g>
</g>
<!-- Node1&#45;&gt;Node2 -->
<g id="edge1" class="edge"><title>Node1&#45;&gt;Node2</title>
<path fill="none" stroke="midnightblue" d="M140.019,-74.5366C148.476,-75.46 157.169,-76.4093 165.761,-77.3474"/>
<polygon fill="midnightblue" stroke="midnightblue" points="165.459,-80.8352 175.779,-78.4414 166.219,-73.8765 165.459,-80.8352"/>
</g>
<!-- Node3 -->
<g id="node3" class="node"><title>Node3</title>
<g id="a_node3"><a xlink:href="../../da/dc7/class_browser_view.html#ac654bf4a0eb91d6a9b1cf013e52fc3e5" target="_top" xlink:title="BrowserView.showPage">
<polygon fill="white" stroke="black" points="183,-38.5 183,-57.5 309,-57.5 309,-38.5 183,-38.5"/>
<text text-anchor="middle" x="246" y="-45.5" font-family="Helvetica,sans-Serif" font-size="10.00">BrowserView.showPage</text>
</a>
</g>
</g>
<!-- Node1&#45;&gt;Node3 -->
<g id="edge2" class="edge"><title>Node1&#45;&gt;Node3</title>
<path fill="none" stroke="midnightblue" d="M140.019,-59.4634C150.733,-58.2935 161.827,-57.0821 172.612,-55.9044"/>
<polygon fill="midnightblue" stroke="midnightblue" points="173.275,-59.3529 182.836,-54.788 172.515,-52.3943 173.275,-59.3529"/>
</g>
<!-- Node4 -->
<g id="node4" class="node"><title>Node4</title>
<g id="a_node4"><a xlink:href="../../da/dc7/class_browser_view.html#a34f643e815549bd4340fb49f0865c030" target="_top" xlink:title="BrowserView.update">
<polygon fill="white" stroke="black" points="358.5,-76.5 358.5,-95.5 471.5,-95.5 471.5,-76.5 358.5,-76.5"/>
<text text-anchor="middle" x="415" y="-83.5" font-family="Helvetica,sans-Serif" font-size="10.00">BrowserView.update</text>
</a>
</g>
</g>
<!-- Node3&#45;&gt;Node4 -->
<g id="edge3" class="edge"><title>Node3&#45;&gt;Node4</title>
<path fill="none" stroke="midnightblue" d="M289.141,-57.589C311.377,-62.6487 338.848,-68.8996 362.356,-74.2488"/>
<polygon fill="midnightblue" stroke="midnightblue" points="361.635,-77.6739 372.162,-76.4799 363.188,-70.8484 361.635,-77.6739"/>
</g>
<!-- Node9 -->
<g id="node9" class="node"><title>Node9</title>
<g id="a_node9"><a xlink:href="../../d4/d0e/class_browser_model.html#a16df284a0004c149f459b18876491b13" target="_top" xlink:title="BrowserModel.go">
<polygon fill="white" stroke="black" points="366,-38.5 366,-57.5 464,-57.5 464,-38.5 366,-38.5"/>
<text text-anchor="middle" x="415" y="-45.5" font-family="Helvetica,sans-Serif" font-size="10.00">BrowserModel.go</text>
</a>
</g>
</g>
<!-- Node3&#45;&gt;Node9 -->
<g id="edge8" class="edge"><title>Node3&#45;&gt;Node9</title>
<path fill="none" stroke="midnightblue" d="M309.185,-48C324.405,-48 340.638,-48 355.67,-48"/>
<polygon fill="midnightblue" stroke="midnightblue" points="355.858,-51.5001 365.858,-48 355.858,-44.5001 355.858,-51.5001"/>
</g>
<!-- Node11 -->
<g id="node11" class="node"><title>Node11</title>
<g id="a_node11"><a xlink:href="../../da/dc7/class_browser_view.html#a50820a4578ff7cacb849e7886aa75b13" target="_top" xlink:title="BrowserView.showError">
<polygon fill="white" stroke="black" points="352,-0.5 352,-19.5 478,-19.5 478,-0.5 352,-0.5"/>
<text text-anchor="middle" x="415" y="-7.5" font-family="Helvetica,sans-Serif" font-size="10.00">BrowserView.showError</text>
</a>
</g>
</g>
<!-- Node3&#45;&gt;Node11 -->
<g id="edge11" class="edge"><title>Node3&#45;&gt;Node11</title>
<path fill="none" stroke="midnightblue" d="M289.141,-38.411C311.377,-33.3513 338.848,-27.1004 362.356,-21.7512"/>
<polygon fill="midnightblue" stroke="midnightblue" points="363.188,-25.1516 372.162,-19.5201 361.635,-18.3261 363.188,-25.1516"/>
</g>
<!-- Node5 -->
<g id="node5" class="node"><title>Node5</title>
<g id="a_node5"><a xlink:href="../../da/dc7/class_browser_view.html#a075eb442cd14dfdf391d474164cb5587" target="_top" xlink:title="BrowserView.enableButtons">
<polygon fill="white" stroke="black" points="514.5,-76.5 514.5,-95.5 663.5,-95.5 663.5,-76.5 514.5,-76.5"/>
<text text-anchor="middle" x="589" y="-83.5" font-family="Helvetica,sans-Serif" font-size="10.00">BrowserView.enableButtons</text>
</a>
</g>
</g>
<!-- Node4&#45;&gt;Node5 -->
<g id="edge4" class="edge"><title>Node4&#45;&gt;Node5</title>
<path fill="none" stroke="midnightblue" d="M471.843,-86C482.207,-86 493.24,-86 504.225,-86"/>
<polygon fill="midnightblue" stroke="midnightblue" points="504.279,-89.5001 514.279,-86 504.279,-82.5001 504.279,-89.5001"/>
</g>
<!-- Node6 -->
<g id="node6" class="node"><title>Node6</title>
<g id="a_node6"><a xlink:href="../../d4/d0e/class_browser_model.html#aef138e6865de073292539cc36ed81d8d" target="_top" xlink:title="BrowserModel.getHome">
<polygon fill="white" stroke="black" points="706.5,-114.5 706.5,-133.5 837.5,-133.5 837.5,-114.5 706.5,-114.5"/>
<text text-anchor="middle" x="772" y="-121.5" font-family="Helvetica,sans-Serif" font-size="10.00">BrowserModel.getHome</text>
</a>
</g>
</g>
<!-- Node5&#45;&gt;Node6 -->
<g id="edge5" class="edge"><title>Node5&#45;&gt;Node6</title>
<path fill="none" stroke="midnightblue" d="M635.674,-95.589C659.989,-100.694 690.08,-107.011 715.708,-112.392"/>
<polygon fill="midnightblue" stroke="midnightblue" points="715.149,-115.851 725.654,-114.48 716.587,-109 715.149,-115.851"/>
</g>
<!-- Node7 -->
<g id="node7" class="node"><title>Node7</title>
<g id="a_node7"><a xlink:href="../../d4/d0e/class_browser_model.html#a8543f3aac30c7f3970509c138f37bfa6" target="_top" xlink:title="BrowserModel.hasNext">
<polygon fill="white" stroke="black" points="709,-38.5 709,-57.5 835,-57.5 835,-38.5 709,-38.5"/>
<text text-anchor="middle" x="772" y="-45.5" font-family="Helvetica,sans-Serif" font-size="10.00">BrowserModel.hasNext</text>
</a>
</g>
</g>
<!-- Node5&#45;&gt;Node7 -->
<g id="edge6" class="edge"><title>Node5&#45;&gt;Node7</title>
<path fill="none" stroke="midnightblue" d="M635.674,-76.411C659.989,-71.3061 690.08,-64.9887 715.708,-59.6082"/>
<polygon fill="midnightblue" stroke="midnightblue" points="716.587,-63.0001 725.654,-57.5201 715.149,-56.1495 716.587,-63.0001"/>
</g>
<!-- Node8 -->
<g id="node8" class="node"><title>Node8</title>
<g id="a_node8"><a xlink:href="../../d4/d0e/class_browser_model.html#a1026df05417d496ec0630e7b76d9bc5c" target="_top" xlink:title="BrowserModel.hasPrevious">
<polygon fill="white" stroke="black" points="700,-76.5 700,-95.5 844,-95.5 844,-76.5 700,-76.5"/>
<text text-anchor="middle" x="772" y="-83.5" font-family="Helvetica,sans-Serif" font-size="10.00">BrowserModel.hasPrevious</text>
</a>
</g>
</g>
<!-- Node5&#45;&gt;Node8 -->
<g id="edge7" class="edge"><title>Node5&#45;&gt;Node8</title>
<path fill="none" stroke="midnightblue" d="M663.62,-86C672.202,-86 680.994,-86 689.673,-86"/>
<polygon fill="midnightblue" stroke="midnightblue" points="689.789,-89.5001 699.789,-86 689.789,-82.5001 689.789,-89.5001"/>
</g>
<!-- Node9&#45;&gt;Node7 -->
<g id="edge10" class="edge"><title>Node9&#45;&gt;Node7</title>
<path fill="none" stroke="midnightblue" d="M464.246,-48C524.687,-48 628.799,-48 698.759,-48"/>
<polygon fill="midnightblue" stroke="midnightblue" points="698.824,-51.5001 708.824,-48 698.824,-44.5001 698.824,-51.5001"/>
</g>
<!-- Node10 -->
<g id="node10" class="node"><title>Node10</title>
<g id="a_node10"><a xlink:href="../../d4/d0e/class_browser_model.html#afd48fe0bb4e912c2281ea18754fc8fe2" target="_top" xlink:title="BrowserModel.completeURL">
<polygon fill="white" stroke="black" points="514,-0.5 514,-19.5 664,-19.5 664,-0.5 514,-0.5"/>
<text text-anchor="middle" x="589" y="-7.5" font-family="Helvetica,sans-Serif" font-size="10.00">BrowserModel.completeURL</text>
</a>
</g>
</g>
<!-- Node9&#45;&gt;Node10 -->
<g id="edge9" class="edge"><title>Node9&#45;&gt;Node10</title>
<path fill="none" stroke="midnightblue" d="M459.403,-38.411C482.407,-33.3287 510.851,-27.0446 535.134,-21.6797"/>
<polygon fill="midnightblue" stroke="midnightblue" points="535.9,-25.095 544.909,-19.5201 534.39,-18.2598 535.9,-25.095"/>
</g>
</g>
</svg>
        <g id="navigator" transform="translate(0 0)" fill="#404254">
                <rect fill="#f2f5e9" fill-opacity="0.5" stroke="#606060" stroke-width=".5" x="0" y="0" width="60" height="60"/>
                <use id="zoomplus" xlink:href="#zoomPlus" x="17" y="9" onmousedown="handleZoom(evt,'in')"/>
                <use id="zoomminus" xlink:href="#zoomMin" x="42" y="9" onmousedown="handleZoom(evt,'out')"/>
                <use id="reset" xlink:href="#resetDef" x="30" y="36" onmousedown="handleReset()"/>
                <g id="arrowUp" xlink:href="#dirArrow" transform="translate(30 24)" onmousedown="handlePan(0,-1)">
                  <use xlink:href="#rim" fill="#404040">
                        <set attributeName="fill" to="#808080" begin="arrowUp.mouseover" end="arrowUp.mouseout"/>
                  </use>
                  <path fill="none" stroke="white" stroke-width="1.5" d="M0,-3.0v7 M-2.5,-0.5L0,-3.0L2.5,-0.5"/>
                </g>
                <g id="arrowRight" xlink:href="#dirArrow" transform="rotate(90) translate(36 -43)" onmousedown="handlePan(1,0)">
                  <use xlink:href="#rim" fill="#404040">
                        <set attributeName="fill" to="#808080" begin="arrowRight.mouseover" end="arrowRight.mouseout"/>
                  </use>
                  <path fill="none" stroke="white" stroke-width="1.5" d="M0,-3.0v7 M-2.5,-0.5L0,-3.0L2.5,-0.5"/>
                </g>
                <g id="arrowDown" xlink:href="#dirArrow" transform="rotate(180) translate(-30 -48)" onmousedown="handlePan(0,1)">
                  <use xlink:href="#rim" fill="#404040">
                        <set attributeName="fill" to="#808080" begin="arrowDown.mouseover" end="arrowDown.mouseout"/>
                  </use>
                  <path fill="none" stroke="white" stroke-width="1.5" d="M0,-3.0v7 M-2.5,-0.5L0,-3.0L2.5,-0.5"/>
                </g>
                <g id="arrowLeft" xlink:href="#dirArrow" transform="rotate(270) translate(-36 17)" onmousedown="handlePan(-1,0)">
                  <use xlink:href="#rim" fill="#404040">
                        <set attributeName="fill" to="#808080" begin="arrowLeft.mouseover" end="arrowLeft.mouseout"/>
                  </use>
                  <path fill="none" stroke="white" stroke-width="1.5" d="M0,-3.0v7 M-2.5,-0.5L0,-3.0L2.5,-0.5"/>
                </g>
        </g>
        <svg viewBox="0 0 15 15" width="100%" height="30px" preserveAspectRatio="xMaxYMin meet">
         <g id="arrow_out" transform="scale(0.3 0.3)">
          <a xlink:href="class_browser_view_a5eb25d6d929e3bf06fbc98aad4dfe990_cgraph_org.svg" target="_base">
           <rect id="button" ry="5" rx="5" y="6" x="6" height="38" width="38"
                fill="#f2f5e9" fill-opacity="0.5" stroke="#606060" stroke-width="1.0"/>
           <path id="arrow"
             d="M 11.500037,31.436501 C 11.940474,20.09759 22.043105,11.32322 32.158766,21.979434 L 37.068811,17.246167 C 37.068811,17.246167 37.088388,32 37.088388,32 L 22.160133,31.978069 C 22.160133,31.978069 26.997745,27.140456 26.997745,27.140456 C 18.528582,18.264221 13.291696,25.230495 11.500037,31.436501 z"
             style="fill:#404040;"/>
          </a>
         </g>
        </svg>
</svg>
