<?xml version="1.0" encoding="UTF-8" standalone="no"?>
<!DOCTYPE svg PUBLIC "-//W3C//DTD SVG 1.1//EN"
 "http://www.w3.org/Graphics/SVG/1.1/DTD/svg11.dtd">
<!-- Generated by graphviz version 2.36.0 (20140111.2315)
 -->
<!-- Title: BrowserView.BrowserView Pages: 1 -->
<!--zoomable 458 -->
<svg id="main" version="1.1" xmlns="http://www.w3.org/2000/svg" xmlns:xlink="http://www.w3.org/1999/xlink" xml:space="preserve" onload="init(evt)">
<style type="text/css"><![CDATA[
.edge:hover path { stroke: red; }
.edge:hover polygon { stroke: red; fill: red; }
]]></style>
<script type="text/javascript"><![CDATA[
var edges = document.getElementsByTagName('g');
if (edges && edges.length) {
  for (var i=0;i<edges.length;i++) {
    if (edges[i].id.substr(0,4)=='edge') {
      edges[i].setAttribute('class','edge');
    }
  }
}
]]></script>
        <defs>
                <circle id="rim" cx="0" cy="0" r="7"/>
                <circle id="rim2" cx="0" cy="0" r="3.5"/>
                <g id="zoomPlus">
                        <use xlink:href="#rim" fill="#404040">
                                <set attributeName="fill" to="#808080" begin="zoomplus.mouseover" end="zoomplus.mouseout"/>
                        </use>
                        <path d="M-4,0h8M0,-4v8" fill="none" stroke="white" stroke-width="1.5" pointer-events="none"/>
                </g>
                <g id="zoomMin">
                        <use xlink:href="#rim" fill="#404040">
                                <set attributeName="fill" to="#808080" begin="zoomminus.mouseover" end="zoomminus.mouseout"/>
                        </use>
                        <path d="M-4,0h8" fill="none" stroke="white" stroke-width="1.5" pointer-events="none"/>
                </g>
                <g id="dirArrow">
                        <path fill="none" stroke="white" stroke-width="1.5" d="M0,-3.0v7 M-2.5,-0.5L0,-3.0L2.5,-0.5"/>
                </g>
               <g id="resetDef">
                       <use xlink:href="#rim2" fill="#404040">
                               <set attributeName="fill" to="#808080" begin="reset.mouseover" end="reset.mouseout"/>
                       </use>
               </g>
        </defs>

<script type="text/javascript">
var viewWidth = 1442;
var viewHeight = 458;
var sectionId = 'dynsection-1';
</script>
<script xlink:href="../../svgpan.js"/>
<svg id="graph" class="graph">
<g id="viewport">
<title>BrowserView.BrowserView</title>
<polygon fill="white" stroke="none" points="-4,4 -4,-454 1438,-454 1438,4 -4,4"/>
<!-- Node1 -->
<g id="node1" class="node"><title>Node1</title>
<polygon fill="#bfbfbf" stroke="black" points="0.5,-66.5 0.5,-85.5 139.5,-85.5 139.5,-66.5 0.5,-66.5"/>
<text text-anchor="middle" x="70" y="-73.5" font-family="Helvetica,sans-Serif" font-size="10.00">BrowserView.BrowserView</text>
</g>
<!-- Node2 -->
<g id="node2" class="node"><title>Node2</title>
<g id="a_node2"><a xlink:href="../../da/dc7/class_browser_view.html#a075eb442cd14dfdf391d474164cb5587" target="_top" xlink:title="BrowserView.enableButtons">
<polygon fill="white" stroke="black" points="1104.5,-240.5 1104.5,-259.5 1253.5,-259.5 1253.5,-240.5 1104.5,-240.5"/>
<text text-anchor="middle" x="1179" y="-247.5" font-family="Helvetica,sans-Serif" font-size="10.00">BrowserView.enableButtons</text>
</a>
</g>
</g>
<!-- Node1&#45;&gt;Node2 -->
<g id="edge1" class="edge"><title>Node1&#45;&gt;Node2</title>
<path fill="none" stroke="midnightblue" d="M139.614,-82.2749C216.743,-88.7775 345.744,-98 457,-98 457,-98 457,-98 836,-98 969.01,-98 1107.98,-195.194 1158.33,-234.14"/>
<polygon fill="midnightblue" stroke="midnightblue" points="1156.4,-237.069 1166.42,-240.492 1160.72,-231.563 1156.4,-237.069"/>
</g>
<!-- Node6 -->
<g id="node6" class="node"><title>Node6</title>
<g id="a_node6"><a xlink:href="../../da/dc7/class_browser_view.html#ade0b50f306175b361fa8304880c1ef7b" target="_top" xlink:title="BrowserView.makeInformation\lPanel">
<polygon fill="white" stroke="black" points="177.5,-39 177.5,-69 338.5,-69 338.5,-39 177.5,-39"/>
<text text-anchor="start" x="185.5" y="-57" font-family="Helvetica,sans-Serif" font-size="10.00">BrowserView.makeInformation</text>
<text text-anchor="middle" x="258" y="-46" font-family="Helvetica,sans-Serif" font-size="10.00">Panel</text>
</a>
</g>
</g>
<!-- Node1&#45;&gt;Node6 -->
<g id="edge5" class="edge"><title>Node1&#45;&gt;Node6</title>
<path fill="none" stroke="midnightblue" d="M139.731,-67.8705C148.699,-66.8098 157.99,-65.7109 167.239,-64.6169"/>
<polygon fill="midnightblue" stroke="midnightblue" points="167.721,-68.0844 177.24,-63.434 166.898,-61.1329 167.721,-68.0844"/>
</g>
<!-- Node7 -->
<g id="node7" class="node"><title>Node7</title>
<g id="a_node7"><a xlink:href="../../da/dc7/class_browser_view.html#a7187363a54226b91dcd71bfb90e60aa4" target="_top" xlink:title="BrowserView.makeInputPanel">
<polygon fill="white" stroke="black" points="180.5,-202.5 180.5,-221.5 335.5,-221.5 335.5,-202.5 180.5,-202.5"/>
<text text-anchor="middle" x="258" y="-209.5" font-family="Helvetica,sans-Serif" font-size="10.00">BrowserView.makeInputPanel</text>
</a>
</g>
</g>
<!-- Node1&#45;&gt;Node7 -->
<g id="edge6" class="edge"><title>Node1&#45;&gt;Node7</title>
<path fill="none" stroke="midnightblue" d="M84.0792,-85.5633C115.619,-108.625 196.133,-167.495 235.149,-196.023"/>
<polygon fill="midnightblue" stroke="midnightblue" points="233.548,-199.188 243.686,-202.265 237.68,-193.538 233.548,-199.188"/>
</g>
<!-- Node27 -->
<g id="node27" class="node"><title>Node27</title>
<g id="a_node27"><a xlink:href="../../da/dc7/class_browser_view.html#a4f4f3ad16f6bbf0171108ff2a11d7788" target="_top" xlink:title="BrowserView.makePageDisplay">
<polygon fill="white" stroke="black" points="176,-0.5 176,-19.5 340,-19.5 340,-0.5 176,-0.5"/>
<text text-anchor="middle" x="258" y="-7.5" font-family="Helvetica,sans-Serif" font-size="10.00">BrowserView.makePageDisplay</text>
</a>
</g>
</g>
<!-- Node1&#45;&gt;Node27 -->
<g id="edge36" class="edge"><title>Node1&#45;&gt;Node27</title>
<path fill="none" stroke="midnightblue" d="M89.5349,-66.402C110.184,-56.0197 144.778,-39.5424 176,-29 183.589,-26.4376 191.691,-24.0938 199.727,-21.9941"/>
<polygon fill="midnightblue" stroke="midnightblue" points="200.609,-25.3814 209.458,-19.5557 198.908,-18.5913 200.609,-25.3814"/>
</g>
<!-- Node3 -->
<g id="node3" class="node"><title>Node3</title>
<g id="a_node3"><a xlink:href="../../d4/d0e/class_browser_model.html#a1026df05417d496ec0630e7b76d9bc5c" target="_top" xlink:title="BrowserModel.hasPrevious">
<polygon fill="white" stroke="black" points="1290,-183.5 1290,-202.5 1434,-202.5 1434,-183.5 1290,-183.5"/>
<text text-anchor="middle" x="1362" y="-190.5" font-family="Helvetica,sans-Serif" font-size="10.00">BrowserModel.hasPrevious</text>
</a>
</g>
</g>
<!-- Node2&#45;&gt;Node3 -->
<g id="edge2" class="edge"><title>Node2&#45;&gt;Node3</title>
<path fill="none" stroke="midnightblue" d="M1206.05,-240.413C1228.24,-232.392 1261.02,-220.871 1290,-212 1297.55,-209.689 1305.6,-207.385 1313.46,-205.22"/>
<polygon fill="midnightblue" stroke="midnightblue" points="1314.54,-208.555 1323.27,-202.562 1312.71,-201.799 1314.54,-208.555"/>
</g>
<!-- Node4 -->
<g id="node4" class="node"><title>Node4</title>
<g id="a_node4"><a xlink:href="../../d4/d0e/class_browser_model.html#a8543f3aac30c7f3970509c138f37bfa6" target="_top" xlink:title="BrowserModel.hasNext">
<polygon fill="white" stroke="black" points="1299,-278.5 1299,-297.5 1425,-297.5 1425,-278.5 1299,-278.5"/>
<text text-anchor="middle" x="1362" y="-285.5" font-family="Helvetica,sans-Serif" font-size="10.00">BrowserModel.hasNext</text>
</a>
</g>
</g>
<!-- Node2&#45;&gt;Node4 -->
<g id="edge3" class="edge"><title>Node2&#45;&gt;Node4</title>
<path fill="none" stroke="midnightblue" d="M1225.67,-259.589C1249.99,-264.694 1280.08,-271.011 1305.71,-276.392"/>
<polygon fill="midnightblue" stroke="midnightblue" points="1305.15,-279.851 1315.65,-278.48 1306.59,-273 1305.15,-279.851"/>
</g>
<!-- Node5 -->
<g id="node5" class="node"><title>Node5</title>
<g id="a_node5"><a xlink:href="../../d4/d0e/class_browser_model.html#aef138e6865de073292539cc36ed81d8d" target="_top" xlink:title="BrowserModel.getHome">
<polygon fill="white" stroke="black" points="1296.5,-221.5 1296.5,-240.5 1427.5,-240.5 1427.5,-221.5 1296.5,-221.5"/>
<text text-anchor="middle" x="1362" y="-228.5" font-family="Helvetica,sans-Serif" font-size="10.00">BrowserModel.getHome</text>
</a>
</g>
</g>
<!-- Node2&#45;&gt;Node5 -->
<g id="edge4" class="edge"><title>Node2&#45;&gt;Node5</title>
<path fill="none" stroke="midnightblue" d="M1253.62,-242.272C1264.37,-241.143 1275.46,-239.98 1286.24,-238.848"/>
<polygon fill="midnightblue" stroke="midnightblue" points="1286.87,-242.301 1296.45,-237.776 1286.14,-235.339 1286.87,-242.301"/>
</g>
<!-- Node8 -->
<g id="node8" class="node"><title>Node8</title>
<g id="a_node8"><a xlink:href="../../da/dc7/class_browser_view.html#a857540bb858533e7a993f15225a56e79" target="_top" xlink:title="BrowserView.makeNavigation\lPanel">
<polygon fill="white" stroke="black" points="379.5,-197 379.5,-227 536.5,-227 536.5,-197 379.5,-197"/>
<text text-anchor="start" x="387.5" y="-215" font-family="Helvetica,sans-Serif" font-size="10.00">BrowserView.makeNavigation</text>
<text text-anchor="middle" x="458" y="-204" font-family="Helvetica,sans-Serif" font-size="10.00">Panel</text>
</a>
</g>
</g>
<!-- Node7&#45;&gt;Node8 -->
<g id="edge7" class="edge"><title>Node7&#45;&gt;Node8</title>
<path fill="none" stroke="midnightblue" d="M335.552,-212C346.55,-212 357.938,-212 369.134,-212"/>
<polygon fill="midnightblue" stroke="midnightblue" points="369.345,-215.5 379.345,-212 369.344,-208.5 369.345,-215.5"/>
</g>
<!-- Node21 -->
<g id="node21" class="node"><title>Node21</title>
<g id="a_node21"><a xlink:href="../../da/dc7/class_browser_view.html#a5da1de68c05af5b4999d5169ea8a3cb1" target="_top" xlink:title="BrowserView.makePreferences\lPanel">
<polygon fill="white" stroke="black" points="376.5,-330 376.5,-360 539.5,-360 539.5,-330 376.5,-330"/>
<text text-anchor="start" x="384.5" y="-348" font-family="Helvetica,sans-Serif" font-size="10.00">BrowserView.makePreferences</text>
<text text-anchor="middle" x="458" y="-337" font-family="Helvetica,sans-Serif" font-size="10.00">Panel</text>
</a>
</g>
</g>
<!-- Node7&#45;&gt;Node21 -->
<g id="edge27" class="edge"><title>Node7&#45;&gt;Node21</title>
<path fill="none" stroke="midnightblue" d="M273.24,-221.565C305.012,-242.907 382.313,-294.832 425.857,-324.081"/>
<polygon fill="midnightblue" stroke="midnightblue" points="424.097,-327.115 434.35,-329.786 428.001,-321.304 424.097,-327.115"/>
</g>
<!-- Node9 -->
<g id="node9" class="node"><title>Node9</title>
<g id="a_node9"><a xlink:href="../../da/dc7/class_browser_view.html#a9f7dc5ce97b315e98a3405f58a1f0e9e" target="_top" xlink:title="BrowserView.makeButton">
<polygon fill="white" stroke="black" points="583,-278.5 583,-297.5 721,-297.5 721,-278.5 583,-278.5"/>
<text text-anchor="middle" x="652" y="-285.5" font-family="Helvetica,sans-Serif" font-size="10.00">BrowserView.makeButton</text>
</a>
</g>
</g>
<!-- Node8&#45;&gt;Node9 -->
<g id="edge8" class="edge"><title>Node8&#45;&gt;Node9</title>
<path fill="none" stroke="midnightblue" d="M490.393,-227.067C513.731,-237.993 546.503,-252.764 576,-264 586.564,-268.024 598.128,-271.953 608.944,-275.427"/>
<polygon fill="midnightblue" stroke="midnightblue" points="608.027,-278.808 618.617,-278.481 610.135,-272.133 608.027,-278.808"/>
</g>
<!-- Node10 -->
<g id="node10" class="node"><title>Node10</title>
<g id="a_node10"><a xlink:href="../../da/dc7/class_browser_view.html#a6936eb74671b8632e4e361fa00fc74df" target="_top" xlink:title="BrowserView.back">
<polygon fill="white" stroke="black" points="784.5,-164.5 784.5,-183.5 885.5,-183.5 885.5,-164.5 784.5,-164.5"/>
<text text-anchor="middle" x="835" y="-171.5" font-family="Helvetica,sans-Serif" font-size="10.00">BrowserView.back</text>
</a>
</g>
</g>
<!-- Node8&#45;&gt;Node10 -->
<g id="edge9" class="edge"><title>Node8&#45;&gt;Node10</title>
<path fill="none" stroke="midnightblue" d="M482.017,-196.863C504.799,-182.855 541.213,-163.023 576,-155 648.416,-138.299 735.006,-151.125 787.193,-162.286"/>
<polygon fill="midnightblue" stroke="midnightblue" points="786.638,-165.748 797.158,-164.487 788.148,-158.913 786.638,-165.748"/>
</g>
<!-- Node13 -->
<g id="node13" class="node"><title>Node13</title>
<g id="a_node13"><a xlink:href="../../da/dc7/class_browser_view.html#acd8bc4226c2213dc9ce03cb6e8b4d24c" target="_top" xlink:title="BrowserView.next">
<polygon fill="white" stroke="black" points="785,-240.5 785,-259.5 885,-259.5 885,-240.5 785,-240.5"/>
<text text-anchor="middle" x="835" y="-247.5" font-family="Helvetica,sans-Serif" font-size="10.00">BrowserView.next</text>
</a>
</g>
</g>
<!-- Node8&#45;&gt;Node13 -->
<g id="edge14" class="edge"><title>Node8&#45;&gt;Node13</title>
<path fill="none" stroke="midnightblue" d="M536.591,-225.577C549.717,-227.593 563.227,-229.495 576,-231 643.952,-239.004 722.396,-244.21 774.78,-247.114"/>
<polygon fill="midnightblue" stroke="midnightblue" points="774.723,-250.616 784.898,-247.664 775.103,-243.627 774.723,-250.616"/>
</g>
<!-- Node15 -->
<g id="node15" class="node"><title>Node15</title>
<g id="a_node15"><a xlink:href="../../da/dc7/class_browser_view.html#a27f780fabcdd2064805f4434fea1a495" target="_top" xlink:title="BrowserView.home">
<polygon fill="white" stroke="black" points="598.5,-202.5 598.5,-221.5 705.5,-221.5 705.5,-202.5 598.5,-202.5"/>
<text text-anchor="middle" x="652" y="-209.5" font-family="Helvetica,sans-Serif" font-size="10.00">BrowserView.home</text>
</a>
</g>
</g>
<!-- Node8&#45;&gt;Node15 -->
<g id="edge18" class="edge"><title>Node8&#45;&gt;Node15</title>
<path fill="none" stroke="midnightblue" d="M536.54,-212C553.778,-212 571.841,-212 588.391,-212"/>
<polygon fill="midnightblue" stroke="midnightblue" points="588.48,-215.5 598.48,-212 588.48,-208.5 588.48,-215.5"/>
</g>
<!-- Node20 -->
<g id="node20" class="node"><title>Node20</title>
<g id="a_node20"><a xlink:href="../../da/dc7/class_browser_view.html#a2211cf8495fb203235dd74a4fe725ff4" target="_top" xlink:title="BrowserView.makeInputField">
<polygon fill="white" stroke="black" points="576.5,-164.5 576.5,-183.5 727.5,-183.5 727.5,-164.5 576.5,-164.5"/>
<text text-anchor="middle" x="652" y="-171.5" font-family="Helvetica,sans-Serif" font-size="10.00">BrowserView.makeInputField</text>
</a>
</g>
</g>
<!-- Node8&#45;&gt;Node20 -->
<g id="edge26" class="edge"><title>Node8&#45;&gt;Node20</title>
<path fill="none" stroke="midnightblue" d="M534.883,-196.981C554.252,-193.148 574.764,-189.088 593.072,-185.465"/>
<polygon fill="midnightblue" stroke="midnightblue" points="593.865,-188.876 602.995,-183.501 592.506,-182.009 593.865,-188.876"/>
</g>
<!-- Node11 -->
<g id="node11" class="node"><title>Node11</title>
<g id="a_node11"><a xlink:href="../../da/dc7/class_browser_view.html#a34f643e815549bd4340fb49f0865c030" target="_top" xlink:title="BrowserView.update">
<polygon fill="white" stroke="black" points="948.5,-240.5 948.5,-259.5 1061.5,-259.5 1061.5,-240.5 948.5,-240.5"/>
<text text-anchor="middle" x="1005" y="-247.5" font-family="Helvetica,sans-Serif" font-size="10.00">BrowserView.update</text>
</a>
</g>
</g>
<!-- Node10&#45;&gt;Node11 -->
<g id="edge10" class="edge"><title>Node10&#45;&gt;Node11</title>
<path fill="none" stroke="midnightblue" d="M857.277,-183.625C886.69,-196.931 939.938,-221.02 973.556,-236.228"/>
<polygon fill="midnightblue" stroke="midnightblue" points="972.342,-239.52 982.895,-240.453 975.227,-233.142 972.342,-239.52"/>
</g>
<!-- Node12 -->
<g id="node12" class="node"><title>Node12</title>
<g id="a_node12"><a xlink:href="../../d4/d0e/class_browser_model.html#a48b671d68ebdc1f64cabf275b7c4c70e" target="_top" xlink:title="BrowserModel.back">
<polygon fill="white" stroke="black" points="1124.5,-164.5 1124.5,-183.5 1233.5,-183.5 1233.5,-164.5 1124.5,-164.5"/>
<text text-anchor="middle" x="1179" y="-171.5" font-family="Helvetica,sans-Serif" font-size="10.00">BrowserModel.back</text>
</a>
</g>
</g>
<!-- Node10&#45;&gt;Node12 -->
<g id="edge12" class="edge"><title>Node10&#45;&gt;Node12</title>
<path fill="none" stroke="midnightblue" d="M885.73,-174C946.047,-174 1047.84,-174 1113.97,-174"/>
<polygon fill="midnightblue" stroke="midnightblue" points="1114.26,-177.5 1124.26,-174 1114.26,-170.5 1114.26,-177.5"/>
</g>
<!-- Node11&#45;&gt;Node2 -->
<g id="edge11" class="edge"><title>Node11&#45;&gt;Node2</title>
<path fill="none" stroke="midnightblue" d="M1061.84,-250C1072.21,-250 1083.24,-250 1094.23,-250"/>
<polygon fill="midnightblue" stroke="midnightblue" points="1094.28,-253.5 1104.28,-250 1094.28,-246.5 1094.28,-253.5"/>
</g>
<!-- Node12&#45;&gt;Node3 -->
<g id="edge13" class="edge"><title>Node12&#45;&gt;Node3</title>
<path fill="none" stroke="midnightblue" d="M1233.82,-179.649C1248.26,-181.166 1264.21,-182.84 1279.79,-184.475"/>
<polygon fill="midnightblue" stroke="midnightblue" points="1279.64,-187.979 1289.95,-185.542 1280.37,-181.017 1279.64,-187.979"/>
</g>
<!-- Node13&#45;&gt;Node11 -->
<g id="edge15" class="edge"><title>Node13&#45;&gt;Node11</title>
<path fill="none" stroke="midnightblue" d="M885.044,-250C901.641,-250 920.454,-250 938.14,-250"/>
<polygon fill="midnightblue" stroke="midnightblue" points="938.398,-253.5 948.398,-250 938.398,-246.5 938.398,-253.5"/>
</g>
<!-- Node14 -->
<g id="node14" class="node"><title>Node14</title>
<g id="a_node14"><a xlink:href="../../d4/d0e/class_browser_model.html#af6ac28da81c98130778254d039fe3cbb" target="_top" xlink:title="BrowserModel.next">
<polygon fill="white" stroke="black" points="1125.5,-278.5 1125.5,-297.5 1232.5,-297.5 1232.5,-278.5 1125.5,-278.5"/>
<text text-anchor="middle" x="1179" y="-285.5" font-family="Helvetica,sans-Serif" font-size="10.00">BrowserModel.next</text>
</a>
</g>
</g>
<!-- Node13&#45;&gt;Node14 -->
<g id="edge16" class="edge"><title>Node13&#45;&gt;Node14</title>
<path fill="none" stroke="midnightblue" d="M883.602,-259.547C901.811,-262.932 922.81,-266.514 942,-269 1000.49,-276.578 1067.54,-281.629 1115.19,-284.606"/>
<polygon fill="midnightblue" stroke="midnightblue" points="1115.16,-288.111 1125.36,-285.228 1115.59,-281.124 1115.16,-288.111"/>
</g>
<!-- Node14&#45;&gt;Node4 -->
<g id="edge17" class="edge"><title>Node14&#45;&gt;Node4</title>
<path fill="none" stroke="midnightblue" d="M1232.84,-288C1250.27,-288 1269.97,-288 1288.61,-288"/>
<polygon fill="midnightblue" stroke="midnightblue" points="1288.83,-291.5 1298.83,-288 1288.83,-284.5 1288.83,-291.5"/>
</g>
<!-- Node15&#45;&gt;Node5 -->
<g id="edge25" class="edge"><title>Node15&#45;&gt;Node5</title>
<path fill="none" stroke="midnightblue" d="M705.637,-213.413C830.038,-216.751 1142.52,-225.137 1286.38,-228.998"/>
<polygon fill="midnightblue" stroke="midnightblue" points="1286.35,-232.498 1296.44,-229.268 1286.54,-225.5 1286.35,-232.498"/>
</g>
<!-- Node16 -->
<g id="node16" class="node"><title>Node16</title>
<g id="a_node16"><a xlink:href="../../da/dc7/class_browser_view.html#ac654bf4a0eb91d6a9b1cf013e52fc3e5" target="_top" xlink:title="BrowserView.showPage">
<polygon fill="white" stroke="black" points="772,-354.5 772,-373.5 898,-373.5 898,-354.5 772,-354.5"/>
<text text-anchor="middle" x="835" y="-361.5" font-family="Helvetica,sans-Serif" font-size="10.00">BrowserView.showPage</text>
</a>
</g>
</g>
<!-- Node15&#45;&gt;Node16 -->
<g id="edge19" class="edge"><title>Node15&#45;&gt;Node16</title>
<path fill="none" stroke="midnightblue" d="M666.256,-221.572C681.441,-232.651 706.941,-251.609 728,-269 759.961,-295.394 795.545,-327.985 816.284,-347.32"/>
<polygon fill="midnightblue" stroke="midnightblue" points="814.022,-349.997 823.715,-354.274 818.805,-344.886 814.022,-349.997"/>
</g>
<!-- Node16&#45;&gt;Node11 -->
<g id="edge20" class="edge"><title>Node16&#45;&gt;Node11</title>
<path fill="none" stroke="midnightblue" d="M850.035,-354.477C878.992,-334.827 945.603,-289.627 980.966,-265.63"/>
<polygon fill="midnightblue" stroke="midnightblue" points="983.34,-268.249 989.649,-259.738 979.409,-262.457 983.34,-268.249"/>
</g>
<!-- Node17 -->
<g id="node17" class="node"><title>Node17</title>
<g id="a_node17"><a xlink:href="../../d4/d0e/class_browser_model.html#a16df284a0004c149f459b18876491b13" target="_top" xlink:title="BrowserModel.go">
<polygon fill="white" stroke="black" points="956,-392.5 956,-411.5 1054,-411.5 1054,-392.5 956,-392.5"/>
<text text-anchor="middle" x="1005" y="-399.5" font-family="Helvetica,sans-Serif" font-size="10.00">BrowserModel.go</text>
</a>
</g>
</g>
<!-- Node16&#45;&gt;Node17 -->
<g id="edge21" class="edge"><title>Node16&#45;&gt;Node17</title>
<path fill="none" stroke="midnightblue" d="M878.393,-373.589C900.763,-378.649 928.398,-384.9 952.047,-390.249"/>
<polygon fill="midnightblue" stroke="midnightblue" points="951.386,-393.687 961.911,-392.48 952.93,-386.86 951.386,-393.687"/>
</g>
<!-- Node19 -->
<g id="node19" class="node"><title>Node19</title>
<g id="a_node19"><a xlink:href="../../da/dc7/class_browser_view.html#a50820a4578ff7cacb849e7886aa75b13" target="_top" xlink:title="BrowserView.showError">
<polygon fill="white" stroke="black" points="942,-354.5 942,-373.5 1068,-373.5 1068,-354.5 942,-354.5"/>
<text text-anchor="middle" x="1005" y="-361.5" font-family="Helvetica,sans-Serif" font-size="10.00">BrowserView.showError</text>
</a>
</g>
</g>
<!-- Node16&#45;&gt;Node19 -->
<g id="edge24" class="edge"><title>Node16&#45;&gt;Node19</title>
<path fill="none" stroke="midnightblue" d="M898.08,-364C909.029,-364 920.512,-364 931.712,-364"/>
<polygon fill="midnightblue" stroke="midnightblue" points="931.895,-367.5 941.895,-364 931.895,-360.5 931.895,-367.5"/>
</g>
<!-- Node17&#45;&gt;Node4 -->
<g id="edge23" class="edge"><title>Node17&#45;&gt;Node4</title>
<path fill="none" stroke="midnightblue" d="M1054.28,-407.152C1105.87,-410.678 1189.01,-410.576 1254,-383 1293.77,-366.126 1328.89,-328.334 1347.32,-305.834"/>
<polygon fill="midnightblue" stroke="midnightblue" points="1350.25,-307.768 1353.75,-297.766 1344.78,-303.405 1350.25,-307.768"/>
</g>
<!-- Node18 -->
<g id="node18" class="node"><title>Node18</title>
<g id="a_node18"><a xlink:href="../../d4/d0e/class_browser_model.html#afd48fe0bb4e912c2281ea18754fc8fe2" target="_top" xlink:title="BrowserModel.completeURL">
<polygon fill="white" stroke="black" points="1104,-354.5 1104,-373.5 1254,-373.5 1254,-354.5 1104,-354.5"/>
<text text-anchor="middle" x="1179" y="-361.5" font-family="Helvetica,sans-Serif" font-size="10.00">BrowserModel.completeURL</text>
</a>
</g>
</g>
<!-- Node17&#45;&gt;Node18 -->
<g id="edge22" class="edge"><title>Node17&#45;&gt;Node18</title>
<path fill="none" stroke="midnightblue" d="M1049.4,-392.411C1072.41,-387.329 1100.85,-381.045 1125.13,-375.68"/>
<polygon fill="midnightblue" stroke="midnightblue" points="1125.9,-379.095 1134.91,-373.52 1124.39,-372.26 1125.9,-379.095"/>
</g>
<!-- Node21&#45;&gt;Node2 -->
<g id="edge35" class="edge"><title>Node21&#45;&gt;Node2</title>
<path fill="none" stroke="midnightblue" d="M539.943,-336.122C656.771,-323.03 879.35,-297.048 1068,-269 1083.49,-266.697 1100.16,-263.955 1115.72,-261.281"/>
<polygon fill="midnightblue" stroke="midnightblue" points="1116.51,-264.696 1125.76,-259.538 1115.31,-257.799 1116.51,-264.696"/>
</g>
<!-- Node21&#45;&gt;Node9 -->
<g id="edge31" class="edge"><title>Node21&#45;&gt;Node9</title>
<path fill="none" stroke="midnightblue" d="M509.697,-329.949C540.605,-320.773 579.643,-309.184 608.851,-300.513"/>
<polygon fill="midnightblue" stroke="midnightblue" points="610.152,-303.778 618.742,-297.577 608.16,-297.067 610.152,-303.778"/>
</g>
<!-- Node22 -->
<g id="node22" class="node"><title>Node22</title>
<g id="a_node22"><a xlink:href="../../da/dc7/class_browser_view.html#a5eb25d6d929e3bf06fbc98aad4dfe990" target="_top" xlink:title="BrowserView.showFavorite">
<polygon fill="white" stroke="black" points="582,-392.5 582,-411.5 722,-411.5 722,-392.5 582,-392.5"/>
<text text-anchor="middle" x="652" y="-399.5" font-family="Helvetica,sans-Serif" font-size="10.00">BrowserView.showFavorite</text>
</a>
</g>
</g>
<!-- Node21&#45;&gt;Node22 -->
<g id="edge28" class="edge"><title>Node21&#45;&gt;Node22</title>
<path fill="none" stroke="midnightblue" d="M502.957,-360.036C524.811,-367.317 551.685,-375.98 576,-383 584.162,-385.357 592.87,-387.709 601.354,-389.914"/>
<polygon fill="midnightblue" stroke="midnightblue" points="600.611,-393.337 611.167,-392.428 602.348,-386.556 600.611,-393.337"/>
</g>
<!-- Node24 -->
<g id="node24" class="node"><title>Node24</title>
<g id="a_node24"><a xlink:href="../../da/dc7/class_browser_view.html#ae2f24f59bc3b1c41a3b85698ed3c37e3" target="_top" xlink:title="BrowserView.addFavorite">
<polygon fill="white" stroke="black" points="585,-430.5 585,-449.5 719,-449.5 719,-430.5 585,-430.5"/>
<text text-anchor="middle" x="652" y="-437.5" font-family="Helvetica,sans-Serif" font-size="10.00">BrowserView.addFavorite</text>
</a>
</g>
</g>
<!-- Node21&#45;&gt;Node24 -->
<g id="edge32" class="edge"><title>Node21&#45;&gt;Node24</title>
<path fill="none" stroke="midnightblue" d="M478.152,-360.296C500.439,-377.393 538.936,-404.799 576,-421 581.654,-423.471 587.694,-425.668 593.799,-427.608"/>
<polygon fill="midnightblue" stroke="midnightblue" points="592.818,-430.968 603.4,-430.449 594.804,-424.255 592.818,-430.968"/>
</g>
<!-- Node26 -->
<g id="node26" class="node"><title>Node26</title>
<g id="a_node26"><a xlink:href="../../d4/d0e/class_browser_model.html#a980e06d7d1e4a934303ca5ff1ea98d20" target="_top" xlink:title="BrowserModel.setHome">
<polygon fill="white" stroke="black" points="586.5,-354.5 586.5,-373.5 717.5,-373.5 717.5,-354.5 586.5,-354.5"/>
<text text-anchor="middle" x="652" y="-361.5" font-family="Helvetica,sans-Serif" font-size="10.00">BrowserModel.setHome</text>
</a>
</g>
</g>
<!-- Node21&#45;&gt;Node26 -->
<g id="edge34" class="edge"><title>Node21&#45;&gt;Node26</title>
<path fill="none" stroke="midnightblue" d="M539.591,-352.975C551.777,-354.181 564.304,-355.421 576.357,-356.613"/>
<polygon fill="midnightblue" stroke="midnightblue" points="576.057,-360.101 586.353,-357.603 576.746,-353.135 576.057,-360.101"/>
</g>
<!-- Node22&#45;&gt;Node16 -->
<g id="edge29" class="edge"><title>Node22&#45;&gt;Node16</title>
<path fill="none" stroke="midnightblue" d="M698.674,-392.411C722.989,-387.306 753.08,-380.989 778.708,-375.608"/>
<polygon fill="midnightblue" stroke="midnightblue" points="779.587,-379 788.654,-373.52 778.149,-372.149 779.587,-379"/>
</g>
<!-- Node23 -->
<g id="node23" class="node"><title>Node23</title>
<g id="a_node23"><a xlink:href="../../d4/d0e/class_browser_model.html#a30c5eef3b38c5fadf0ec8ec633957cad" target="_top" xlink:title="BrowserModel.getFavorite">
<polygon fill="white" stroke="black" points="765,-392.5 765,-411.5 905,-411.5 905,-392.5 765,-392.5"/>
<text text-anchor="middle" x="835" y="-399.5" font-family="Helvetica,sans-Serif" font-size="10.00">BrowserModel.getFavorite</text>
</a>
</g>
</g>
<!-- Node22&#45;&gt;Node23 -->
<g id="edge30" class="edge"><title>Node22&#45;&gt;Node23</title>
<path fill="none" stroke="midnightblue" d="M722.203,-402C732.791,-402 743.791,-402 754.579,-402"/>
<polygon fill="midnightblue" stroke="midnightblue" points="754.835,-405.5 764.835,-402 754.835,-398.5 754.835,-405.5"/>
</g>
<!-- Node25 -->
<g id="node25" class="node"><title>Node25</title>
<g id="a_node25"><a xlink:href="../../d4/d0e/class_browser_model.html#a9b87835ef281535bb5c37c84280b655e" target="_top" xlink:title="BrowserModel.addFavorite">
<polygon fill="white" stroke="black" points="764,-430.5 764,-449.5 906,-449.5 906,-430.5 764,-430.5"/>
<text text-anchor="middle" x="835" y="-437.5" font-family="Helvetica,sans-Serif" font-size="10.00">BrowserModel.addFavorite</text>
</a>
</g>
</g>
<!-- Node24&#45;&gt;Node25 -->
<g id="edge33" class="edge"><title>Node24&#45;&gt;Node25</title>
<path fill="none" stroke="midnightblue" d="M719.113,-440C730.361,-440 742.151,-440 753.716,-440"/>
<polygon fill="midnightblue" stroke="midnightblue" points="753.802,-443.5 763.802,-440 753.802,-436.5 753.802,-443.5"/>
</g>
</g>
</svg>
        <g id="navigator" transform="translate(0 0)" fill="#404254">
                <rect fill="#f2f5e9" fill-opacity="0.5" stroke="#606060" stroke-width=".5" x="0" y="0" width="60" height="60"/>
                <use id="zoomplus" xlink:href="#zoomPlus" x="17" y="9" onmousedown="handleZoom(evt,'in')"/>
                <use id="zoomminus" xlink:href="#zoomMin" x="42" y="9" onmousedown="handleZoom(evt,'out')"/>
                <use id="reset" xlink:href="#resetDef" x="30" y="36" onmousedown="handleReset()"/>
                <g id="arrowUp" xlink:href="#dirArrow" transform="translate(30 24)" onmousedown="handlePan(0,-1)">
                  <use xlink:href="#rim" fill="#404040">
                        <set attributeName="fill" to="#808080" begin="arrowUp.mouseover" end="arrowUp.mouseout"/>
                  </use>
                  <path fill="none" stroke="white" stroke-width="1.5" d="M0,-3.0v7 M-2.5,-0.5L0,-3.0L2.5,-0.5"/>
                </g>
                <g id="arrowRight" xlink:href="#dirArrow" transform="rotate(90) translate(36 -43)" onmousedown="handlePan(1,0)">
                  <use xlink:href="#rim" fill="#404040">
                        <set attributeName="fill" to="#808080" begin="arrowRight.mouseover" end="arrowRight.mouseout"/>
                  </use>
                  <path fill="none" stroke="white" stroke-width="1.5" d="M0,-3.0v7 M-2.5,-0.5L0,-3.0L2.5,-0.5"/>
                </g>
                <g id="arrowDown" xlink:href="#dirArrow" transform="rotate(180) translate(-30 -48)" onmousedown="handlePan(0,1)">
                  <use xlink:href="#rim" fill="#404040">
                        <set attributeName="fill" to="#808080" begin="arrowDown.mouseover" end="arrowDown.mouseout"/>
                  </use>
                  <path fill="none" stroke="white" stroke-width="1.5" d="M0,-3.0v7 M-2.5,-0.5L0,-3.0L2.5,-0.5"/>
                </g>
                <g id="arrowLeft" xlink:href="#dirArrow" transform="rotate(270) translate(-36 17)" onmousedown="handlePan(-1,0)">
                  <use xlink:href="#rim" fill="#404040">
                        <set attributeName="fill" to="#808080" begin="arrowLeft.mouseover" end="arrowLeft.mouseout"/>
                  </use>
                  <path fill="none" stroke="white" stroke-width="1.5" d="M0,-3.0v7 M-2.5,-0.5L0,-3.0L2.5,-0.5"/>
                </g>
        </g>
        <svg viewBox="0 0 15 15" width="100%" height="30px" preserveAspectRatio="xMaxYMin meet">
         <g id="arrow_out" transform="scale(0.3 0.3)">
          <a xlink:href="class_browser_view_a5e87a7d2011460380dcf165db009461b_cgraph_org.svg" target="_base">
           <rect id="button" ry="5" rx="5" y="6" x="6" height="38" width="38"
                fill="#f2f5e9" fill-opacity="0.5" stroke="#606060" stroke-width="1.0"/>
           <path id="arrow"
             d="M 11.500037,31.436501 C 11.940474,20.09759 22.043105,11.32322 32.158766,21.979434 L 37.068811,17.246167 C 37.068811,17.246167 37.088388,32 37.088388,32 L 22.160133,31.978069 C 22.160133,31.978069 26.997745,27.140456 26.997745,27.140456 C 18.528582,18.264221 13.291696,25.230495 11.500037,31.436501 z"
             style="fill:#404040;"/>
          </a>
         </g>
        </svg>
</svg>
