<?xml version="1.0" encoding="UTF-8" standalone="no"?>
<!DOCTYPE svg PUBLIC "-//W3C//DTD SVG 1.1//EN"
 "http://www.w3.org/Graphics/SVG/1.1/DTD/svg11.dtd">
<!-- Generated by graphviz version 2.36.0 (20140111.2315)
 -->
<!-- Title: BrowserView.next Pages: 1 -->
<svg width="624pt" height="104pt"
 viewBox="0.00 0.00 624.00 104.00" xmlns="http://www.w3.org/2000/svg" xmlns:xlink="http://www.w3.org/1999/xlink">
<g id="graph0" class="graph" transform="scale(1 1) rotate(0) translate(4 100)">
<title>BrowserView.next</title>
<polygon fill="white" stroke="none" points="-4,4 -4,-100 620,-100 620,4 -4,4"/>
<!-- Node1 -->
<g id="node1" class="node"><title>Node1</title>
<polygon fill="#bfbfbf" stroke="black" points="0,-57.5 0,-76.5 100,-76.5 100,-57.5 0,-57.5"/>
<text text-anchor="middle" x="50" y="-64.5" font-family="Helvetica,sans-Serif" font-size="10.00">BrowserView.next</text>
</g>
<!-- Node2 -->
<g id="node2" class="node"><title>Node2</title>
<g id="a_node2"><a xlink:href="../../d4/d0e/class_browser_model.html#af6ac28da81c98130778254d039fe3cbb" target="_top" xlink:title="BrowserModel.next">
<polygon fill="white" stroke="black" points="307.5,-76.5 307.5,-95.5 414.5,-95.5 414.5,-76.5 307.5,-76.5"/>
<text text-anchor="middle" x="361" y="-83.5" font-family="Helvetica,sans-Serif" font-size="10.00">BrowserModel.next</text>
</a>
</g>
</g>
<!-- Node1&#45;&gt;Node2 -->
<g id="edge1" class="edge"><title>Node1&#45;&gt;Node2</title>
<path fill="none" stroke="midnightblue" d="M100.304,-70.0316C153.669,-73.313 238.921,-78.555 297.081,-82.1312"/>
<polygon fill="midnightblue" stroke="midnightblue" points="297.055,-85.6361 307.251,-82.7566 297.485,-78.6493 297.055,-85.6361"/>
</g>
<!-- Node4 -->
<g id="node4" class="node"><title>Node4</title>
<g id="a_node4"><a xlink:href="../../da/dc7/class_browser_view.html#a34f643e815549bd4340fb49f0865c030" target="_top" xlink:title="BrowserView.update">
<polygon fill="white" stroke="black" points="136.5,-38.5 136.5,-57.5 249.5,-57.5 249.5,-38.5 136.5,-38.5"/>
<text text-anchor="middle" x="193" y="-45.5" font-family="Helvetica,sans-Serif" font-size="10.00">BrowserView.update</text>
</a>
</g>
</g>
<!-- Node1&#45;&gt;Node4 -->
<g id="edge3" class="edge"><title>Node1&#45;&gt;Node4</title>
<path fill="none" stroke="midnightblue" d="M100.315,-60.3547C108.649,-59.2318 117.417,-58.0501 126.093,-56.881"/>
<polygon fill="midnightblue" stroke="midnightblue" points="126.76,-60.3229 136.203,-55.5187 125.826,-53.3856 126.76,-60.3229"/>
</g>
<!-- Node3 -->
<g id="node3" class="node"><title>Node3</title>
<g id="a_node3"><a xlink:href="../../d4/d0e/class_browser_model.html#a8543f3aac30c7f3970509c138f37bfa6" target="_top" xlink:title="BrowserModel.hasNext">
<polygon fill="white" stroke="black" points="481,-76.5 481,-95.5 607,-95.5 607,-76.5 481,-76.5"/>
<text text-anchor="middle" x="544" y="-83.5" font-family="Helvetica,sans-Serif" font-size="10.00">BrowserModel.hasNext</text>
</a>
</g>
</g>
<!-- Node2&#45;&gt;Node3 -->
<g id="edge2" class="edge"><title>Node2&#45;&gt;Node3</title>
<path fill="none" stroke="midnightblue" d="M414.839,-86C432.271,-86 451.973,-86 470.606,-86"/>
<polygon fill="midnightblue" stroke="midnightblue" points="470.827,-89.5001 480.827,-86 470.827,-82.5001 470.827,-89.5001"/>
</g>
<!-- Node5 -->
<g id="node5" class="node"><title>Node5</title>
<g id="a_node5"><a xlink:href="../../da/dc7/class_browser_view.html#a075eb442cd14dfdf391d474164cb5587" target="_top" xlink:title="BrowserView.enableButtons">
<polygon fill="white" stroke="black" points="286.5,-38.5 286.5,-57.5 435.5,-57.5 435.5,-38.5 286.5,-38.5"/>
<text text-anchor="middle" x="361" y="-45.5" font-family="Helvetica,sans-Serif" font-size="10.00">BrowserView.enableButtons</text>
</a>
</g>
</g>
<!-- Node4&#45;&gt;Node5 -->
<g id="edge4" class="edge"><title>Node4&#45;&gt;Node5</title>
<path fill="none" stroke="midnightblue" d="M249.737,-48C258.292,-48 267.281,-48 276.281,-48"/>
<polygon fill="midnightblue" stroke="midnightblue" points="276.424,-51.5001 286.424,-48 276.424,-44.5001 276.424,-51.5001"/>
</g>
<!-- Node5&#45;&gt;Node3 -->
<g id="edge6" class="edge"><title>Node5&#45;&gt;Node3</title>
<path fill="none" stroke="midnightblue" d="M407.674,-57.589C431.989,-62.6939 462.08,-69.0113 487.708,-74.3918"/>
<polygon fill="midnightblue" stroke="midnightblue" points="487.149,-77.8505 497.654,-76.4799 488.587,-70.9999 487.149,-77.8505"/>
</g>
<!-- Node6 -->
<g id="node6" class="node"><title>Node6</title>
<g id="a_node6"><a xlink:href="../../d4/d0e/class_browser_model.html#aef138e6865de073292539cc36ed81d8d" target="_top" xlink:title="BrowserModel.getHome">
<polygon fill="white" stroke="black" points="478.5,-38.5 478.5,-57.5 609.5,-57.5 609.5,-38.5 478.5,-38.5"/>
<text text-anchor="middle" x="544" y="-45.5" font-family="Helvetica,sans-Serif" font-size="10.00">BrowserModel.getHome</text>
</a>
</g>
</g>
<!-- Node5&#45;&gt;Node6 -->
<g id="edge5" class="edge"><title>Node5&#45;&gt;Node6</title>
<path fill="none" stroke="midnightblue" d="M435.62,-48C446.374,-48 457.458,-48 468.236,-48"/>
<polygon fill="midnightblue" stroke="midnightblue" points="468.453,-51.5001 478.453,-48 468.453,-44.5001 468.453,-51.5001"/>
</g>
<!-- Node7 -->
<g id="node7" class="node"><title>Node7</title>
<g id="a_node7"><a xlink:href="../../d4/d0e/class_browser_model.html#a1026df05417d496ec0630e7b76d9bc5c" target="_top" xlink:title="BrowserModel.hasPrevious">
<polygon fill="white" stroke="black" points="472,-0.5 472,-19.5 616,-19.5 616,-0.5 472,-0.5"/>
<text text-anchor="middle" x="544" y="-7.5" font-family="Helvetica,sans-Serif" font-size="10.00">BrowserModel.hasPrevious</text>
</a>
</g>
</g>
<!-- Node5&#45;&gt;Node7 -->
<g id="edge7" class="edge"><title>Node5&#45;&gt;Node7</title>
<path fill="none" stroke="midnightblue" d="M407.674,-38.411C431.989,-33.3061 462.08,-26.9887 487.708,-21.6082"/>
<polygon fill="midnightblue" stroke="midnightblue" points="488.587,-25.0001 497.654,-19.5201 487.149,-18.1495 488.587,-25.0001"/>
</g>
</g>
</svg>
