<?xml version="1.0" encoding="UTF-8" standalone="no"?>
<!DOCTYPE svg PUBLIC "-//W3C//DTD SVG 1.1//EN"
 "http://www.w3.org/Graphics/SVG/1.1/DTD/svg11.dtd">
<!-- Generated by graphviz version 2.36.0 (20140111.2315)
 -->
<!-- Title: Main.start Pages: 1 -->
<svg width="764pt" height="142pt"
 viewBox="0.00 0.00 764.00 142.00" xmlns="http://www.w3.org/2000/svg" xmlns:xlink="http://www.w3.org/1999/xlink">
<g id="graph0" class="graph" transform="scale(1 1) rotate(0) translate(4 138)">
<title>Main.start</title>
<polygon fill="white" stroke="none" points="-4,4 -4,-138 760,-138 760,4 -4,4"/>
<!-- Node1 -->
<g id="node1" class="node"><title>Node1</title>
<polygon fill="#bfbfbf" stroke="black" points="0.5,-95.5 0.5,-114.5 65.5,-114.5 65.5,-95.5 0.5,-95.5"/>
<text text-anchor="middle" x="33" y="-102.5" font-family="Helvetica,sans-Serif" font-size="10.00">Main.start</text>
</g>
<!-- Node2 -->
<g id="node2" class="node"><title>Node2</title>
<g id="a_node2"><a xlink:href="../../da/dc7/class_browser_view.html#a59de00d1005e06ea614d5f15ee606901" target="_top" xlink:title="BrowserView.getScene">
<polygon fill="white" stroke="black" points="102.5,-114.5 102.5,-133.5 227.5,-133.5 227.5,-114.5 102.5,-114.5"/>
<text text-anchor="middle" x="165" y="-121.5" font-family="Helvetica,sans-Serif" font-size="10.00">BrowserView.getScene</text>
</a>
</g>
</g>
<!-- Node1&#45;&gt;Node2 -->
<g id="edge1" class="edge"><title>Node1&#45;&gt;Node2</title>
<path fill="none" stroke="midnightblue" d="M65.8016,-109.648C73.9163,-110.834 82.9746,-112.158 92.2178,-113.509"/>
<polygon fill="midnightblue" stroke="midnightblue" points="91.8833,-116.997 102.284,-114.98 92.8957,-110.071 91.8833,-116.997"/>
</g>
<!-- Node3 -->
<g id="node3" class="node"><title>Node3</title>
<g id="a_node3"><a xlink:href="../../da/dc7/class_browser_view.html#ac654bf4a0eb91d6a9b1cf013e52fc3e5" target="_top" xlink:title="BrowserView.showPage">
<polygon fill="white" stroke="black" points="102,-76.5 102,-95.5 228,-95.5 228,-76.5 102,-76.5"/>
<text text-anchor="middle" x="165" y="-83.5" font-family="Helvetica,sans-Serif" font-size="10.00">BrowserView.showPage</text>
</a>
</g>
</g>
<!-- Node1&#45;&gt;Node3 -->
<g id="edge2" class="edge"><title>Node1&#45;&gt;Node3</title>
<path fill="none" stroke="midnightblue" d="M65.8016,-100.352C73.8059,-99.1822 82.7283,-97.8782 91.8406,-96.5464"/>
<polygon fill="midnightblue" stroke="midnightblue" points="92.38,-100.005 101.769,-95.0953 91.3676,-93.0784 92.38,-100.005"/>
</g>
<!-- Node4 -->
<g id="node4" class="node"><title>Node4</title>
<g id="a_node4"><a xlink:href="../../d4/d0e/class_browser_model.html#a16df284a0004c149f459b18876491b13" target="_top" xlink:title="BrowserModel.go">
<polygon fill="white" stroke="black" points="278,-114.5 278,-133.5 376,-133.5 376,-114.5 278,-114.5"/>
<text text-anchor="middle" x="327" y="-121.5" font-family="Helvetica,sans-Serif" font-size="10.00">BrowserModel.go</text>
</a>
</g>
</g>
<!-- Node3&#45;&gt;Node4 -->
<g id="edge3" class="edge"><title>Node3&#45;&gt;Node4</title>
<path fill="none" stroke="midnightblue" d="M206.375,-95.589C227.488,-100.604 253.529,-106.788 275.917,-112.105"/>
<polygon fill="midnightblue" stroke="midnightblue" points="275.377,-115.574 285.916,-114.48 276.995,-108.764 275.377,-115.574"/>
</g>
<!-- Node7 -->
<g id="node7" class="node"><title>Node7</title>
<g id="a_node7"><a xlink:href="../../da/dc7/class_browser_view.html#a50820a4578ff7cacb849e7886aa75b13" target="_top" xlink:title="BrowserView.showError">
<polygon fill="white" stroke="black" points="264,-76.5 264,-95.5 390,-95.5 390,-76.5 264,-76.5"/>
<text text-anchor="middle" x="327" y="-83.5" font-family="Helvetica,sans-Serif" font-size="10.00">BrowserView.showError</text>
</a>
</g>
</g>
<!-- Node3&#45;&gt;Node7 -->
<g id="edge6" class="edge"><title>Node3&#45;&gt;Node7</title>
<path fill="none" stroke="midnightblue" d="M228.318,-86C236.615,-86 245.179,-86 253.628,-86"/>
<polygon fill="midnightblue" stroke="midnightblue" points="253.852,-89.5001 263.852,-86 253.852,-82.5001 253.852,-89.5001"/>
</g>
<!-- Node8 -->
<g id="node8" class="node"><title>Node8</title>
<g id="a_node8"><a xlink:href="../../da/dc7/class_browser_view.html#a34f643e815549bd4340fb49f0865c030" target="_top" xlink:title="BrowserView.update">
<polygon fill="white" stroke="black" points="270.5,-38.5 270.5,-57.5 383.5,-57.5 383.5,-38.5 270.5,-38.5"/>
<text text-anchor="middle" x="327" y="-45.5" font-family="Helvetica,sans-Serif" font-size="10.00">BrowserView.update</text>
</a>
</g>
</g>
<!-- Node3&#45;&gt;Node8 -->
<g id="edge7" class="edge"><title>Node3&#45;&gt;Node8</title>
<path fill="none" stroke="midnightblue" d="M206.375,-76.411C227.488,-71.3965 253.529,-65.2119 275.917,-59.8947"/>
<polygon fill="midnightblue" stroke="midnightblue" points="276.995,-63.2361 285.916,-57.5201 275.377,-56.4256 276.995,-63.2361"/>
</g>
<!-- Node5 -->
<g id="node5" class="node"><title>Node5</title>
<g id="a_node5"><a xlink:href="../../d4/d0e/class_browser_model.html#afd48fe0bb4e912c2281ea18754fc8fe2" target="_top" xlink:title="BrowserModel.completeURL">
<polygon fill="white" stroke="black" points="426,-114.5 426,-133.5 576,-133.5 576,-114.5 426,-114.5"/>
<text text-anchor="middle" x="501" y="-121.5" font-family="Helvetica,sans-Serif" font-size="10.00">BrowserModel.completeURL</text>
</a>
</g>
</g>
<!-- Node4&#45;&gt;Node5 -->
<g id="edge4" class="edge"><title>Node4&#45;&gt;Node5</title>
<path fill="none" stroke="midnightblue" d="M376.369,-124C388.642,-124 402.188,-124 415.68,-124"/>
<polygon fill="midnightblue" stroke="midnightblue" points="415.964,-127.5 425.964,-124 415.964,-120.5 415.964,-127.5"/>
</g>
<!-- Node6 -->
<g id="node6" class="node"><title>Node6</title>
<g id="a_node6"><a xlink:href="../../d4/d0e/class_browser_model.html#a8543f3aac30c7f3970509c138f37bfa6" target="_top" xlink:title="BrowserModel.hasNext">
<polygon fill="white" stroke="black" points="621,-76.5 621,-95.5 747,-95.5 747,-76.5 621,-76.5"/>
<text text-anchor="middle" x="684" y="-83.5" font-family="Helvetica,sans-Serif" font-size="10.00">BrowserModel.hasNext</text>
</a>
</g>
</g>
<!-- Node4&#45;&gt;Node6 -->
<g id="edge5" class="edge"><title>Node4&#45;&gt;Node6</title>
<path fill="none" stroke="midnightblue" d="M371.238,-114.479C388.235,-111.036 407.963,-107.407 426,-105 488.155,-96.7065 559.285,-91.7991 610.933,-89.056"/>
<polygon fill="midnightblue" stroke="midnightblue" points="611.188,-92.5476 620.994,-88.5359 610.827,-85.5569 611.188,-92.5476"/>
</g>
<!-- Node9 -->
<g id="node9" class="node"><title>Node9</title>
<g id="a_node9"><a xlink:href="../../da/dc7/class_browser_view.html#a075eb442cd14dfdf391d474164cb5587" target="_top" xlink:title="BrowserView.enableButtons">
<polygon fill="white" stroke="black" points="426.5,-38.5 426.5,-57.5 575.5,-57.5 575.5,-38.5 426.5,-38.5"/>
<text text-anchor="middle" x="501" y="-45.5" font-family="Helvetica,sans-Serif" font-size="10.00">BrowserView.enableButtons</text>
</a>
</g>
</g>
<!-- Node8&#45;&gt;Node9 -->
<g id="edge8" class="edge"><title>Node8&#45;&gt;Node9</title>
<path fill="none" stroke="midnightblue" d="M383.843,-48C394.207,-48 405.24,-48 416.225,-48"/>
<polygon fill="midnightblue" stroke="midnightblue" points="416.279,-51.5001 426.279,-48 416.279,-44.5001 416.279,-51.5001"/>
</g>
<!-- Node9&#45;&gt;Node6 -->
<g id="edge10" class="edge"><title>Node9&#45;&gt;Node6</title>
<path fill="none" stroke="midnightblue" d="M547.674,-57.589C571.989,-62.6939 602.08,-69.0113 627.708,-74.3918"/>
<polygon fill="midnightblue" stroke="midnightblue" points="627.149,-77.8505 637.654,-76.4799 628.587,-70.9999 627.149,-77.8505"/>
</g>
<!-- Node10 -->
<g id="node10" class="node"><title>Node10</title>
<g id="a_node10"><a xlink:href="../../d4/d0e/class_browser_model.html#aef138e6865de073292539cc36ed81d8d" target="_top" xlink:title="BrowserModel.getHome">
<polygon fill="white" stroke="black" points="618.5,-38.5 618.5,-57.5 749.5,-57.5 749.5,-38.5 618.5,-38.5"/>
<text text-anchor="middle" x="684" y="-45.5" font-family="Helvetica,sans-Serif" font-size="10.00">BrowserModel.getHome</text>
</a>
</g>
</g>
<!-- Node9&#45;&gt;Node10 -->
<g id="edge9" class="edge"><title>Node9&#45;&gt;Node10</title>
<path fill="none" stroke="midnightblue" d="M575.62,-48C586.374,-48 597.458,-48 608.236,-48"/>
<polygon fill="midnightblue" stroke="midnightblue" points="608.453,-51.5001 618.453,-48 608.453,-44.5001 608.453,-51.5001"/>
</g>
<!-- Node11 -->
<g id="node11" class="node"><title>Node11</title>
<g id="a_node11"><a xlink:href="../../d4/d0e/class_browser_model.html#a1026df05417d496ec0630e7b76d9bc5c" target="_top" xlink:title="BrowserModel.hasPrevious">
<polygon fill="white" stroke="black" points="612,-0.5 612,-19.5 756,-19.5 756,-0.5 612,-0.5"/>
<text text-anchor="middle" x="684" y="-7.5" font-family="Helvetica,sans-Serif" font-size="10.00">BrowserModel.hasPrevious</text>
</a>
</g>
</g>
<!-- Node9&#45;&gt;Node11 -->
<g id="edge11" class="edge"><title>Node9&#45;&gt;Node11</title>
<path fill="none" stroke="midnightblue" d="M547.674,-38.411C571.989,-33.3061 602.08,-26.9887 627.708,-21.6082"/>
<polygon fill="midnightblue" stroke="midnightblue" points="628.587,-25.0001 637.654,-19.5201 627.149,-18.1495 628.587,-25.0001"/>
</g>
</g>
</svg>
