<?xml version="1.0" encoding="UTF-8" standalone="no"?>
<!DOCTYPE svg PUBLIC "-//W3C//DTD SVG 1.1//EN"
 "http://www.w3.org/Graphics/SVG/1.1/DTD/svg11.dtd">
<!-- Generated by graphviz version 2.36.0 (20140111.2315)
 -->
<!-- Title: BrowserModel Pages: 1 -->
<svg width="294pt" height="106pt"
 viewBox="0.00 0.00 294.00 106.00" xmlns="http://www.w3.org/2000/svg" xmlns:xlink="http://www.w3.org/1999/xlink">
<g id="graph0" class="graph" transform="scale(1 1) rotate(0) translate(4 102)">
<title>BrowserModel</title>
<polygon fill="white" stroke="none" points="-4,4 -4,-102 290,-102 290,4 -4,4"/>
<!-- Node1 -->
<g id="node1" class="node"><title>Node1</title>
<polygon fill="#bfbfbf" stroke="black" points="106.5,-0.5 106.5,-19.5 189.5,-19.5 189.5,-0.5 106.5,-0.5"/>
<text text-anchor="middle" x="148" y="-7.5" font-family="Helvetica,sans-Serif" font-size="10.00">BrowserModel</text>
</g>
<!-- Node2 -->
<g id="node2" class="node"><title>Node2</title>
<polygon fill="white" stroke="#bfbfbf" points="-0.5,-78.5 -0.5,-97.5 112.5,-97.5 112.5,-78.5 -0.5,-78.5"/>
<text text-anchor="middle" x="56" y="-85.5" font-family="Helvetica,sans-Serif" font-size="10.00">Map&lt; String, URL &gt;</text>
</g>
<!-- Node2&#45;&gt;Node1 -->
<g id="edge1" class="edge"><title>Node2&#45;&gt;Node1</title>
<path fill="none" stroke="#9a32cd" stroke-dasharray="5,2" d="M62.5902,-68.6391C67.0255,-58.4791 73.7641,-46.2726 83,-38 92.2842,-29.6841 104.489,-23.7087 115.813,-19.5287"/>
<polygon fill="#9a32cd" stroke="#9a32cd" points="59.218,-67.6491 58.7938,-78.2355 65.7271,-70.2242 59.218,-67.6491"/>
<text text-anchor="middle" x="113.5" y="-46.5" font-family="Helvetica,sans-Serif" font-size="10.00"> myFavorites</text>
</g>
<!-- Node3 -->
<g id="node3" class="node"><title>Node3</title>
<polygon fill="white" stroke="#bfbfbf" points="130.5,-78.5 130.5,-97.5 165.5,-97.5 165.5,-78.5 130.5,-78.5"/>
<text text-anchor="middle" x="148" y="-85.5" font-family="Helvetica,sans-Serif" font-size="10.00">URL</text>
</g>
<!-- Node3&#45;&gt;Node1 -->
<g id="edge2" class="edge"><title>Node3&#45;&gt;Node1</title>
<path fill="none" stroke="#9a32cd" stroke-dasharray="5,2" d="M148,-68.2239C148,-52.6974 148,-31.3582 148,-19.6165"/>
<polygon fill="#9a32cd" stroke="#9a32cd" points="144.5,-68.2818 148,-78.2818 151.5,-68.2819 144.5,-68.2818"/>
<text text-anchor="middle" x="183" y="-52" font-family="Helvetica,sans-Serif" font-size="10.00"> myHome</text>
<text text-anchor="middle" x="183" y="-41" font-family="Helvetica,sans-Serif" font-size="10.00">myCurrentURL</text>
</g>
<!-- Node4 -->
<g id="node4" class="node"><title>Node4</title>
<polygon fill="white" stroke="#bfbfbf" points="204,-78.5 204,-97.5 278,-97.5 278,-78.5 204,-78.5"/>
<text text-anchor="middle" x="241" y="-85.5" font-family="Helvetica,sans-Serif" font-size="10.00">List&lt; URL &gt;</text>
</g>
<!-- Node4&#45;&gt;Node1 -->
<g id="edge3" class="edge"><title>Node4&#45;&gt;Node1</title>
<path fill="none" stroke="#9a32cd" stroke-dasharray="5,2" d="M236.486,-68.5596C233.154,-58.3734 227.66,-46.1671 219,-38 209.981,-29.4951 198.013,-23.5956 186.477,-19.535"/>
<polygon fill="#9a32cd" stroke="#9a32cd" points="233.121,-69.5242 239.217,-78.1895 239.856,-67.614 233.121,-69.5242"/>
<text text-anchor="middle" x="260" y="-46.5" font-family="Helvetica,sans-Serif" font-size="10.00"> myHistory</text>
</g>
</g>
</svg>
