<?xml version="1.0" encoding="UTF-8" standalone="no"?>
<!DOCTYPE svg PUBLIC "-//W3C//DTD SVG 1.1//EN"
 "http://www.w3.org/Graphics/SVG/1.1/DTD/svg11.dtd">
<!-- Generated by graphviz version 2.36.0 (20140111.2315)
 -->
<!-- Title: BrowserView Pages: 1 -->
<svg width="540pt" height="346pt"
 viewBox="0.00 0.00 540.00 346.00" xmlns="http://www.w3.org/2000/svg" xmlns:xlink="http://www.w3.org/1999/xlink">
<g id="graph0" class="graph" transform="scale(1 1) rotate(0) translate(4 342)">
<title>BrowserView</title>
<polygon fill="white" stroke="none" points="-4,4 -4,-342 536,-342 536,4 -4,4"/>
<!-- Node1 -->
<g id="node1" class="node"><title>Node1</title>
<polygon fill="#bfbfbf" stroke="black" points="454.5,-150.5 454.5,-169.5 531.5,-169.5 531.5,-150.5 454.5,-150.5"/>
<text text-anchor="middle" x="493" y="-157.5" font-family="Helvetica,sans-Serif" font-size="10.00">BrowserView</text>
</g>
<!-- Node2 -->
<g id="node2" class="node"><title>Node2</title>
<polygon fill="white" stroke="#bfbfbf" points="233.5,-314.5 233.5,-333.5 326.5,-333.5 326.5,-314.5 233.5,-314.5"/>
<text text-anchor="middle" x="280" y="-321.5" font-family="Helvetica,sans-Serif" font-size="10.00">ResourceBundle</text>
</g>
<!-- Node2&#45;&gt;Node1 -->
<g id="edge1" class="edge"><title>Node2&#45;&gt;Node1</title>
<path fill="none" stroke="#9a32cd" stroke-dasharray="5,2" d="M336.921,-328.728C369.055,-328.506 408.39,-322.876 436,-301 478.735,-267.141 488.974,-195.849 491.327,-169.798"/>
<polygon fill="#9a32cd" stroke="#9a32cd" points="336.8,-325.227 326.764,-328.624 336.728,-332.226 336.8,-325.227"/>
<text text-anchor="middle" x="397" y="-330" font-family="Helvetica,sans-Serif" font-size="10.00"> myResources</text>
</g>
<!-- Node3 -->
<g id="node3" class="node"><title>Node3</title>
<polygon fill="white" stroke="#bfbfbf" points="220,-276.5 220,-295.5 340,-295.5 340,-276.5 220,-276.5"/>
<text text-anchor="middle" x="280" y="-283.5" font-family="Helvetica,sans-Serif" font-size="10.00">ComboBox&lt; String &gt;</text>
</g>
<!-- Node3&#45;&gt;Node1 -->
<g id="edge2" class="edge"><title>Node3&#45;&gt;Node1</title>
<path fill="none" stroke="#9a32cd" stroke-dasharray="5,2" d="M350.071,-287.197C378.847,-284.624 411.249,-277.419 436,-260 468.219,-237.325 484.099,-189.905 489.64,-169.582"/>
<polygon fill="#9a32cd" stroke="#9a32cd" points="349.783,-283.708 340.063,-287.922 350.29,-290.69 349.783,-283.708"/>
<text text-anchor="middle" x="397" y="-289" font-family="Helvetica,sans-Serif" font-size="10.00"> myFavorites</text>
</g>
<!-- Node4 -->
<g id="node4" class="node"><title>Node4</title>
<polygon fill="white" stroke="#bfbfbf" points="252,-238.5 252,-257.5 308,-257.5 308,-238.5 252,-238.5"/>
<text text-anchor="middle" x="280" y="-245.5" font-family="Helvetica,sans-Serif" font-size="10.00">TextField</text>
</g>
<!-- Node4&#45;&gt;Node1 -->
<g id="edge3" class="edge"><title>Node4&#45;&gt;Node1</title>
<path fill="none" stroke="#9a32cd" stroke-dasharray="5,2" d="M318.364,-248.861C351.251,-248.075 399.455,-243.061 436,-223 459.347,-210.184 477.802,-183.748 486.52,-169.536"/>
<polygon fill="#9a32cd" stroke="#9a32cd" points="318.216,-245.362 308.258,-248.981 318.299,-252.362 318.216,-245.362"/>
<text text-anchor="middle" x="397" y="-248" font-family="Helvetica,sans-Serif" font-size="10.00"> myURLDisplay</text>
</g>
<!-- Node5 -->
<g id="node5" class="node"><title>Node5</title>
<polygon fill="white" stroke="#bfbfbf" points="255.5,-190.5 255.5,-209.5 304.5,-209.5 304.5,-190.5 255.5,-190.5"/>
<text text-anchor="middle" x="280" y="-197.5" font-family="Helvetica,sans-Serif" font-size="10.00">Button</text>
</g>
<!-- Node5&#45;&gt;Node1 -->
<g id="edge4" class="edge"><title>Node5&#45;&gt;Node1</title>
<path fill="none" stroke="#9a32cd" stroke-dasharray="5,2" d="M314.663,-194.243C346.1,-188.789 394.302,-180.232 436,-172 441.95,-170.825 448.245,-169.529 454.381,-168.236"/>
<polygon fill="#9a32cd" stroke="#9a32cd" points="313.937,-190.816 304.679,-195.968 315.129,-197.714 313.937,-190.816"/>
<text text-anchor="middle" x="397" y="-211" font-family="Helvetica,sans-Serif" font-size="10.00"> myNextButton</text>
<text text-anchor="middle" x="397" y="-200" font-family="Helvetica,sans-Serif" font-size="10.00">myHomeButton</text>
<text text-anchor="middle" x="397" y="-189" font-family="Helvetica,sans-Serif" font-size="10.00">myBackButton</text>
</g>
<!-- Node6 -->
<g id="node6" class="node"><title>Node6</title>
<polygon fill="white" stroke="#bfbfbf" points="259,-152.5 259,-171.5 301,-171.5 301,-152.5 259,-152.5"/>
<text text-anchor="middle" x="280" y="-159.5" font-family="Helvetica,sans-Serif" font-size="10.00">Label</text>
</g>
<!-- Node6&#45;&gt;Node1 -->
<g id="edge5" class="edge"><title>Node6&#45;&gt;Node1</title>
<path fill="none" stroke="#9a32cd" stroke-dasharray="5,2" d="M311.446,-161.566C325.601,-161.374 342.66,-161.157 358,-161 390.569,-160.667 427.591,-160.399 454.455,-160.225"/>
<polygon fill="#9a32cd" stroke="#9a32cd" points="311.216,-158.069 301.265,-161.706 311.312,-165.068 311.216,-158.069"/>
<text text-anchor="middle" x="397" y="-164" font-family="Helvetica,sans-Serif" font-size="10.00"> myStatus</text>
</g>
<!-- Node7 -->
<g id="node7" class="node"><title>Node7</title>
<polygon fill="white" stroke="#bfbfbf" points="256.5,-114.5 256.5,-133.5 303.5,-133.5 303.5,-114.5 256.5,-114.5"/>
<text text-anchor="middle" x="280" y="-121.5" font-family="Helvetica,sans-Serif" font-size="10.00">Scene</text>
</g>
<!-- Node7&#45;&gt;Node1 -->
<g id="edge6" class="edge"><title>Node7&#45;&gt;Node1</title>
<path fill="none" stroke="#9a32cd" stroke-dasharray="5,2" d="M313.723,-127.212C345.232,-130.592 394.14,-136.593 436,-145 443.598,-146.526 451.692,-148.491 459.296,-150.493"/>
<polygon fill="#9a32cd" stroke="#9a32cd" points="314.05,-123.727 303.739,-126.166 313.321,-130.689 314.05,-123.727"/>
<text text-anchor="middle" x="397" y="-148" font-family="Helvetica,sans-Serif" font-size="10.00"> myScene</text>
</g>
<!-- Node8 -->
<g id="node8" class="node"><title>Node8</title>
<polygon fill="white" stroke="#bfbfbf" points="246,-76.5 246,-95.5 314,-95.5 314,-76.5 246,-76.5"/>
<text text-anchor="middle" x="280" y="-83.5" font-family="Helvetica,sans-Serif" font-size="10.00">Dimension</text>
</g>
<!-- Node8&#45;&gt;Node1 -->
<g id="edge7" class="edge"><title>Node8&#45;&gt;Node1</title>
<path fill="none" stroke="#9a32cd" stroke-dasharray="5,2" d="M324.038,-89.305C356.076,-93.0052 400.261,-100.777 436,-117 454.082,-125.208 471.704,-140.247 482.208,-150.185"/>
<polygon fill="#9a32cd" stroke="#9a32cd" points="324.404,-85.8243 314.089,-88.2412 323.66,-92.7846 324.404,-85.8243"/>
<text text-anchor="middle" x="397" y="-120" font-family="Helvetica,sans-Serif" font-size="10.00"> DEFAULT_SIZE</text>
</g>
<!-- Node9 -->
<g id="node9" class="node"><title>Node9</title>
<g id="a_node9"><a xlink:href="../../d4/d0e/class_browser_model.html" target="_top" xlink:title="BrowserModel">
<polygon fill="white" stroke="black" points="238.5,-38.5 238.5,-57.5 321.5,-57.5 321.5,-38.5 238.5,-38.5"/>
<text text-anchor="middle" x="280" y="-45.5" font-family="Helvetica,sans-Serif" font-size="10.00">BrowserModel</text>
</a>
</g>
</g>
<!-- Node9&#45;&gt;Node1 -->
<g id="edge8" class="edge"><title>Node9&#45;&gt;Node1</title>
<path fill="none" stroke="#9a32cd" stroke-dasharray="5,2" d="M331.797,-48.6198C363.971,-51.1999 405.171,-58.7291 436,-79 463.284,-96.9398 481.028,-133.199 488.279,-150.456"/>
<polygon fill="#9a32cd" stroke="#9a32cd" points="331.904,-45.1192 321.693,-47.9462 331.438,-52.1037 331.904,-45.1192"/>
<text text-anchor="middle" x="397" y="-82" font-family="Helvetica,sans-Serif" font-size="10.00"> myModel</text>
</g>
<!-- Node10 -->
<g id="node10" class="node"><title>Node10</title>
<polygon fill="white" stroke="#bfbfbf" points="0.5,-83.5 0.5,-102.5 113.5,-102.5 113.5,-83.5 0.5,-83.5"/>
<text text-anchor="middle" x="57" y="-90.5" font-family="Helvetica,sans-Serif" font-size="10.00">Map&lt; String, URL &gt;</text>
</g>
<!-- Node10&#45;&gt;Node9 -->
<g id="edge9" class="edge"><title>Node10&#45;&gt;Node9</title>
<path fill="none" stroke="#9a32cd" stroke-dasharray="5,2" d="M123.712,-84.9179C148.402,-81.3694 176.626,-76.6991 202,-71 218.199,-67.3617 235.976,-62.136 250.364,-57.5849"/>
<polygon fill="#9a32cd" stroke="#9a32cd" points="123.14,-81.4637 113.724,-86.3205 124.114,-88.3957 123.14,-81.4637"/>
<text text-anchor="middle" x="167" y="-86" font-family="Helvetica,sans-Serif" font-size="10.00"> myFavorites</text>
</g>
<!-- Node11 -->
<g id="node11" class="node"><title>Node11</title>
<polygon fill="white" stroke="#bfbfbf" points="39.5,-38.5 39.5,-57.5 74.5,-57.5 74.5,-38.5 39.5,-38.5"/>
<text text-anchor="middle" x="57" y="-45.5" font-family="Helvetica,sans-Serif" font-size="10.00">URL</text>
</g>
<!-- Node11&#45;&gt;Node9 -->
<g id="edge10" class="edge"><title>Node11&#45;&gt;Node9</title>
<path fill="none" stroke="#9a32cd" stroke-dasharray="5,2" d="M84.9399,-48C123.172,-48 193.479,-48 238.149,-48"/>
<polygon fill="#9a32cd" stroke="#9a32cd" points="84.611,-44.5001 74.6109,-48 84.6109,-51.5001 84.611,-44.5001"/>
<text text-anchor="middle" x="167" y="-62" font-family="Helvetica,sans-Serif" font-size="10.00"> myHome</text>
<text text-anchor="middle" x="167" y="-51" font-family="Helvetica,sans-Serif" font-size="10.00">myCurrentURL</text>
</g>
<!-- Node12 -->
<g id="node12" class="node"><title>Node12</title>
<polygon fill="white" stroke="#bfbfbf" points="20,-0.5 20,-19.5 94,-19.5 94,-0.5 20,-0.5"/>
<text text-anchor="middle" x="57" y="-7.5" font-family="Helvetica,sans-Serif" font-size="10.00">List&lt; URL &gt;</text>
</g>
<!-- Node12&#45;&gt;Node9 -->
<g id="edge11" class="edge"><title>Node12&#45;&gt;Node9</title>
<path fill="none" stroke="#9a32cd" stroke-dasharray="5,2" d="M104.162,-16.9644C132.446,-21.3329 169.363,-27.2164 202,-33 213.801,-35.0913 226.588,-37.5173 238.288,-39.8008"/>
<polygon fill="#9a32cd" stroke="#9a32cd" points="104.572,-13.4864 94.1565,-15.4264 103.509,-20.4051 104.572,-13.4864"/>
<text text-anchor="middle" x="167" y="-36" font-family="Helvetica,sans-Serif" font-size="10.00"> myHistory</text>
</g>
<!-- Node13 -->
<g id="node13" class="node"><title>Node13</title>
<polygon fill="white" stroke="#bfbfbf" points="251,-0.5 251,-19.5 309,-19.5 309,-0.5 251,-0.5"/>
<text text-anchor="middle" x="280" y="-7.5" font-family="Helvetica,sans-Serif" font-size="10.00">WebView</text>
</g>
<!-- Node13&#45;&gt;Node1 -->
<g id="edge12" class="edge"><title>Node13&#45;&gt;Node1</title>
<path fill="none" stroke="#9a32cd" stroke-dasharray="5,2" d="M319.319,-7.19234C353.347,-6.72635 402.704,-11.265 436,-37 473.871,-66.2715 486.946,-126.998 490.695,-150.46"/>
<polygon fill="#9a32cd" stroke="#9a32cd" points="319.181,-3.69475 309.286,-7.4797 319.382,-10.6919 319.181,-3.69475"/>
<text text-anchor="middle" x="397" y="-40" font-family="Helvetica,sans-Serif" font-size="10.00"> myPage</text>
</g>
</g>
</svg>
